M48
; DRILL file {KiCad (5.1.0-894-gde406e36d)} date Friday, June 07, 2019 at 05:39:11 PM
; FORMAT={-:-/ absolute / inch / decimal}
; #@! TF.CreationDate,2019-06-07T17:39:11-07:00
; #@! TF.GenerationSoftware,Kicad,Pcbnew,(5.1.0-894-gde406e36d)
; #@! TF.FileFunction,Plated,1,2,PTH
FMAT,2
INCH
T1C0.0157
T2C0.0236
T3C0.0295
T4C0.0394
%
G90
G05
T1
X8.05Y-2.7
X8.075Y-2.275
X8.075Y-2.575
X8.075Y-2.875
X8.1Y-3.675
X8.1224Y-1.8126
X8.125Y-3.325
X8.15Y-2.325
X8.1571Y-3.4632
X8.2Y-2.125
X8.225Y-1.775
X8.275Y-3.15
X8.275Y-3.2
X8.2947Y-3.4039
X8.2954Y-3.45
X8.3Y-2.7
X8.3Y-3.275
X8.3Y-3.325
X8.3017Y-3.3652
X8.3045Y-3.0722
X8.3046Y-1.755
X8.325Y-3.5
X8.4Y-1.75
X8.4Y-1.925
X8.4Y-2.0454
X8.4Y-2.225
X8.4Y-2.35
X8.4Y-2.525
X8.4Y-2.65
X8.4Y-2.825
X8.4Y-2.95
X8.45Y-1.8
X8.475Y-2.1296
X8.475Y-2.4
X8.475Y-2.7
X8.475Y-3.5
X8.525Y-3.3
X8.5365Y-1.6397
X8.5541Y-1.5879
X8.575Y-2.075
X8.6413Y-3.2246
X8.65Y-3.1
X8.65Y-3.15
X8.8Y-3.225
T2
X8.3963Y-3.875
X8.475Y-3.875
T3
X8.525Y-3.725
X8.575Y-3.725
X8.625Y-3.725
T4
X8.55Y-1.875
X8.55Y-1.975
X8.7Y-1.875
X8.7Y-1.975
X8.175Y-4.225
X8.275Y-4.225
X8.375Y-4.225
X8.475Y-4.225
X8.55Y-2.175
X8.55Y-2.275
X8.05Y-3.1
X8.05Y-3.2
X8.05Y-3.3
X8.05Y-3.4
X8.05Y-3.5
X8.7Y-2.175
X8.7Y-2.275
X8.55Y-2.475
X8.55Y-2.575
X8.7Y-2.475
X8.7Y-2.575
X8.55Y-2.775
X8.55Y-2.875
X8.05Y-1.55
X8.15Y-1.55
X8.25Y-1.55
X8.35Y-1.55
X8.45Y-1.55
X8.7Y-2.775
X8.7Y-2.875
X8.175Y-4.075
X8.275Y-4.075
X8.375Y-4.075
X8.475Y-4.075
T0
M30
