G04 #@! TF.GenerationSoftware,KiCad,Pcbnew,(5.1.0-894-gde406e36d)*
G04 #@! TF.CreationDate,2019-06-07T17:38:46-07:00*
G04 #@! TF.ProjectId,TetheredJoy,54657468-6572-4656-944a-6f792e6b6963,n/c*
G04 #@! TF.SameCoordinates,Original*
G04 #@! TF.FileFunction,Legend,Top*
G04 #@! TF.FilePolarity,Positive*
%FSLAX46Y46*%
G04 Gerber Fmt 4.6, Leading zero omitted, Abs format (unit mm)*
G04 Created by KiCad (PCBNEW (5.1.0-894-gde406e36d)) date 2019-06-07 17:38:46*
%MOMM*%
%LPD*%
G04 APERTURE LIST*
%ADD10C,0.150000*%
%ADD11C,0.120000*%
%ADD12C,2.802000*%
%ADD13C,0.100000*%
%ADD14C,1.527000*%
%ADD15R,1.152000X1.602000*%
%ADD16O,1.152000X1.602000*%
%ADD17C,0.702000*%
%ADD18C,1.252000*%
%ADD19O,1.802000X1.802000*%
%ADD20R,1.802000X1.802000*%
%ADD21R,1.902000X3.602000*%
%ADD22C,1.302000*%
%ADD23R,1.302000X1.302000*%
G04 APERTURE END LIST*
D10*
X202382380Y-66230000D02*
X201382380Y-66230000D01*
X201382380Y-65991904D01*
X201430000Y-65849047D01*
X201525238Y-65753809D01*
X201620476Y-65706190D01*
X201810952Y-65658571D01*
X201953809Y-65658571D01*
X202144285Y-65706190D01*
X202239523Y-65753809D01*
X202334761Y-65849047D01*
X202382380Y-65991904D01*
X202382380Y-66230000D01*
X202382380Y-65230000D02*
X201382380Y-65230000D01*
X202096666Y-64896666D01*
X201382380Y-64563333D01*
X202382380Y-64563333D01*
X201858571Y-63753809D02*
X201858571Y-64087142D01*
X202382380Y-64087142D02*
X201382380Y-64087142D01*
X201382380Y-63610952D01*
X201858571Y-63230000D02*
X201858571Y-62896666D01*
X202382380Y-62753809D02*
X202382380Y-63230000D01*
X201382380Y-63230000D01*
X201382380Y-62753809D01*
X201477619Y-61610952D02*
X201430000Y-61563333D01*
X201382380Y-61468095D01*
X201382380Y-61230000D01*
X201430000Y-61134761D01*
X201477619Y-61087142D01*
X201572857Y-61039523D01*
X201668095Y-61039523D01*
X201810952Y-61087142D01*
X202382380Y-61658571D01*
X202382380Y-61039523D01*
X201382380Y-60420476D02*
X201382380Y-60325238D01*
X201430000Y-60230000D01*
X201477619Y-60182380D01*
X201572857Y-60134761D01*
X201763333Y-60087142D01*
X202001428Y-60087142D01*
X202191904Y-60134761D01*
X202287142Y-60182380D01*
X202334761Y-60230000D01*
X202382380Y-60325238D01*
X202382380Y-60420476D01*
X202334761Y-60515714D01*
X202287142Y-60563333D01*
X202191904Y-60610952D01*
X202001428Y-60658571D01*
X201763333Y-60658571D01*
X201572857Y-60610952D01*
X201477619Y-60563333D01*
X201430000Y-60515714D01*
X201382380Y-60420476D01*
X202382380Y-59134761D02*
X202382380Y-59706190D01*
X202382380Y-59420476D02*
X201382380Y-59420476D01*
X201525238Y-59515714D01*
X201620476Y-59610952D01*
X201668095Y-59706190D01*
X202382380Y-58658571D02*
X202382380Y-58468095D01*
X202334761Y-58372857D01*
X202287142Y-58325238D01*
X202144285Y-58230000D01*
X201953809Y-58182380D01*
X201572857Y-58182380D01*
X201477619Y-58230000D01*
X201430000Y-58277619D01*
X201382380Y-58372857D01*
X201382380Y-58563333D01*
X201430000Y-58658571D01*
X201477619Y-58706190D01*
X201572857Y-58753809D01*
X201810952Y-58753809D01*
X201906190Y-58706190D01*
X201953809Y-58658571D01*
X202001428Y-58563333D01*
X202001428Y-58372857D01*
X201953809Y-58277619D01*
X201906190Y-58230000D01*
X201810952Y-58182380D01*
X198842380Y-67301428D02*
X198842380Y-66730000D01*
X199842380Y-67015714D02*
X198842380Y-67015714D01*
X199461428Y-66396666D02*
X199461428Y-65634761D01*
X198842380Y-64872857D02*
X199556666Y-64872857D01*
X199699523Y-64920476D01*
X199794761Y-65015714D01*
X199842380Y-65158571D01*
X199842380Y-65253809D01*
X199842380Y-64253809D02*
X199794761Y-64349047D01*
X199747142Y-64396666D01*
X199651904Y-64444285D01*
X199366190Y-64444285D01*
X199270952Y-64396666D01*
X199223333Y-64349047D01*
X199175714Y-64253809D01*
X199175714Y-64110952D01*
X199223333Y-64015714D01*
X199270952Y-63968095D01*
X199366190Y-63920476D01*
X199651904Y-63920476D01*
X199747142Y-63968095D01*
X199794761Y-64015714D01*
X199842380Y-64110952D01*
X199842380Y-64253809D01*
X199175714Y-63587142D02*
X199842380Y-63349047D01*
X199175714Y-63110952D02*
X199842380Y-63349047D01*
X200080476Y-63444285D01*
X200128095Y-63491904D01*
X200175714Y-63587142D01*
X199842380Y-61396666D02*
X199366190Y-61730000D01*
X199842380Y-61968095D02*
X198842380Y-61968095D01*
X198842380Y-61587142D01*
X198890000Y-61491904D01*
X198937619Y-61444285D01*
X199032857Y-61396666D01*
X199175714Y-61396666D01*
X199270952Y-61444285D01*
X199318571Y-61491904D01*
X199366190Y-61587142D01*
X199366190Y-61968095D01*
X199794761Y-60587142D02*
X199842380Y-60682380D01*
X199842380Y-60872857D01*
X199794761Y-60968095D01*
X199699523Y-61015714D01*
X199318571Y-61015714D01*
X199223333Y-60968095D01*
X199175714Y-60872857D01*
X199175714Y-60682380D01*
X199223333Y-60587142D01*
X199318571Y-60539523D01*
X199413809Y-60539523D01*
X199509047Y-61015714D01*
X199175714Y-60206190D02*
X199842380Y-59968095D01*
X199175714Y-59730000D01*
X199175714Y-58587142D02*
X199842380Y-58587142D01*
X199270952Y-58587142D02*
X199223333Y-58539523D01*
X199175714Y-58444285D01*
X199175714Y-58301428D01*
X199223333Y-58206190D01*
X199318571Y-58158571D01*
X199842380Y-58158571D01*
X199794761Y-57253809D02*
X199842380Y-57349047D01*
X199842380Y-57539523D01*
X199794761Y-57634761D01*
X199747142Y-57682380D01*
X199651904Y-57730000D01*
X199366190Y-57730000D01*
X199270952Y-57682380D01*
X199223333Y-57634761D01*
X199175714Y-57539523D01*
X199175714Y-57349047D01*
X199223333Y-57253809D01*
D11*
X210515000Y-71890000D02*
X206455000Y-71890000D01*
X206455000Y-71890000D02*
X206455000Y-74160000D01*
X206455000Y-74160000D02*
X210515000Y-74160000D01*
X203335000Y-44120000D02*
X203335000Y-48180000D01*
X203335000Y-48180000D02*
X205605000Y-48180000D01*
X205605000Y-48180000D02*
X205605000Y-44120000D01*
X200795000Y-44120000D02*
X200795000Y-48180000D01*
X200795000Y-48180000D02*
X203065000Y-48180000D01*
X203065000Y-48180000D02*
X203065000Y-44120000D01*
X219643478Y-96453478D02*
G75*
G03X217805000Y-92015000I-1838478J1838478D01*
G01*
X215966522Y-96453478D02*
G75*
G02X217805000Y-92015000I1838478J1838478D01*
G01*
X216005000Y-96465000D02*
X219605000Y-96465000D01*
X209500000Y-78180000D02*
X207685000Y-78180000D01*
X209500000Y-77935000D02*
X209500000Y-78180000D01*
X213360000Y-77935000D02*
X209500000Y-77935000D01*
X217220000Y-77935000D02*
X217220000Y-78180000D01*
X213360000Y-77935000D02*
X217220000Y-77935000D01*
X209500000Y-89705000D02*
X209500000Y-89460000D01*
X213360000Y-89705000D02*
X209500000Y-89705000D01*
X217220000Y-89705000D02*
X217220000Y-89460000D01*
X213360000Y-89705000D02*
X217220000Y-89705000D01*
X213098748Y-73735000D02*
X213621252Y-73735000D01*
X213098748Y-72315000D02*
X213621252Y-72315000D01*
X213098748Y-71195000D02*
X213621252Y-71195000D01*
X213098748Y-69775000D02*
X213621252Y-69775000D01*
X213098748Y-43890000D02*
X213621252Y-43890000D01*
X213098748Y-42470000D02*
X213621252Y-42470000D01*
X205180000Y-50426252D02*
X205180000Y-49903748D01*
X203760000Y-50426252D02*
X203760000Y-49903748D01*
X202640000Y-50426252D02*
X202640000Y-49903748D01*
X201220000Y-50426252D02*
X201220000Y-49903748D01*
X213098748Y-66115000D02*
X213621252Y-66115000D01*
X213098748Y-64695000D02*
X213621252Y-64695000D01*
X213098748Y-63575000D02*
X213621252Y-63575000D01*
X213098748Y-62155000D02*
X213621252Y-62155000D01*
X213098748Y-58495000D02*
X213621252Y-58495000D01*
X213098748Y-57075000D02*
X213621252Y-57075000D01*
X213098748Y-50875000D02*
X213621252Y-50875000D01*
X213098748Y-49455000D02*
X213621252Y-49455000D01*
X213098748Y-55955000D02*
X213621252Y-55955000D01*
X213098748Y-54535000D02*
X213621252Y-54535000D01*
X213098748Y-48335000D02*
X213621252Y-48335000D01*
X213098748Y-46915000D02*
X213621252Y-46915000D01*
X216595000Y-102175000D02*
X216595000Y-103505000D01*
X215265000Y-102175000D02*
X216595000Y-102175000D01*
X213995000Y-102175000D02*
X213995000Y-104835000D01*
X213995000Y-104835000D02*
X206315000Y-104835000D01*
X213995000Y-102175000D02*
X206315000Y-102175000D01*
X206315000Y-102175000D02*
X206315000Y-104835000D01*
X203140000Y-40700000D02*
X203140000Y-39370000D01*
X204470000Y-40700000D02*
X203140000Y-40700000D01*
X205740000Y-40700000D02*
X205740000Y-38040000D01*
X205740000Y-38040000D02*
X215960000Y-38040000D01*
X205740000Y-40700000D02*
X215960000Y-40700000D01*
X215960000Y-40700000D02*
X215960000Y-38040000D01*
X219650000Y-69155000D02*
X220980000Y-69155000D01*
X219650000Y-70485000D02*
X219650000Y-69155000D01*
X219650000Y-71755000D02*
X222310000Y-71755000D01*
X222310000Y-71755000D02*
X222310000Y-74355000D01*
X219650000Y-71755000D02*
X219650000Y-74355000D01*
X219650000Y-74355000D02*
X222310000Y-74355000D01*
X215840000Y-69155000D02*
X217170000Y-69155000D01*
X215840000Y-70485000D02*
X215840000Y-69155000D01*
X215840000Y-71755000D02*
X218500000Y-71755000D01*
X218500000Y-71755000D02*
X218500000Y-74355000D01*
X215840000Y-71755000D02*
X215840000Y-74355000D01*
X215840000Y-74355000D02*
X218500000Y-74355000D01*
X219650000Y-61535000D02*
X220980000Y-61535000D01*
X219650000Y-62865000D02*
X219650000Y-61535000D01*
X219650000Y-64135000D02*
X222310000Y-64135000D01*
X222310000Y-64135000D02*
X222310000Y-66735000D01*
X219650000Y-64135000D02*
X219650000Y-66735000D01*
X219650000Y-66735000D02*
X222310000Y-66735000D01*
X215840000Y-61535000D02*
X217170000Y-61535000D01*
X215840000Y-62865000D02*
X215840000Y-61535000D01*
X215840000Y-64135000D02*
X218500000Y-64135000D01*
X218500000Y-64135000D02*
X218500000Y-66735000D01*
X215840000Y-64135000D02*
X215840000Y-66735000D01*
X215840000Y-66735000D02*
X218500000Y-66735000D01*
X219650000Y-53915000D02*
X220980000Y-53915000D01*
X219650000Y-55245000D02*
X219650000Y-53915000D01*
X219650000Y-56515000D02*
X222310000Y-56515000D01*
X222310000Y-56515000D02*
X222310000Y-59115000D01*
X219650000Y-56515000D02*
X219650000Y-59115000D01*
X219650000Y-59115000D02*
X222310000Y-59115000D01*
X215840000Y-53915000D02*
X217170000Y-53915000D01*
X215840000Y-55245000D02*
X215840000Y-53915000D01*
X215840000Y-56515000D02*
X218500000Y-56515000D01*
X218500000Y-56515000D02*
X218500000Y-59115000D01*
X215840000Y-56515000D02*
X215840000Y-59115000D01*
X215840000Y-59115000D02*
X218500000Y-59115000D01*
X219650000Y-46295000D02*
X220980000Y-46295000D01*
X219650000Y-47625000D02*
X219650000Y-46295000D01*
X219650000Y-48895000D02*
X222310000Y-48895000D01*
X222310000Y-48895000D02*
X222310000Y-51495000D01*
X219650000Y-48895000D02*
X219650000Y-51495000D01*
X219650000Y-51495000D02*
X222310000Y-51495000D01*
X215840000Y-46295000D02*
X217170000Y-46295000D01*
X215840000Y-47625000D02*
X215840000Y-46295000D01*
X215840000Y-48895000D02*
X218500000Y-48895000D01*
X218500000Y-48895000D02*
X218500000Y-51495000D01*
X215840000Y-48895000D02*
X215840000Y-51495000D01*
X215840000Y-51495000D02*
X218500000Y-51495000D01*
X203140000Y-77410000D02*
X204470000Y-77410000D01*
X203140000Y-78740000D02*
X203140000Y-77410000D01*
X203140000Y-80010000D02*
X205800000Y-80010000D01*
X205800000Y-80010000D02*
X205800000Y-90230000D01*
X203140000Y-80010000D02*
X203140000Y-90230000D01*
X203140000Y-90230000D02*
X205800000Y-90230000D01*
X216595000Y-105985000D02*
X216595000Y-107315000D01*
X215265000Y-105985000D02*
X216595000Y-105985000D01*
X213995000Y-105985000D02*
X213995000Y-108645000D01*
X213995000Y-108645000D02*
X206315000Y-108645000D01*
X213995000Y-105985000D02*
X206315000Y-105985000D01*
X206315000Y-105985000D02*
X206315000Y-108645000D01*
X220725000Y-96565000D02*
X220725000Y-103465000D01*
X217425000Y-96565000D02*
X217425000Y-103465000D01*
X220725000Y-96565000D02*
X217425000Y-96565000D01*
X206455000Y-66540000D02*
X210515000Y-66540000D01*
X206455000Y-64270000D02*
X206455000Y-66540000D01*
X210515000Y-64270000D02*
X206455000Y-64270000D01*
X206455000Y-58920000D02*
X210515000Y-58920000D01*
X206455000Y-56650000D02*
X206455000Y-58920000D01*
X210515000Y-56650000D02*
X206455000Y-56650000D01*
X206455000Y-51300000D02*
X210515000Y-51300000D01*
X206455000Y-49030000D02*
X206455000Y-51300000D01*
X210515000Y-49030000D02*
X206455000Y-49030000D01*
X212986252Y-93905000D02*
X212463748Y-93905000D01*
X212986252Y-95325000D02*
X212463748Y-95325000D01*
X216334801Y-99820000D02*
X216334801Y-99420000D01*
X216534801Y-99620000D02*
X216134801Y-99620000D01*
X212184000Y-98795000D02*
X212184000Y-98055000D01*
X212224000Y-98962000D02*
X212224000Y-97888000D01*
X212264000Y-99089000D02*
X212264000Y-97761000D01*
X212304000Y-99193000D02*
X212304000Y-97657000D01*
X212344000Y-99284000D02*
X212344000Y-97566000D01*
X212384000Y-99365000D02*
X212384000Y-97485000D01*
X212424000Y-99438000D02*
X212424000Y-97412000D01*
X212464000Y-97585000D02*
X212464000Y-97345000D01*
X212464000Y-99505000D02*
X212464000Y-99265000D01*
X212504000Y-97585000D02*
X212504000Y-97283000D01*
X212504000Y-99567000D02*
X212504000Y-99265000D01*
X212544000Y-97585000D02*
X212544000Y-97225000D01*
X212544000Y-99625000D02*
X212544000Y-99265000D01*
X212584000Y-97585000D02*
X212584000Y-97171000D01*
X212584000Y-99679000D02*
X212584000Y-99265000D01*
X212624000Y-97585000D02*
X212624000Y-97121000D01*
X212624000Y-99729000D02*
X212624000Y-99265000D01*
X212664000Y-97585000D02*
X212664000Y-97074000D01*
X212664000Y-99776000D02*
X212664000Y-99265000D01*
X212704000Y-97585000D02*
X212704000Y-97029000D01*
X212704000Y-99821000D02*
X212704000Y-99265000D01*
X212744000Y-97585000D02*
X212744000Y-96987000D01*
X212744000Y-99863000D02*
X212744000Y-99265000D01*
X212784000Y-97585000D02*
X212784000Y-96947000D01*
X212784000Y-99903000D02*
X212784000Y-99265000D01*
X212824000Y-97585000D02*
X212824000Y-96909000D01*
X212824000Y-99941000D02*
X212824000Y-99265000D01*
X212864000Y-97585000D02*
X212864000Y-96873000D01*
X212864000Y-99977000D02*
X212864000Y-99265000D01*
X212904000Y-97585000D02*
X212904000Y-96838000D01*
X212904000Y-100012000D02*
X212904000Y-99265000D01*
X212944000Y-97585000D02*
X212944000Y-96806000D01*
X212944000Y-100044000D02*
X212944000Y-99265000D01*
X212984000Y-97585000D02*
X212984000Y-96775000D01*
X212984000Y-100075000D02*
X212984000Y-99265000D01*
X213024000Y-97585000D02*
X213024000Y-96745000D01*
X213024000Y-100105000D02*
X213024000Y-99265000D01*
X213064000Y-97585000D02*
X213064000Y-96717000D01*
X213064000Y-100133000D02*
X213064000Y-99265000D01*
X213104000Y-97585000D02*
X213104000Y-96690000D01*
X213104000Y-100160000D02*
X213104000Y-99265000D01*
X213144000Y-97585000D02*
X213144000Y-96665000D01*
X213144000Y-100185000D02*
X213144000Y-99265000D01*
X213184000Y-97585000D02*
X213184000Y-96640000D01*
X213184000Y-100210000D02*
X213184000Y-99265000D01*
X213224000Y-97585000D02*
X213224000Y-96617000D01*
X213224000Y-100233000D02*
X213224000Y-99265000D01*
X213264000Y-97585000D02*
X213264000Y-96595000D01*
X213264000Y-100255000D02*
X213264000Y-99265000D01*
X213304000Y-97585000D02*
X213304000Y-96574000D01*
X213304000Y-100276000D02*
X213304000Y-99265000D01*
X213344000Y-97585000D02*
X213344000Y-96555000D01*
X213344000Y-100295000D02*
X213344000Y-99265000D01*
X213384000Y-97585000D02*
X213384000Y-96536000D01*
X213384000Y-100314000D02*
X213384000Y-99265000D01*
X213424000Y-97585000D02*
X213424000Y-96518000D01*
X213424000Y-100332000D02*
X213424000Y-99265000D01*
X213464000Y-97585000D02*
X213464000Y-96501000D01*
X213464000Y-100349000D02*
X213464000Y-99265000D01*
X213504000Y-97585000D02*
X213504000Y-96485000D01*
X213504000Y-100365000D02*
X213504000Y-99265000D01*
X213544000Y-97585000D02*
X213544000Y-96471000D01*
X213544000Y-100379000D02*
X213544000Y-99265000D01*
X213585000Y-97585000D02*
X213585000Y-96457000D01*
X213585000Y-100393000D02*
X213585000Y-99265000D01*
X213625000Y-97585000D02*
X213625000Y-96443000D01*
X213625000Y-100407000D02*
X213625000Y-99265000D01*
X213665000Y-97585000D02*
X213665000Y-96431000D01*
X213665000Y-100419000D02*
X213665000Y-99265000D01*
X213705000Y-97585000D02*
X213705000Y-96420000D01*
X213705000Y-100430000D02*
X213705000Y-99265000D01*
X213745000Y-97585000D02*
X213745000Y-96409000D01*
X213745000Y-100441000D02*
X213745000Y-99265000D01*
X213785000Y-97585000D02*
X213785000Y-96400000D01*
X213785000Y-100450000D02*
X213785000Y-99265000D01*
X213825000Y-97585000D02*
X213825000Y-96391000D01*
X213825000Y-100459000D02*
X213825000Y-99265000D01*
X213865000Y-97585000D02*
X213865000Y-96383000D01*
X213865000Y-100467000D02*
X213865000Y-99265000D01*
X213905000Y-97585000D02*
X213905000Y-96375000D01*
X213905000Y-100475000D02*
X213905000Y-99265000D01*
X213945000Y-97585000D02*
X213945000Y-96369000D01*
X213945000Y-100481000D02*
X213945000Y-99265000D01*
X213985000Y-97585000D02*
X213985000Y-96363000D01*
X213985000Y-100487000D02*
X213985000Y-99265000D01*
X214025000Y-97585000D02*
X214025000Y-96358000D01*
X214025000Y-100492000D02*
X214025000Y-99265000D01*
X214065000Y-97585000D02*
X214065000Y-96354000D01*
X214065000Y-100496000D02*
X214065000Y-99265000D01*
X214105000Y-100499000D02*
X214105000Y-96351000D01*
X214145000Y-100502000D02*
X214145000Y-96348000D01*
X214185000Y-100504000D02*
X214185000Y-96346000D01*
X214225000Y-100505000D02*
X214225000Y-96345000D01*
X214265000Y-100505000D02*
X214265000Y-96345000D01*
X216385000Y-98425000D02*
G75*
G03X216385000Y-98425000I-2120000J0D01*
G01*
X221690000Y-82811252D02*
X221690000Y-82288748D01*
X220270000Y-82811252D02*
X220270000Y-82288748D01*
X199950000Y-82288748D02*
X199950000Y-82811252D01*
X201370000Y-82288748D02*
X201370000Y-82811252D01*
D10*
X208176904Y-71657380D02*
X208176904Y-70657380D01*
X208415000Y-70657380D01*
X208557857Y-70705000D01*
X208653095Y-70800238D01*
X208700714Y-70895476D01*
X208748333Y-71085952D01*
X208748333Y-71228809D01*
X208700714Y-71419285D01*
X208653095Y-71514523D01*
X208557857Y-71609761D01*
X208415000Y-71657380D01*
X208176904Y-71657380D01*
X209605476Y-70657380D02*
X209415000Y-70657380D01*
X209319761Y-70705000D01*
X209272142Y-70752619D01*
X209176904Y-70895476D01*
X209129285Y-71085952D01*
X209129285Y-71466904D01*
X209176904Y-71562142D01*
X209224523Y-71609761D01*
X209319761Y-71657380D01*
X209510238Y-71657380D01*
X209605476Y-71609761D01*
X209653095Y-71562142D01*
X209700714Y-71466904D01*
X209700714Y-71228809D01*
X209653095Y-71133571D01*
X209605476Y-71085952D01*
X209510238Y-71038333D01*
X209319761Y-71038333D01*
X209224523Y-71085952D01*
X209176904Y-71133571D01*
X209129285Y-71228809D01*
X203731904Y-42997380D02*
X203731904Y-41997380D01*
X203970000Y-41997380D01*
X204112857Y-42045000D01*
X204208095Y-42140238D01*
X204255714Y-42235476D01*
X204303333Y-42425952D01*
X204303333Y-42568809D01*
X204255714Y-42759285D01*
X204208095Y-42854523D01*
X204112857Y-42949761D01*
X203970000Y-42997380D01*
X203731904Y-42997380D01*
X205208095Y-41997380D02*
X204731904Y-41997380D01*
X204684285Y-42473571D01*
X204731904Y-42425952D01*
X204827142Y-42378333D01*
X205065238Y-42378333D01*
X205160476Y-42425952D01*
X205208095Y-42473571D01*
X205255714Y-42568809D01*
X205255714Y-42806904D01*
X205208095Y-42902142D01*
X205160476Y-42949761D01*
X205065238Y-42997380D01*
X204827142Y-42997380D01*
X204731904Y-42949761D01*
X204684285Y-42902142D01*
X201191904Y-42997380D02*
X201191904Y-41997380D01*
X201430000Y-41997380D01*
X201572857Y-42045000D01*
X201668095Y-42140238D01*
X201715714Y-42235476D01*
X201763333Y-42425952D01*
X201763333Y-42568809D01*
X201715714Y-42759285D01*
X201668095Y-42854523D01*
X201572857Y-42949761D01*
X201430000Y-42997380D01*
X201191904Y-42997380D01*
X202620476Y-42330714D02*
X202620476Y-42997380D01*
X202382380Y-41949761D02*
X202144285Y-42664047D01*
X202763333Y-42664047D01*
X217043095Y-90507380D02*
X217043095Y-91316904D01*
X217090714Y-91412142D01*
X217138333Y-91459761D01*
X217233571Y-91507380D01*
X217424047Y-91507380D01*
X217519285Y-91459761D01*
X217566904Y-91412142D01*
X217614523Y-91316904D01*
X217614523Y-90507380D01*
X218043095Y-90602619D02*
X218090714Y-90555000D01*
X218185952Y-90507380D01*
X218424047Y-90507380D01*
X218519285Y-90555000D01*
X218566904Y-90602619D01*
X218614523Y-90697857D01*
X218614523Y-90793095D01*
X218566904Y-90935952D01*
X217995476Y-91507380D01*
X218614523Y-91507380D01*
X212598095Y-76552380D02*
X212598095Y-77361904D01*
X212645714Y-77457142D01*
X212693333Y-77504761D01*
X212788571Y-77552380D01*
X212979047Y-77552380D01*
X213074285Y-77504761D01*
X213121904Y-77457142D01*
X213169523Y-77361904D01*
X213169523Y-76552380D01*
X214169523Y-77552380D02*
X213598095Y-77552380D01*
X213883809Y-77552380D02*
X213883809Y-76552380D01*
X213788571Y-76695238D01*
X213693333Y-76790476D01*
X213598095Y-76838095D01*
X212717142Y-71827380D02*
X212383809Y-71351190D01*
X212145714Y-71827380D02*
X212145714Y-70827380D01*
X212526666Y-70827380D01*
X212621904Y-70875000D01*
X212669523Y-70922619D01*
X212717142Y-71017857D01*
X212717142Y-71160714D01*
X212669523Y-71255952D01*
X212621904Y-71303571D01*
X212526666Y-71351190D01*
X212145714Y-71351190D01*
X213669523Y-71827380D02*
X213098095Y-71827380D01*
X213383809Y-71827380D02*
X213383809Y-70827380D01*
X213288571Y-70970238D01*
X213193333Y-71065476D01*
X213098095Y-71113095D01*
X214621904Y-71827380D02*
X214050476Y-71827380D01*
X214336190Y-71827380D02*
X214336190Y-70827380D01*
X214240952Y-70970238D01*
X214145714Y-71065476D01*
X214050476Y-71113095D01*
X212717142Y-69287380D02*
X212383809Y-68811190D01*
X212145714Y-69287380D02*
X212145714Y-68287380D01*
X212526666Y-68287380D01*
X212621904Y-68335000D01*
X212669523Y-68382619D01*
X212717142Y-68477857D01*
X212717142Y-68620714D01*
X212669523Y-68715952D01*
X212621904Y-68763571D01*
X212526666Y-68811190D01*
X212145714Y-68811190D01*
X213669523Y-69287380D02*
X213098095Y-69287380D01*
X213383809Y-69287380D02*
X213383809Y-68287380D01*
X213288571Y-68430238D01*
X213193333Y-68525476D01*
X213098095Y-68573095D01*
X214288571Y-68287380D02*
X214383809Y-68287380D01*
X214479047Y-68335000D01*
X214526666Y-68382619D01*
X214574285Y-68477857D01*
X214621904Y-68668333D01*
X214621904Y-68906428D01*
X214574285Y-69096904D01*
X214526666Y-69192142D01*
X214479047Y-69239761D01*
X214383809Y-69287380D01*
X214288571Y-69287380D01*
X214193333Y-69239761D01*
X214145714Y-69192142D01*
X214098095Y-69096904D01*
X214050476Y-68906428D01*
X214050476Y-68668333D01*
X214098095Y-68477857D01*
X214145714Y-68382619D01*
X214193333Y-68335000D01*
X214288571Y-68287380D01*
X209383333Y-43632380D02*
X209050000Y-43156190D01*
X208811904Y-43632380D02*
X208811904Y-42632380D01*
X209192857Y-42632380D01*
X209288095Y-42680000D01*
X209335714Y-42727619D01*
X209383333Y-42822857D01*
X209383333Y-42965714D01*
X209335714Y-43060952D01*
X209288095Y-43108571D01*
X209192857Y-43156190D01*
X208811904Y-43156190D01*
X209859523Y-43632380D02*
X210050000Y-43632380D01*
X210145238Y-43584761D01*
X210192857Y-43537142D01*
X210288095Y-43394285D01*
X210335714Y-43203809D01*
X210335714Y-42822857D01*
X210288095Y-42727619D01*
X210240476Y-42680000D01*
X210145238Y-42632380D01*
X209954761Y-42632380D01*
X209859523Y-42680000D01*
X209811904Y-42727619D01*
X209764285Y-42822857D01*
X209764285Y-43060952D01*
X209811904Y-43156190D01*
X209859523Y-43203809D01*
X209954761Y-43251428D01*
X210145238Y-43251428D01*
X210240476Y-43203809D01*
X210288095Y-43156190D01*
X210335714Y-43060952D01*
X204303333Y-53157380D02*
X203970000Y-52681190D01*
X203731904Y-53157380D02*
X203731904Y-52157380D01*
X204112857Y-52157380D01*
X204208095Y-52205000D01*
X204255714Y-52252619D01*
X204303333Y-52347857D01*
X204303333Y-52490714D01*
X204255714Y-52585952D01*
X204208095Y-52633571D01*
X204112857Y-52681190D01*
X203731904Y-52681190D01*
X204874761Y-52585952D02*
X204779523Y-52538333D01*
X204731904Y-52490714D01*
X204684285Y-52395476D01*
X204684285Y-52347857D01*
X204731904Y-52252619D01*
X204779523Y-52205000D01*
X204874761Y-52157380D01*
X205065238Y-52157380D01*
X205160476Y-52205000D01*
X205208095Y-52252619D01*
X205255714Y-52347857D01*
X205255714Y-52395476D01*
X205208095Y-52490714D01*
X205160476Y-52538333D01*
X205065238Y-52585952D01*
X204874761Y-52585952D01*
X204779523Y-52633571D01*
X204731904Y-52681190D01*
X204684285Y-52776428D01*
X204684285Y-52966904D01*
X204731904Y-53062142D01*
X204779523Y-53109761D01*
X204874761Y-53157380D01*
X205065238Y-53157380D01*
X205160476Y-53109761D01*
X205208095Y-53062142D01*
X205255714Y-52966904D01*
X205255714Y-52776428D01*
X205208095Y-52681190D01*
X205160476Y-52633571D01*
X205065238Y-52585952D01*
X201763333Y-53157380D02*
X201430000Y-52681190D01*
X201191904Y-53157380D02*
X201191904Y-52157380D01*
X201572857Y-52157380D01*
X201668095Y-52205000D01*
X201715714Y-52252619D01*
X201763333Y-52347857D01*
X201763333Y-52490714D01*
X201715714Y-52585952D01*
X201668095Y-52633571D01*
X201572857Y-52681190D01*
X201191904Y-52681190D01*
X202096666Y-52157380D02*
X202763333Y-52157380D01*
X202334761Y-53157380D01*
X213193333Y-64207380D02*
X212860000Y-63731190D01*
X212621904Y-64207380D02*
X212621904Y-63207380D01*
X213002857Y-63207380D01*
X213098095Y-63255000D01*
X213145714Y-63302619D01*
X213193333Y-63397857D01*
X213193333Y-63540714D01*
X213145714Y-63635952D01*
X213098095Y-63683571D01*
X213002857Y-63731190D01*
X212621904Y-63731190D01*
X214050476Y-63207380D02*
X213860000Y-63207380D01*
X213764761Y-63255000D01*
X213717142Y-63302619D01*
X213621904Y-63445476D01*
X213574285Y-63635952D01*
X213574285Y-64016904D01*
X213621904Y-64112142D01*
X213669523Y-64159761D01*
X213764761Y-64207380D01*
X213955238Y-64207380D01*
X214050476Y-64159761D01*
X214098095Y-64112142D01*
X214145714Y-64016904D01*
X214145714Y-63778809D01*
X214098095Y-63683571D01*
X214050476Y-63635952D01*
X213955238Y-63588333D01*
X213764761Y-63588333D01*
X213669523Y-63635952D01*
X213621904Y-63683571D01*
X213574285Y-63778809D01*
X213193333Y-61667380D02*
X212860000Y-61191190D01*
X212621904Y-61667380D02*
X212621904Y-60667380D01*
X213002857Y-60667380D01*
X213098095Y-60715000D01*
X213145714Y-60762619D01*
X213193333Y-60857857D01*
X213193333Y-61000714D01*
X213145714Y-61095952D01*
X213098095Y-61143571D01*
X213002857Y-61191190D01*
X212621904Y-61191190D01*
X214098095Y-60667380D02*
X213621904Y-60667380D01*
X213574285Y-61143571D01*
X213621904Y-61095952D01*
X213717142Y-61048333D01*
X213955238Y-61048333D01*
X214050476Y-61095952D01*
X214098095Y-61143571D01*
X214145714Y-61238809D01*
X214145714Y-61476904D01*
X214098095Y-61572142D01*
X214050476Y-61619761D01*
X213955238Y-61667380D01*
X213717142Y-61667380D01*
X213621904Y-61619761D01*
X213574285Y-61572142D01*
X213193333Y-56587380D02*
X212860000Y-56111190D01*
X212621904Y-56587380D02*
X212621904Y-55587380D01*
X213002857Y-55587380D01*
X213098095Y-55635000D01*
X213145714Y-55682619D01*
X213193333Y-55777857D01*
X213193333Y-55920714D01*
X213145714Y-56015952D01*
X213098095Y-56063571D01*
X213002857Y-56111190D01*
X212621904Y-56111190D01*
X214050476Y-55920714D02*
X214050476Y-56587380D01*
X213812380Y-55539761D02*
X213574285Y-56254047D01*
X214193333Y-56254047D01*
X213193333Y-48967380D02*
X212860000Y-48491190D01*
X212621904Y-48967380D02*
X212621904Y-47967380D01*
X213002857Y-47967380D01*
X213098095Y-48015000D01*
X213145714Y-48062619D01*
X213193333Y-48157857D01*
X213193333Y-48300714D01*
X213145714Y-48395952D01*
X213098095Y-48443571D01*
X213002857Y-48491190D01*
X212621904Y-48491190D01*
X213526666Y-47967380D02*
X214145714Y-47967380D01*
X213812380Y-48348333D01*
X213955238Y-48348333D01*
X214050476Y-48395952D01*
X214098095Y-48443571D01*
X214145714Y-48538809D01*
X214145714Y-48776904D01*
X214098095Y-48872142D01*
X214050476Y-48919761D01*
X213955238Y-48967380D01*
X213669523Y-48967380D01*
X213574285Y-48919761D01*
X213526666Y-48872142D01*
X213193333Y-54047380D02*
X212860000Y-53571190D01*
X212621904Y-54047380D02*
X212621904Y-53047380D01*
X213002857Y-53047380D01*
X213098095Y-53095000D01*
X213145714Y-53142619D01*
X213193333Y-53237857D01*
X213193333Y-53380714D01*
X213145714Y-53475952D01*
X213098095Y-53523571D01*
X213002857Y-53571190D01*
X212621904Y-53571190D01*
X213574285Y-53142619D02*
X213621904Y-53095000D01*
X213717142Y-53047380D01*
X213955238Y-53047380D01*
X214050476Y-53095000D01*
X214098095Y-53142619D01*
X214145714Y-53237857D01*
X214145714Y-53333095D01*
X214098095Y-53475952D01*
X213526666Y-54047380D01*
X214145714Y-54047380D01*
X213193333Y-46427380D02*
X212860000Y-45951190D01*
X212621904Y-46427380D02*
X212621904Y-45427380D01*
X213002857Y-45427380D01*
X213098095Y-45475000D01*
X213145714Y-45522619D01*
X213193333Y-45617857D01*
X213193333Y-45760714D01*
X213145714Y-45855952D01*
X213098095Y-45903571D01*
X213002857Y-45951190D01*
X212621904Y-45951190D01*
X214145714Y-46427380D02*
X213574285Y-46427380D01*
X213860000Y-46427380D02*
X213860000Y-45427380D01*
X213764761Y-45570238D01*
X213669523Y-45665476D01*
X213574285Y-45713095D01*
X214455476Y-100417380D02*
X214455476Y-101131666D01*
X214407857Y-101274523D01*
X214312619Y-101369761D01*
X214169761Y-101417380D01*
X214074523Y-101417380D01*
X215455476Y-101417380D02*
X214884047Y-101417380D01*
X215169761Y-101417380D02*
X215169761Y-100417380D01*
X215074523Y-100560238D01*
X214979285Y-100655476D01*
X214884047Y-100703095D01*
X215836428Y-100512619D02*
X215884047Y-100465000D01*
X215979285Y-100417380D01*
X216217380Y-100417380D01*
X216312619Y-100465000D01*
X216360238Y-100512619D01*
X216407857Y-100607857D01*
X216407857Y-100703095D01*
X216360238Y-100845952D01*
X215788809Y-101417380D01*
X216407857Y-101417380D01*
X199850476Y-38822380D02*
X199850476Y-39536666D01*
X199802857Y-39679523D01*
X199707619Y-39774761D01*
X199564761Y-39822380D01*
X199469523Y-39822380D01*
X200850476Y-39822380D02*
X200279047Y-39822380D01*
X200564761Y-39822380D02*
X200564761Y-38822380D01*
X200469523Y-38965238D01*
X200374285Y-39060476D01*
X200279047Y-39108095D01*
X201802857Y-39822380D02*
X201231428Y-39822380D01*
X201517142Y-39822380D02*
X201517142Y-38822380D01*
X201421904Y-38965238D01*
X201326666Y-39060476D01*
X201231428Y-39108095D01*
X220170476Y-67607380D02*
X220170476Y-68321666D01*
X220122857Y-68464523D01*
X220027619Y-68559761D01*
X219884761Y-68607380D01*
X219789523Y-68607380D01*
X221170476Y-68607380D02*
X220599047Y-68607380D01*
X220884761Y-68607380D02*
X220884761Y-67607380D01*
X220789523Y-67750238D01*
X220694285Y-67845476D01*
X220599047Y-67893095D01*
X221789523Y-67607380D02*
X221884761Y-67607380D01*
X221980000Y-67655000D01*
X222027619Y-67702619D01*
X222075238Y-67797857D01*
X222122857Y-67988333D01*
X222122857Y-68226428D01*
X222075238Y-68416904D01*
X222027619Y-68512142D01*
X221980000Y-68559761D01*
X221884761Y-68607380D01*
X221789523Y-68607380D01*
X221694285Y-68559761D01*
X221646666Y-68512142D01*
X221599047Y-68416904D01*
X221551428Y-68226428D01*
X221551428Y-67988333D01*
X221599047Y-67797857D01*
X221646666Y-67702619D01*
X221694285Y-67655000D01*
X221789523Y-67607380D01*
X216836666Y-67607380D02*
X216836666Y-68321666D01*
X216789047Y-68464523D01*
X216693809Y-68559761D01*
X216550952Y-68607380D01*
X216455714Y-68607380D01*
X217360476Y-68607380D02*
X217550952Y-68607380D01*
X217646190Y-68559761D01*
X217693809Y-68512142D01*
X217789047Y-68369285D01*
X217836666Y-68178809D01*
X217836666Y-67797857D01*
X217789047Y-67702619D01*
X217741428Y-67655000D01*
X217646190Y-67607380D01*
X217455714Y-67607380D01*
X217360476Y-67655000D01*
X217312857Y-67702619D01*
X217265238Y-67797857D01*
X217265238Y-68035952D01*
X217312857Y-68131190D01*
X217360476Y-68178809D01*
X217455714Y-68226428D01*
X217646190Y-68226428D01*
X217741428Y-68178809D01*
X217789047Y-68131190D01*
X217836666Y-68035952D01*
X220646666Y-59987380D02*
X220646666Y-60701666D01*
X220599047Y-60844523D01*
X220503809Y-60939761D01*
X220360952Y-60987380D01*
X220265714Y-60987380D01*
X221265714Y-60415952D02*
X221170476Y-60368333D01*
X221122857Y-60320714D01*
X221075238Y-60225476D01*
X221075238Y-60177857D01*
X221122857Y-60082619D01*
X221170476Y-60035000D01*
X221265714Y-59987380D01*
X221456190Y-59987380D01*
X221551428Y-60035000D01*
X221599047Y-60082619D01*
X221646666Y-60177857D01*
X221646666Y-60225476D01*
X221599047Y-60320714D01*
X221551428Y-60368333D01*
X221456190Y-60415952D01*
X221265714Y-60415952D01*
X221170476Y-60463571D01*
X221122857Y-60511190D01*
X221075238Y-60606428D01*
X221075238Y-60796904D01*
X221122857Y-60892142D01*
X221170476Y-60939761D01*
X221265714Y-60987380D01*
X221456190Y-60987380D01*
X221551428Y-60939761D01*
X221599047Y-60892142D01*
X221646666Y-60796904D01*
X221646666Y-60606428D01*
X221599047Y-60511190D01*
X221551428Y-60463571D01*
X221456190Y-60415952D01*
X216836666Y-59987380D02*
X216836666Y-60701666D01*
X216789047Y-60844523D01*
X216693809Y-60939761D01*
X216550952Y-60987380D01*
X216455714Y-60987380D01*
X217217619Y-59987380D02*
X217884285Y-59987380D01*
X217455714Y-60987380D01*
X220646666Y-52367380D02*
X220646666Y-53081666D01*
X220599047Y-53224523D01*
X220503809Y-53319761D01*
X220360952Y-53367380D01*
X220265714Y-53367380D01*
X221551428Y-52367380D02*
X221360952Y-52367380D01*
X221265714Y-52415000D01*
X221218095Y-52462619D01*
X221122857Y-52605476D01*
X221075238Y-52795952D01*
X221075238Y-53176904D01*
X221122857Y-53272142D01*
X221170476Y-53319761D01*
X221265714Y-53367380D01*
X221456190Y-53367380D01*
X221551428Y-53319761D01*
X221599047Y-53272142D01*
X221646666Y-53176904D01*
X221646666Y-52938809D01*
X221599047Y-52843571D01*
X221551428Y-52795952D01*
X221456190Y-52748333D01*
X221265714Y-52748333D01*
X221170476Y-52795952D01*
X221122857Y-52843571D01*
X221075238Y-52938809D01*
X216836666Y-52367380D02*
X216836666Y-53081666D01*
X216789047Y-53224523D01*
X216693809Y-53319761D01*
X216550952Y-53367380D01*
X216455714Y-53367380D01*
X217789047Y-52367380D02*
X217312857Y-52367380D01*
X217265238Y-52843571D01*
X217312857Y-52795952D01*
X217408095Y-52748333D01*
X217646190Y-52748333D01*
X217741428Y-52795952D01*
X217789047Y-52843571D01*
X217836666Y-52938809D01*
X217836666Y-53176904D01*
X217789047Y-53272142D01*
X217741428Y-53319761D01*
X217646190Y-53367380D01*
X217408095Y-53367380D01*
X217312857Y-53319761D01*
X217265238Y-53272142D01*
X220646666Y-44747380D02*
X220646666Y-45461666D01*
X220599047Y-45604523D01*
X220503809Y-45699761D01*
X220360952Y-45747380D01*
X220265714Y-45747380D01*
X221551428Y-45080714D02*
X221551428Y-45747380D01*
X221313333Y-44699761D02*
X221075238Y-45414047D01*
X221694285Y-45414047D01*
X216836666Y-44747380D02*
X216836666Y-45461666D01*
X216789047Y-45604523D01*
X216693809Y-45699761D01*
X216550952Y-45747380D01*
X216455714Y-45747380D01*
X217217619Y-44747380D02*
X217836666Y-44747380D01*
X217503333Y-45128333D01*
X217646190Y-45128333D01*
X217741428Y-45175952D01*
X217789047Y-45223571D01*
X217836666Y-45318809D01*
X217836666Y-45556904D01*
X217789047Y-45652142D01*
X217741428Y-45699761D01*
X217646190Y-45747380D01*
X217360476Y-45747380D01*
X217265238Y-45699761D01*
X217217619Y-45652142D01*
X204136666Y-75862380D02*
X204136666Y-76576666D01*
X204089047Y-76719523D01*
X203993809Y-76814761D01*
X203850952Y-76862380D01*
X203755714Y-76862380D01*
X204565238Y-75957619D02*
X204612857Y-75910000D01*
X204708095Y-75862380D01*
X204946190Y-75862380D01*
X205041428Y-75910000D01*
X205089047Y-75957619D01*
X205136666Y-76052857D01*
X205136666Y-76148095D01*
X205089047Y-76290952D01*
X204517619Y-76862380D01*
X205136666Y-76862380D01*
X218106666Y-107402380D02*
X218106666Y-108116666D01*
X218059047Y-108259523D01*
X217963809Y-108354761D01*
X217820952Y-108402380D01*
X217725714Y-108402380D01*
X219106666Y-108402380D02*
X218535238Y-108402380D01*
X218820952Y-108402380D02*
X218820952Y-107402380D01*
X218725714Y-107545238D01*
X218630476Y-107640476D01*
X218535238Y-107688095D01*
X222027380Y-101703095D02*
X221027380Y-101703095D01*
X221027380Y-101465000D01*
X221075000Y-101322142D01*
X221170238Y-101226904D01*
X221265476Y-101179285D01*
X221455952Y-101131666D01*
X221598809Y-101131666D01*
X221789285Y-101179285D01*
X221884523Y-101226904D01*
X221979761Y-101322142D01*
X222027380Y-101465000D01*
X222027380Y-101703095D01*
X221027380Y-100798333D02*
X221027380Y-100131666D01*
X222027380Y-100560238D01*
X208176904Y-64037380D02*
X208176904Y-63037380D01*
X208415000Y-63037380D01*
X208557857Y-63085000D01*
X208653095Y-63180238D01*
X208700714Y-63275476D01*
X208748333Y-63465952D01*
X208748333Y-63608809D01*
X208700714Y-63799285D01*
X208653095Y-63894523D01*
X208557857Y-63989761D01*
X208415000Y-64037380D01*
X208176904Y-64037380D01*
X209081666Y-63037380D02*
X209700714Y-63037380D01*
X209367380Y-63418333D01*
X209510238Y-63418333D01*
X209605476Y-63465952D01*
X209653095Y-63513571D01*
X209700714Y-63608809D01*
X209700714Y-63846904D01*
X209653095Y-63942142D01*
X209605476Y-63989761D01*
X209510238Y-64037380D01*
X209224523Y-64037380D01*
X209129285Y-63989761D01*
X209081666Y-63942142D01*
X208176904Y-56417380D02*
X208176904Y-55417380D01*
X208415000Y-55417380D01*
X208557857Y-55465000D01*
X208653095Y-55560238D01*
X208700714Y-55655476D01*
X208748333Y-55845952D01*
X208748333Y-55988809D01*
X208700714Y-56179285D01*
X208653095Y-56274523D01*
X208557857Y-56369761D01*
X208415000Y-56417380D01*
X208176904Y-56417380D01*
X209129285Y-55512619D02*
X209176904Y-55465000D01*
X209272142Y-55417380D01*
X209510238Y-55417380D01*
X209605476Y-55465000D01*
X209653095Y-55512619D01*
X209700714Y-55607857D01*
X209700714Y-55703095D01*
X209653095Y-55845952D01*
X209081666Y-56417380D01*
X209700714Y-56417380D01*
X208176904Y-48797380D02*
X208176904Y-47797380D01*
X208415000Y-47797380D01*
X208557857Y-47845000D01*
X208653095Y-47940238D01*
X208700714Y-48035476D01*
X208748333Y-48225952D01*
X208748333Y-48368809D01*
X208700714Y-48559285D01*
X208653095Y-48654523D01*
X208557857Y-48749761D01*
X208415000Y-48797380D01*
X208176904Y-48797380D01*
X209700714Y-48797380D02*
X209129285Y-48797380D01*
X209415000Y-48797380D02*
X209415000Y-47797380D01*
X209319761Y-47940238D01*
X209224523Y-48035476D01*
X209129285Y-48083095D01*
X212558333Y-96622142D02*
X212510714Y-96669761D01*
X212367857Y-96717380D01*
X212272619Y-96717380D01*
X212129761Y-96669761D01*
X212034523Y-96574523D01*
X211986904Y-96479285D01*
X211939285Y-96288809D01*
X211939285Y-96145952D01*
X211986904Y-95955476D01*
X212034523Y-95860238D01*
X212129761Y-95765000D01*
X212272619Y-95717380D01*
X212367857Y-95717380D01*
X212510714Y-95765000D01*
X212558333Y-95812619D01*
X213415476Y-96050714D02*
X213415476Y-96717380D01*
X213177380Y-95669761D02*
X212939285Y-96384047D01*
X213558333Y-96384047D01*
X210653333Y-99417142D02*
X210605714Y-99464761D01*
X210462857Y-99512380D01*
X210367619Y-99512380D01*
X210224761Y-99464761D01*
X210129523Y-99369523D01*
X210081904Y-99274285D01*
X210034285Y-99083809D01*
X210034285Y-98940952D01*
X210081904Y-98750476D01*
X210129523Y-98655238D01*
X210224761Y-98560000D01*
X210367619Y-98512380D01*
X210462857Y-98512380D01*
X210605714Y-98560000D01*
X210653333Y-98607619D01*
X210986666Y-98512380D02*
X211605714Y-98512380D01*
X211272380Y-98893333D01*
X211415238Y-98893333D01*
X211510476Y-98940952D01*
X211558095Y-98988571D01*
X211605714Y-99083809D01*
X211605714Y-99321904D01*
X211558095Y-99417142D01*
X211510476Y-99464761D01*
X211415238Y-99512380D01*
X211129523Y-99512380D01*
X211034285Y-99464761D01*
X210986666Y-99417142D01*
X220813333Y-80367142D02*
X220765714Y-80414761D01*
X220622857Y-80462380D01*
X220527619Y-80462380D01*
X220384761Y-80414761D01*
X220289523Y-80319523D01*
X220241904Y-80224285D01*
X220194285Y-80033809D01*
X220194285Y-79890952D01*
X220241904Y-79700476D01*
X220289523Y-79605238D01*
X220384761Y-79510000D01*
X220527619Y-79462380D01*
X220622857Y-79462380D01*
X220765714Y-79510000D01*
X220813333Y-79557619D01*
X221194285Y-79557619D02*
X221241904Y-79510000D01*
X221337142Y-79462380D01*
X221575238Y-79462380D01*
X221670476Y-79510000D01*
X221718095Y-79557619D01*
X221765714Y-79652857D01*
X221765714Y-79748095D01*
X221718095Y-79890952D01*
X221146666Y-80462380D01*
X221765714Y-80462380D01*
X200493333Y-80367142D02*
X200445714Y-80414761D01*
X200302857Y-80462380D01*
X200207619Y-80462380D01*
X200064761Y-80414761D01*
X199969523Y-80319523D01*
X199921904Y-80224285D01*
X199874285Y-80033809D01*
X199874285Y-79890952D01*
X199921904Y-79700476D01*
X199969523Y-79605238D01*
X200064761Y-79510000D01*
X200207619Y-79462380D01*
X200302857Y-79462380D01*
X200445714Y-79510000D01*
X200493333Y-79557619D01*
X201445714Y-80462380D02*
X200874285Y-80462380D01*
X201160000Y-80462380D02*
X201160000Y-79462380D01*
X201064761Y-79605238D01*
X200969523Y-79700476D01*
X200874285Y-79748095D01*
%LPC*%
D12*
X220980000Y-38100000D03*
X201930000Y-106680000D03*
D13*
G36*
X211000624Y-72119392D02*
G01*
X211087535Y-72177465D01*
X211145608Y-72264376D01*
X211166000Y-72366895D01*
X211166000Y-73683105D01*
X211145608Y-73785624D01*
X211087535Y-73872535D01*
X211000624Y-73930608D01*
X210898105Y-73951000D01*
X209906895Y-73951000D01*
X209804376Y-73930608D01*
X209717465Y-73872535D01*
X209659392Y-73785624D01*
X209639000Y-73683105D01*
X209639000Y-72366895D01*
X209659392Y-72264376D01*
X209717465Y-72177465D01*
X209804376Y-72119392D01*
X209906895Y-72099000D01*
X210898105Y-72099000D01*
X211000624Y-72119392D01*
X211000624Y-72119392D01*
G37*
D14*
X210402500Y-73025000D03*
D13*
G36*
X208025624Y-72119392D02*
G01*
X208112535Y-72177465D01*
X208170608Y-72264376D01*
X208191000Y-72366895D01*
X208191000Y-73683105D01*
X208170608Y-73785624D01*
X208112535Y-73872535D01*
X208025624Y-73930608D01*
X207923105Y-73951000D01*
X206931895Y-73951000D01*
X206829376Y-73930608D01*
X206742465Y-73872535D01*
X206684392Y-73785624D01*
X206664000Y-73683105D01*
X206664000Y-72366895D01*
X206684392Y-72264376D01*
X206742465Y-72177465D01*
X206829376Y-72119392D01*
X206931895Y-72099000D01*
X207923105Y-72099000D01*
X208025624Y-72119392D01*
X208025624Y-72119392D01*
G37*
D14*
X207427500Y-73025000D03*
D13*
G36*
X205230624Y-43489392D02*
G01*
X205317535Y-43547465D01*
X205375608Y-43634376D01*
X205396000Y-43736895D01*
X205396000Y-44728105D01*
X205375608Y-44830624D01*
X205317535Y-44917535D01*
X205230624Y-44975608D01*
X205128105Y-44996000D01*
X203811895Y-44996000D01*
X203709376Y-44975608D01*
X203622465Y-44917535D01*
X203564392Y-44830624D01*
X203544000Y-44728105D01*
X203544000Y-43736895D01*
X203564392Y-43634376D01*
X203622465Y-43547465D01*
X203709376Y-43489392D01*
X203811895Y-43469000D01*
X205128105Y-43469000D01*
X205230624Y-43489392D01*
X205230624Y-43489392D01*
G37*
D14*
X204470000Y-44232500D03*
D13*
G36*
X205230624Y-46464392D02*
G01*
X205317535Y-46522465D01*
X205375608Y-46609376D01*
X205396000Y-46711895D01*
X205396000Y-47703105D01*
X205375608Y-47805624D01*
X205317535Y-47892535D01*
X205230624Y-47950608D01*
X205128105Y-47971000D01*
X203811895Y-47971000D01*
X203709376Y-47950608D01*
X203622465Y-47892535D01*
X203564392Y-47805624D01*
X203544000Y-47703105D01*
X203544000Y-46711895D01*
X203564392Y-46609376D01*
X203622465Y-46522465D01*
X203709376Y-46464392D01*
X203811895Y-46444000D01*
X205128105Y-46444000D01*
X205230624Y-46464392D01*
X205230624Y-46464392D01*
G37*
D14*
X204470000Y-47207500D03*
D13*
G36*
X202690624Y-43489392D02*
G01*
X202777535Y-43547465D01*
X202835608Y-43634376D01*
X202856000Y-43736895D01*
X202856000Y-44728105D01*
X202835608Y-44830624D01*
X202777535Y-44917535D01*
X202690624Y-44975608D01*
X202588105Y-44996000D01*
X201271895Y-44996000D01*
X201169376Y-44975608D01*
X201082465Y-44917535D01*
X201024392Y-44830624D01*
X201004000Y-44728105D01*
X201004000Y-43736895D01*
X201024392Y-43634376D01*
X201082465Y-43547465D01*
X201169376Y-43489392D01*
X201271895Y-43469000D01*
X202588105Y-43469000D01*
X202690624Y-43489392D01*
X202690624Y-43489392D01*
G37*
D14*
X201930000Y-44232500D03*
D13*
G36*
X202690624Y-46464392D02*
G01*
X202777535Y-46522465D01*
X202835608Y-46609376D01*
X202856000Y-46711895D01*
X202856000Y-47703105D01*
X202835608Y-47805624D01*
X202777535Y-47892535D01*
X202690624Y-47950608D01*
X202588105Y-47971000D01*
X201271895Y-47971000D01*
X201169376Y-47950608D01*
X201082465Y-47892535D01*
X201024392Y-47805624D01*
X201004000Y-47703105D01*
X201004000Y-46711895D01*
X201024392Y-46609376D01*
X201082465Y-46522465D01*
X201169376Y-46464392D01*
X201271895Y-46444000D01*
X202588105Y-46444000D01*
X202690624Y-46464392D01*
X202690624Y-46464392D01*
G37*
D14*
X201930000Y-47207500D03*
D15*
X216535000Y-94615000D03*
D16*
X219075000Y-94615000D03*
X217805000Y-94615000D03*
D13*
G36*
X218992059Y-78409102D02*
G01*
X219054934Y-78464805D01*
X219086000Y-78564500D01*
X219086000Y-78915500D01*
X219065898Y-78997059D01*
X219010195Y-79059934D01*
X218910500Y-79091000D01*
X217109500Y-79091000D01*
X217027941Y-79070898D01*
X216965066Y-79015195D01*
X216934000Y-78915500D01*
X216934000Y-78564500D01*
X216954102Y-78482941D01*
X217009805Y-78420066D01*
X217109500Y-78389000D01*
X218910500Y-78389000D01*
X218992059Y-78409102D01*
X218992059Y-78409102D01*
G37*
D17*
X218010000Y-78740000D03*
D13*
G36*
X218992059Y-79679102D02*
G01*
X219054934Y-79734805D01*
X219086000Y-79834500D01*
X219086000Y-80185500D01*
X219065898Y-80267059D01*
X219010195Y-80329934D01*
X218910500Y-80361000D01*
X217109500Y-80361000D01*
X217027941Y-80340898D01*
X216965066Y-80285195D01*
X216934000Y-80185500D01*
X216934000Y-79834500D01*
X216954102Y-79752941D01*
X217009805Y-79690066D01*
X217109500Y-79659000D01*
X218910500Y-79659000D01*
X218992059Y-79679102D01*
X218992059Y-79679102D01*
G37*
D17*
X218010000Y-80010000D03*
D13*
G36*
X218992059Y-80949102D02*
G01*
X219054934Y-81004805D01*
X219086000Y-81104500D01*
X219086000Y-81455500D01*
X219065898Y-81537059D01*
X219010195Y-81599934D01*
X218910500Y-81631000D01*
X217109500Y-81631000D01*
X217027941Y-81610898D01*
X216965066Y-81555195D01*
X216934000Y-81455500D01*
X216934000Y-81104500D01*
X216954102Y-81022941D01*
X217009805Y-80960066D01*
X217109500Y-80929000D01*
X218910500Y-80929000D01*
X218992059Y-80949102D01*
X218992059Y-80949102D01*
G37*
D17*
X218010000Y-81280000D03*
D13*
G36*
X218992059Y-82219102D02*
G01*
X219054934Y-82274805D01*
X219086000Y-82374500D01*
X219086000Y-82725500D01*
X219065898Y-82807059D01*
X219010195Y-82869934D01*
X218910500Y-82901000D01*
X217109500Y-82901000D01*
X217027941Y-82880898D01*
X216965066Y-82825195D01*
X216934000Y-82725500D01*
X216934000Y-82374500D01*
X216954102Y-82292941D01*
X217009805Y-82230066D01*
X217109500Y-82199000D01*
X218910500Y-82199000D01*
X218992059Y-82219102D01*
X218992059Y-82219102D01*
G37*
D17*
X218010000Y-82550000D03*
D13*
G36*
X218992059Y-83489102D02*
G01*
X219054934Y-83544805D01*
X219086000Y-83644500D01*
X219086000Y-83995500D01*
X219065898Y-84077059D01*
X219010195Y-84139934D01*
X218910500Y-84171000D01*
X217109500Y-84171000D01*
X217027941Y-84150898D01*
X216965066Y-84095195D01*
X216934000Y-83995500D01*
X216934000Y-83644500D01*
X216954102Y-83562941D01*
X217009805Y-83500066D01*
X217109500Y-83469000D01*
X218910500Y-83469000D01*
X218992059Y-83489102D01*
X218992059Y-83489102D01*
G37*
D17*
X218010000Y-83820000D03*
D13*
G36*
X218992059Y-84759102D02*
G01*
X219054934Y-84814805D01*
X219086000Y-84914500D01*
X219086000Y-85265500D01*
X219065898Y-85347059D01*
X219010195Y-85409934D01*
X218910500Y-85441000D01*
X217109500Y-85441000D01*
X217027941Y-85420898D01*
X216965066Y-85365195D01*
X216934000Y-85265500D01*
X216934000Y-84914500D01*
X216954102Y-84832941D01*
X217009805Y-84770066D01*
X217109500Y-84739000D01*
X218910500Y-84739000D01*
X218992059Y-84759102D01*
X218992059Y-84759102D01*
G37*
D17*
X218010000Y-85090000D03*
D13*
G36*
X218992059Y-86029102D02*
G01*
X219054934Y-86084805D01*
X219086000Y-86184500D01*
X219086000Y-86535500D01*
X219065898Y-86617059D01*
X219010195Y-86679934D01*
X218910500Y-86711000D01*
X217109500Y-86711000D01*
X217027941Y-86690898D01*
X216965066Y-86635195D01*
X216934000Y-86535500D01*
X216934000Y-86184500D01*
X216954102Y-86102941D01*
X217009805Y-86040066D01*
X217109500Y-86009000D01*
X218910500Y-86009000D01*
X218992059Y-86029102D01*
X218992059Y-86029102D01*
G37*
D17*
X218010000Y-86360000D03*
D13*
G36*
X218992059Y-87299102D02*
G01*
X219054934Y-87354805D01*
X219086000Y-87454500D01*
X219086000Y-87805500D01*
X219065898Y-87887059D01*
X219010195Y-87949934D01*
X218910500Y-87981000D01*
X217109500Y-87981000D01*
X217027941Y-87960898D01*
X216965066Y-87905195D01*
X216934000Y-87805500D01*
X216934000Y-87454500D01*
X216954102Y-87372941D01*
X217009805Y-87310066D01*
X217109500Y-87279000D01*
X218910500Y-87279000D01*
X218992059Y-87299102D01*
X218992059Y-87299102D01*
G37*
D17*
X218010000Y-87630000D03*
D13*
G36*
X218992059Y-88569102D02*
G01*
X219054934Y-88624805D01*
X219086000Y-88724500D01*
X219086000Y-89075500D01*
X219065898Y-89157059D01*
X219010195Y-89219934D01*
X218910500Y-89251000D01*
X217109500Y-89251000D01*
X217027941Y-89230898D01*
X216965066Y-89175195D01*
X216934000Y-89075500D01*
X216934000Y-88724500D01*
X216954102Y-88642941D01*
X217009805Y-88580066D01*
X217109500Y-88549000D01*
X218910500Y-88549000D01*
X218992059Y-88569102D01*
X218992059Y-88569102D01*
G37*
D17*
X218010000Y-88900000D03*
D13*
G36*
X209692059Y-88569102D02*
G01*
X209754934Y-88624805D01*
X209786000Y-88724500D01*
X209786000Y-89075500D01*
X209765898Y-89157059D01*
X209710195Y-89219934D01*
X209610500Y-89251000D01*
X207809500Y-89251000D01*
X207727941Y-89230898D01*
X207665066Y-89175195D01*
X207634000Y-89075500D01*
X207634000Y-88724500D01*
X207654102Y-88642941D01*
X207709805Y-88580066D01*
X207809500Y-88549000D01*
X209610500Y-88549000D01*
X209692059Y-88569102D01*
X209692059Y-88569102D01*
G37*
D17*
X208710000Y-88900000D03*
D13*
G36*
X209692059Y-87299102D02*
G01*
X209754934Y-87354805D01*
X209786000Y-87454500D01*
X209786000Y-87805500D01*
X209765898Y-87887059D01*
X209710195Y-87949934D01*
X209610500Y-87981000D01*
X207809500Y-87981000D01*
X207727941Y-87960898D01*
X207665066Y-87905195D01*
X207634000Y-87805500D01*
X207634000Y-87454500D01*
X207654102Y-87372941D01*
X207709805Y-87310066D01*
X207809500Y-87279000D01*
X209610500Y-87279000D01*
X209692059Y-87299102D01*
X209692059Y-87299102D01*
G37*
D17*
X208710000Y-87630000D03*
D13*
G36*
X209692059Y-86029102D02*
G01*
X209754934Y-86084805D01*
X209786000Y-86184500D01*
X209786000Y-86535500D01*
X209765898Y-86617059D01*
X209710195Y-86679934D01*
X209610500Y-86711000D01*
X207809500Y-86711000D01*
X207727941Y-86690898D01*
X207665066Y-86635195D01*
X207634000Y-86535500D01*
X207634000Y-86184500D01*
X207654102Y-86102941D01*
X207709805Y-86040066D01*
X207809500Y-86009000D01*
X209610500Y-86009000D01*
X209692059Y-86029102D01*
X209692059Y-86029102D01*
G37*
D17*
X208710000Y-86360000D03*
D13*
G36*
X209692059Y-84759102D02*
G01*
X209754934Y-84814805D01*
X209786000Y-84914500D01*
X209786000Y-85265500D01*
X209765898Y-85347059D01*
X209710195Y-85409934D01*
X209610500Y-85441000D01*
X207809500Y-85441000D01*
X207727941Y-85420898D01*
X207665066Y-85365195D01*
X207634000Y-85265500D01*
X207634000Y-84914500D01*
X207654102Y-84832941D01*
X207709805Y-84770066D01*
X207809500Y-84739000D01*
X209610500Y-84739000D01*
X209692059Y-84759102D01*
X209692059Y-84759102D01*
G37*
D17*
X208710000Y-85090000D03*
D13*
G36*
X209692059Y-83489102D02*
G01*
X209754934Y-83544805D01*
X209786000Y-83644500D01*
X209786000Y-83995500D01*
X209765898Y-84077059D01*
X209710195Y-84139934D01*
X209610500Y-84171000D01*
X207809500Y-84171000D01*
X207727941Y-84150898D01*
X207665066Y-84095195D01*
X207634000Y-83995500D01*
X207634000Y-83644500D01*
X207654102Y-83562941D01*
X207709805Y-83500066D01*
X207809500Y-83469000D01*
X209610500Y-83469000D01*
X209692059Y-83489102D01*
X209692059Y-83489102D01*
G37*
D17*
X208710000Y-83820000D03*
D13*
G36*
X209692059Y-82219102D02*
G01*
X209754934Y-82274805D01*
X209786000Y-82374500D01*
X209786000Y-82725500D01*
X209765898Y-82807059D01*
X209710195Y-82869934D01*
X209610500Y-82901000D01*
X207809500Y-82901000D01*
X207727941Y-82880898D01*
X207665066Y-82825195D01*
X207634000Y-82725500D01*
X207634000Y-82374500D01*
X207654102Y-82292941D01*
X207709805Y-82230066D01*
X207809500Y-82199000D01*
X209610500Y-82199000D01*
X209692059Y-82219102D01*
X209692059Y-82219102D01*
G37*
D17*
X208710000Y-82550000D03*
D13*
G36*
X209692059Y-80949102D02*
G01*
X209754934Y-81004805D01*
X209786000Y-81104500D01*
X209786000Y-81455500D01*
X209765898Y-81537059D01*
X209710195Y-81599934D01*
X209610500Y-81631000D01*
X207809500Y-81631000D01*
X207727941Y-81610898D01*
X207665066Y-81555195D01*
X207634000Y-81455500D01*
X207634000Y-81104500D01*
X207654102Y-81022941D01*
X207709805Y-80960066D01*
X207809500Y-80929000D01*
X209610500Y-80929000D01*
X209692059Y-80949102D01*
X209692059Y-80949102D01*
G37*
D17*
X208710000Y-81280000D03*
D13*
G36*
X209692059Y-79679102D02*
G01*
X209754934Y-79734805D01*
X209786000Y-79834500D01*
X209786000Y-80185500D01*
X209765898Y-80267059D01*
X209710195Y-80329934D01*
X209610500Y-80361000D01*
X207809500Y-80361000D01*
X207727941Y-80340898D01*
X207665066Y-80285195D01*
X207634000Y-80185500D01*
X207634000Y-79834500D01*
X207654102Y-79752941D01*
X207709805Y-79690066D01*
X207809500Y-79659000D01*
X209610500Y-79659000D01*
X209692059Y-79679102D01*
X209692059Y-79679102D01*
G37*
D17*
X208710000Y-80010000D03*
D13*
G36*
X209692059Y-78409102D02*
G01*
X209754934Y-78464805D01*
X209786000Y-78564500D01*
X209786000Y-78915500D01*
X209765898Y-78997059D01*
X209710195Y-79059934D01*
X209610500Y-79091000D01*
X207809500Y-79091000D01*
X207727941Y-79070898D01*
X207665066Y-79015195D01*
X207634000Y-78915500D01*
X207634000Y-78564500D01*
X207654102Y-78482941D01*
X207709805Y-78420066D01*
X207809500Y-78389000D01*
X209610500Y-78389000D01*
X209692059Y-78409102D01*
X209692059Y-78409102D01*
G37*
D17*
X208710000Y-78740000D03*
D13*
G36*
X214842983Y-72294718D02*
G01*
X214931282Y-72353718D01*
X214990282Y-72442017D01*
X215011000Y-72546173D01*
X215011000Y-73503827D01*
X214990282Y-73607983D01*
X214931282Y-73696282D01*
X214842983Y-73755282D01*
X214738827Y-73776000D01*
X214031173Y-73776000D01*
X213927017Y-73755282D01*
X213838718Y-73696282D01*
X213779718Y-73607983D01*
X213759000Y-73503827D01*
X213759000Y-72546173D01*
X213779718Y-72442017D01*
X213838718Y-72353718D01*
X213927017Y-72294718D01*
X214031173Y-72274000D01*
X214738827Y-72274000D01*
X214842983Y-72294718D01*
X214842983Y-72294718D01*
G37*
D18*
X214385000Y-73025000D03*
D13*
G36*
X212792983Y-72294718D02*
G01*
X212881282Y-72353718D01*
X212940282Y-72442017D01*
X212961000Y-72546173D01*
X212961000Y-73503827D01*
X212940282Y-73607983D01*
X212881282Y-73696282D01*
X212792983Y-73755282D01*
X212688827Y-73776000D01*
X211981173Y-73776000D01*
X211877017Y-73755282D01*
X211788718Y-73696282D01*
X211729718Y-73607983D01*
X211709000Y-73503827D01*
X211709000Y-72546173D01*
X211729718Y-72442017D01*
X211788718Y-72353718D01*
X211877017Y-72294718D01*
X211981173Y-72274000D01*
X212688827Y-72274000D01*
X212792983Y-72294718D01*
X212792983Y-72294718D01*
G37*
D18*
X212335000Y-73025000D03*
D13*
G36*
X214842983Y-69754718D02*
G01*
X214931282Y-69813718D01*
X214990282Y-69902017D01*
X215011000Y-70006173D01*
X215011000Y-70963827D01*
X214990282Y-71067983D01*
X214931282Y-71156282D01*
X214842983Y-71215282D01*
X214738827Y-71236000D01*
X214031173Y-71236000D01*
X213927017Y-71215282D01*
X213838718Y-71156282D01*
X213779718Y-71067983D01*
X213759000Y-70963827D01*
X213759000Y-70006173D01*
X213779718Y-69902017D01*
X213838718Y-69813718D01*
X213927017Y-69754718D01*
X214031173Y-69734000D01*
X214738827Y-69734000D01*
X214842983Y-69754718D01*
X214842983Y-69754718D01*
G37*
D18*
X214385000Y-70485000D03*
D13*
G36*
X212792983Y-69754718D02*
G01*
X212881282Y-69813718D01*
X212940282Y-69902017D01*
X212961000Y-70006173D01*
X212961000Y-70963827D01*
X212940282Y-71067983D01*
X212881282Y-71156282D01*
X212792983Y-71215282D01*
X212688827Y-71236000D01*
X211981173Y-71236000D01*
X211877017Y-71215282D01*
X211788718Y-71156282D01*
X211729718Y-71067983D01*
X211709000Y-70963827D01*
X211709000Y-70006173D01*
X211729718Y-69902017D01*
X211788718Y-69813718D01*
X211877017Y-69754718D01*
X211981173Y-69734000D01*
X212688827Y-69734000D01*
X212792983Y-69754718D01*
X212792983Y-69754718D01*
G37*
D18*
X212335000Y-70485000D03*
D13*
G36*
X214842983Y-42449718D02*
G01*
X214931282Y-42508718D01*
X214990282Y-42597017D01*
X215011000Y-42701173D01*
X215011000Y-43658827D01*
X214990282Y-43762983D01*
X214931282Y-43851282D01*
X214842983Y-43910282D01*
X214738827Y-43931000D01*
X214031173Y-43931000D01*
X213927017Y-43910282D01*
X213838718Y-43851282D01*
X213779718Y-43762983D01*
X213759000Y-43658827D01*
X213759000Y-42701173D01*
X213779718Y-42597017D01*
X213838718Y-42508718D01*
X213927017Y-42449718D01*
X214031173Y-42429000D01*
X214738827Y-42429000D01*
X214842983Y-42449718D01*
X214842983Y-42449718D01*
G37*
D18*
X214385000Y-43180000D03*
D13*
G36*
X212792983Y-42449718D02*
G01*
X212881282Y-42508718D01*
X212940282Y-42597017D01*
X212961000Y-42701173D01*
X212961000Y-43658827D01*
X212940282Y-43762983D01*
X212881282Y-43851282D01*
X212792983Y-43910282D01*
X212688827Y-43931000D01*
X211981173Y-43931000D01*
X211877017Y-43910282D01*
X211788718Y-43851282D01*
X211729718Y-43762983D01*
X211709000Y-43658827D01*
X211709000Y-42701173D01*
X211729718Y-42597017D01*
X211788718Y-42508718D01*
X211877017Y-42449718D01*
X211981173Y-42429000D01*
X212688827Y-42429000D01*
X212792983Y-42449718D01*
X212792983Y-42449718D01*
G37*
D18*
X212335000Y-43180000D03*
D13*
G36*
X205052983Y-48534718D02*
G01*
X205141282Y-48593718D01*
X205200282Y-48682017D01*
X205221000Y-48786173D01*
X205221000Y-49493827D01*
X205200282Y-49597983D01*
X205141282Y-49686282D01*
X205052983Y-49745282D01*
X204948827Y-49766000D01*
X203991173Y-49766000D01*
X203887017Y-49745282D01*
X203798718Y-49686282D01*
X203739718Y-49597983D01*
X203719000Y-49493827D01*
X203719000Y-48786173D01*
X203739718Y-48682017D01*
X203798718Y-48593718D01*
X203887017Y-48534718D01*
X203991173Y-48514000D01*
X204948827Y-48514000D01*
X205052983Y-48534718D01*
X205052983Y-48534718D01*
G37*
D18*
X204470000Y-49140000D03*
D13*
G36*
X205052983Y-50584718D02*
G01*
X205141282Y-50643718D01*
X205200282Y-50732017D01*
X205221000Y-50836173D01*
X205221000Y-51543827D01*
X205200282Y-51647983D01*
X205141282Y-51736282D01*
X205052983Y-51795282D01*
X204948827Y-51816000D01*
X203991173Y-51816000D01*
X203887017Y-51795282D01*
X203798718Y-51736282D01*
X203739718Y-51647983D01*
X203719000Y-51543827D01*
X203719000Y-50836173D01*
X203739718Y-50732017D01*
X203798718Y-50643718D01*
X203887017Y-50584718D01*
X203991173Y-50564000D01*
X204948827Y-50564000D01*
X205052983Y-50584718D01*
X205052983Y-50584718D01*
G37*
D18*
X204470000Y-51190000D03*
D13*
G36*
X202512983Y-48534718D02*
G01*
X202601282Y-48593718D01*
X202660282Y-48682017D01*
X202681000Y-48786173D01*
X202681000Y-49493827D01*
X202660282Y-49597983D01*
X202601282Y-49686282D01*
X202512983Y-49745282D01*
X202408827Y-49766000D01*
X201451173Y-49766000D01*
X201347017Y-49745282D01*
X201258718Y-49686282D01*
X201199718Y-49597983D01*
X201179000Y-49493827D01*
X201179000Y-48786173D01*
X201199718Y-48682017D01*
X201258718Y-48593718D01*
X201347017Y-48534718D01*
X201451173Y-48514000D01*
X202408827Y-48514000D01*
X202512983Y-48534718D01*
X202512983Y-48534718D01*
G37*
D18*
X201930000Y-49140000D03*
D13*
G36*
X202512983Y-50584718D02*
G01*
X202601282Y-50643718D01*
X202660282Y-50732017D01*
X202681000Y-50836173D01*
X202681000Y-51543827D01*
X202660282Y-51647983D01*
X202601282Y-51736282D01*
X202512983Y-51795282D01*
X202408827Y-51816000D01*
X201451173Y-51816000D01*
X201347017Y-51795282D01*
X201258718Y-51736282D01*
X201199718Y-51647983D01*
X201179000Y-51543827D01*
X201179000Y-50836173D01*
X201199718Y-50732017D01*
X201258718Y-50643718D01*
X201347017Y-50584718D01*
X201451173Y-50564000D01*
X202408827Y-50564000D01*
X202512983Y-50584718D01*
X202512983Y-50584718D01*
G37*
D18*
X201930000Y-51190000D03*
D13*
G36*
X214842983Y-64674718D02*
G01*
X214931282Y-64733718D01*
X214990282Y-64822017D01*
X215011000Y-64926173D01*
X215011000Y-65883827D01*
X214990282Y-65987983D01*
X214931282Y-66076282D01*
X214842983Y-66135282D01*
X214738827Y-66156000D01*
X214031173Y-66156000D01*
X213927017Y-66135282D01*
X213838718Y-66076282D01*
X213779718Y-65987983D01*
X213759000Y-65883827D01*
X213759000Y-64926173D01*
X213779718Y-64822017D01*
X213838718Y-64733718D01*
X213927017Y-64674718D01*
X214031173Y-64654000D01*
X214738827Y-64654000D01*
X214842983Y-64674718D01*
X214842983Y-64674718D01*
G37*
D18*
X214385000Y-65405000D03*
D13*
G36*
X212792983Y-64674718D02*
G01*
X212881282Y-64733718D01*
X212940282Y-64822017D01*
X212961000Y-64926173D01*
X212961000Y-65883827D01*
X212940282Y-65987983D01*
X212881282Y-66076282D01*
X212792983Y-66135282D01*
X212688827Y-66156000D01*
X211981173Y-66156000D01*
X211877017Y-66135282D01*
X211788718Y-66076282D01*
X211729718Y-65987983D01*
X211709000Y-65883827D01*
X211709000Y-64926173D01*
X211729718Y-64822017D01*
X211788718Y-64733718D01*
X211877017Y-64674718D01*
X211981173Y-64654000D01*
X212688827Y-64654000D01*
X212792983Y-64674718D01*
X212792983Y-64674718D01*
G37*
D18*
X212335000Y-65405000D03*
D13*
G36*
X214842983Y-62134718D02*
G01*
X214931282Y-62193718D01*
X214990282Y-62282017D01*
X215011000Y-62386173D01*
X215011000Y-63343827D01*
X214990282Y-63447983D01*
X214931282Y-63536282D01*
X214842983Y-63595282D01*
X214738827Y-63616000D01*
X214031173Y-63616000D01*
X213927017Y-63595282D01*
X213838718Y-63536282D01*
X213779718Y-63447983D01*
X213759000Y-63343827D01*
X213759000Y-62386173D01*
X213779718Y-62282017D01*
X213838718Y-62193718D01*
X213927017Y-62134718D01*
X214031173Y-62114000D01*
X214738827Y-62114000D01*
X214842983Y-62134718D01*
X214842983Y-62134718D01*
G37*
D18*
X214385000Y-62865000D03*
D13*
G36*
X212792983Y-62134718D02*
G01*
X212881282Y-62193718D01*
X212940282Y-62282017D01*
X212961000Y-62386173D01*
X212961000Y-63343827D01*
X212940282Y-63447983D01*
X212881282Y-63536282D01*
X212792983Y-63595282D01*
X212688827Y-63616000D01*
X211981173Y-63616000D01*
X211877017Y-63595282D01*
X211788718Y-63536282D01*
X211729718Y-63447983D01*
X211709000Y-63343827D01*
X211709000Y-62386173D01*
X211729718Y-62282017D01*
X211788718Y-62193718D01*
X211877017Y-62134718D01*
X211981173Y-62114000D01*
X212688827Y-62114000D01*
X212792983Y-62134718D01*
X212792983Y-62134718D01*
G37*
D18*
X212335000Y-62865000D03*
D13*
G36*
X214842983Y-57054718D02*
G01*
X214931282Y-57113718D01*
X214990282Y-57202017D01*
X215011000Y-57306173D01*
X215011000Y-58263827D01*
X214990282Y-58367983D01*
X214931282Y-58456282D01*
X214842983Y-58515282D01*
X214738827Y-58536000D01*
X214031173Y-58536000D01*
X213927017Y-58515282D01*
X213838718Y-58456282D01*
X213779718Y-58367983D01*
X213759000Y-58263827D01*
X213759000Y-57306173D01*
X213779718Y-57202017D01*
X213838718Y-57113718D01*
X213927017Y-57054718D01*
X214031173Y-57034000D01*
X214738827Y-57034000D01*
X214842983Y-57054718D01*
X214842983Y-57054718D01*
G37*
D18*
X214385000Y-57785000D03*
D13*
G36*
X212792983Y-57054718D02*
G01*
X212881282Y-57113718D01*
X212940282Y-57202017D01*
X212961000Y-57306173D01*
X212961000Y-58263827D01*
X212940282Y-58367983D01*
X212881282Y-58456282D01*
X212792983Y-58515282D01*
X212688827Y-58536000D01*
X211981173Y-58536000D01*
X211877017Y-58515282D01*
X211788718Y-58456282D01*
X211729718Y-58367983D01*
X211709000Y-58263827D01*
X211709000Y-57306173D01*
X211729718Y-57202017D01*
X211788718Y-57113718D01*
X211877017Y-57054718D01*
X211981173Y-57034000D01*
X212688827Y-57034000D01*
X212792983Y-57054718D01*
X212792983Y-57054718D01*
G37*
D18*
X212335000Y-57785000D03*
D13*
G36*
X214842983Y-49434718D02*
G01*
X214931282Y-49493718D01*
X214990282Y-49582017D01*
X215011000Y-49686173D01*
X215011000Y-50643827D01*
X214990282Y-50747983D01*
X214931282Y-50836282D01*
X214842983Y-50895282D01*
X214738827Y-50916000D01*
X214031173Y-50916000D01*
X213927017Y-50895282D01*
X213838718Y-50836282D01*
X213779718Y-50747983D01*
X213759000Y-50643827D01*
X213759000Y-49686173D01*
X213779718Y-49582017D01*
X213838718Y-49493718D01*
X213927017Y-49434718D01*
X214031173Y-49414000D01*
X214738827Y-49414000D01*
X214842983Y-49434718D01*
X214842983Y-49434718D01*
G37*
D18*
X214385000Y-50165000D03*
D13*
G36*
X212792983Y-49434718D02*
G01*
X212881282Y-49493718D01*
X212940282Y-49582017D01*
X212961000Y-49686173D01*
X212961000Y-50643827D01*
X212940282Y-50747983D01*
X212881282Y-50836282D01*
X212792983Y-50895282D01*
X212688827Y-50916000D01*
X211981173Y-50916000D01*
X211877017Y-50895282D01*
X211788718Y-50836282D01*
X211729718Y-50747983D01*
X211709000Y-50643827D01*
X211709000Y-49686173D01*
X211729718Y-49582017D01*
X211788718Y-49493718D01*
X211877017Y-49434718D01*
X211981173Y-49414000D01*
X212688827Y-49414000D01*
X212792983Y-49434718D01*
X212792983Y-49434718D01*
G37*
D18*
X212335000Y-50165000D03*
D13*
G36*
X214842983Y-54514718D02*
G01*
X214931282Y-54573718D01*
X214990282Y-54662017D01*
X215011000Y-54766173D01*
X215011000Y-55723827D01*
X214990282Y-55827983D01*
X214931282Y-55916282D01*
X214842983Y-55975282D01*
X214738827Y-55996000D01*
X214031173Y-55996000D01*
X213927017Y-55975282D01*
X213838718Y-55916282D01*
X213779718Y-55827983D01*
X213759000Y-55723827D01*
X213759000Y-54766173D01*
X213779718Y-54662017D01*
X213838718Y-54573718D01*
X213927017Y-54514718D01*
X214031173Y-54494000D01*
X214738827Y-54494000D01*
X214842983Y-54514718D01*
X214842983Y-54514718D01*
G37*
D18*
X214385000Y-55245000D03*
D13*
G36*
X212792983Y-54514718D02*
G01*
X212881282Y-54573718D01*
X212940282Y-54662017D01*
X212961000Y-54766173D01*
X212961000Y-55723827D01*
X212940282Y-55827983D01*
X212881282Y-55916282D01*
X212792983Y-55975282D01*
X212688827Y-55996000D01*
X211981173Y-55996000D01*
X211877017Y-55975282D01*
X211788718Y-55916282D01*
X211729718Y-55827983D01*
X211709000Y-55723827D01*
X211709000Y-54766173D01*
X211729718Y-54662017D01*
X211788718Y-54573718D01*
X211877017Y-54514718D01*
X211981173Y-54494000D01*
X212688827Y-54494000D01*
X212792983Y-54514718D01*
X212792983Y-54514718D01*
G37*
D18*
X212335000Y-55245000D03*
D13*
G36*
X214842983Y-46894718D02*
G01*
X214931282Y-46953718D01*
X214990282Y-47042017D01*
X215011000Y-47146173D01*
X215011000Y-48103827D01*
X214990282Y-48207983D01*
X214931282Y-48296282D01*
X214842983Y-48355282D01*
X214738827Y-48376000D01*
X214031173Y-48376000D01*
X213927017Y-48355282D01*
X213838718Y-48296282D01*
X213779718Y-48207983D01*
X213759000Y-48103827D01*
X213759000Y-47146173D01*
X213779718Y-47042017D01*
X213838718Y-46953718D01*
X213927017Y-46894718D01*
X214031173Y-46874000D01*
X214738827Y-46874000D01*
X214842983Y-46894718D01*
X214842983Y-46894718D01*
G37*
D18*
X214385000Y-47625000D03*
D13*
G36*
X212792983Y-46894718D02*
G01*
X212881282Y-46953718D01*
X212940282Y-47042017D01*
X212961000Y-47146173D01*
X212961000Y-48103827D01*
X212940282Y-48207983D01*
X212881282Y-48296282D01*
X212792983Y-48355282D01*
X212688827Y-48376000D01*
X211981173Y-48376000D01*
X211877017Y-48355282D01*
X211788718Y-48296282D01*
X211729718Y-48207983D01*
X211709000Y-48103827D01*
X211709000Y-47146173D01*
X211729718Y-47042017D01*
X211788718Y-46953718D01*
X211877017Y-46894718D01*
X211981173Y-46874000D01*
X212688827Y-46874000D01*
X212792983Y-46894718D01*
X212792983Y-46894718D01*
G37*
D18*
X212335000Y-47625000D03*
D19*
X207645000Y-103505000D03*
X210185000Y-103505000D03*
X212725000Y-103505000D03*
D20*
X215265000Y-103505000D03*
D19*
X214630000Y-39370000D03*
X212090000Y-39370000D03*
X209550000Y-39370000D03*
X207010000Y-39370000D03*
D20*
X204470000Y-39370000D03*
D19*
X220980000Y-73025000D03*
D20*
X220980000Y-70485000D03*
D19*
X217170000Y-73025000D03*
D20*
X217170000Y-70485000D03*
D19*
X220980000Y-65405000D03*
D20*
X220980000Y-62865000D03*
D19*
X217170000Y-65405000D03*
D20*
X217170000Y-62865000D03*
D19*
X220980000Y-57785000D03*
D20*
X220980000Y-55245000D03*
D19*
X217170000Y-57785000D03*
D20*
X217170000Y-55245000D03*
D19*
X220980000Y-50165000D03*
D20*
X220980000Y-47625000D03*
D19*
X217170000Y-50165000D03*
D20*
X217170000Y-47625000D03*
D19*
X204470000Y-88900000D03*
X204470000Y-86360000D03*
X204470000Y-83820000D03*
X204470000Y-81280000D03*
D20*
X204470000Y-78740000D03*
D19*
X207645000Y-107315000D03*
X210185000Y-107315000D03*
X212725000Y-107315000D03*
D20*
X215265000Y-107315000D03*
D21*
X219075000Y-103465000D03*
X219075000Y-98465000D03*
D13*
G36*
X211000624Y-64499392D02*
G01*
X211087535Y-64557465D01*
X211145608Y-64644376D01*
X211166000Y-64746895D01*
X211166000Y-66063105D01*
X211145608Y-66165624D01*
X211087535Y-66252535D01*
X211000624Y-66310608D01*
X210898105Y-66331000D01*
X209906895Y-66331000D01*
X209804376Y-66310608D01*
X209717465Y-66252535D01*
X209659392Y-66165624D01*
X209639000Y-66063105D01*
X209639000Y-64746895D01*
X209659392Y-64644376D01*
X209717465Y-64557465D01*
X209804376Y-64499392D01*
X209906895Y-64479000D01*
X210898105Y-64479000D01*
X211000624Y-64499392D01*
X211000624Y-64499392D01*
G37*
D14*
X210402500Y-65405000D03*
D13*
G36*
X208025624Y-64499392D02*
G01*
X208112535Y-64557465D01*
X208170608Y-64644376D01*
X208191000Y-64746895D01*
X208191000Y-66063105D01*
X208170608Y-66165624D01*
X208112535Y-66252535D01*
X208025624Y-66310608D01*
X207923105Y-66331000D01*
X206931895Y-66331000D01*
X206829376Y-66310608D01*
X206742465Y-66252535D01*
X206684392Y-66165624D01*
X206664000Y-66063105D01*
X206664000Y-64746895D01*
X206684392Y-64644376D01*
X206742465Y-64557465D01*
X206829376Y-64499392D01*
X206931895Y-64479000D01*
X207923105Y-64479000D01*
X208025624Y-64499392D01*
X208025624Y-64499392D01*
G37*
D14*
X207427500Y-65405000D03*
D13*
G36*
X211000624Y-56879392D02*
G01*
X211087535Y-56937465D01*
X211145608Y-57024376D01*
X211166000Y-57126895D01*
X211166000Y-58443105D01*
X211145608Y-58545624D01*
X211087535Y-58632535D01*
X211000624Y-58690608D01*
X210898105Y-58711000D01*
X209906895Y-58711000D01*
X209804376Y-58690608D01*
X209717465Y-58632535D01*
X209659392Y-58545624D01*
X209639000Y-58443105D01*
X209639000Y-57126895D01*
X209659392Y-57024376D01*
X209717465Y-56937465D01*
X209804376Y-56879392D01*
X209906895Y-56859000D01*
X210898105Y-56859000D01*
X211000624Y-56879392D01*
X211000624Y-56879392D01*
G37*
D14*
X210402500Y-57785000D03*
D13*
G36*
X208025624Y-56879392D02*
G01*
X208112535Y-56937465D01*
X208170608Y-57024376D01*
X208191000Y-57126895D01*
X208191000Y-58443105D01*
X208170608Y-58545624D01*
X208112535Y-58632535D01*
X208025624Y-58690608D01*
X207923105Y-58711000D01*
X206931895Y-58711000D01*
X206829376Y-58690608D01*
X206742465Y-58632535D01*
X206684392Y-58545624D01*
X206664000Y-58443105D01*
X206664000Y-57126895D01*
X206684392Y-57024376D01*
X206742465Y-56937465D01*
X206829376Y-56879392D01*
X206931895Y-56859000D01*
X207923105Y-56859000D01*
X208025624Y-56879392D01*
X208025624Y-56879392D01*
G37*
D14*
X207427500Y-57785000D03*
D13*
G36*
X211000624Y-49259392D02*
G01*
X211087535Y-49317465D01*
X211145608Y-49404376D01*
X211166000Y-49506895D01*
X211166000Y-50823105D01*
X211145608Y-50925624D01*
X211087535Y-51012535D01*
X211000624Y-51070608D01*
X210898105Y-51091000D01*
X209906895Y-51091000D01*
X209804376Y-51070608D01*
X209717465Y-51012535D01*
X209659392Y-50925624D01*
X209639000Y-50823105D01*
X209639000Y-49506895D01*
X209659392Y-49404376D01*
X209717465Y-49317465D01*
X209804376Y-49259392D01*
X209906895Y-49239000D01*
X210898105Y-49239000D01*
X211000624Y-49259392D01*
X211000624Y-49259392D01*
G37*
D14*
X210402500Y-50165000D03*
D13*
G36*
X208025624Y-49259392D02*
G01*
X208112535Y-49317465D01*
X208170608Y-49404376D01*
X208191000Y-49506895D01*
X208191000Y-50823105D01*
X208170608Y-50925624D01*
X208112535Y-51012535D01*
X208025624Y-51070608D01*
X207923105Y-51091000D01*
X206931895Y-51091000D01*
X206829376Y-51070608D01*
X206742465Y-51012535D01*
X206684392Y-50925624D01*
X206664000Y-50823105D01*
X206664000Y-49506895D01*
X206684392Y-49404376D01*
X206742465Y-49317465D01*
X206829376Y-49259392D01*
X206931895Y-49239000D01*
X207923105Y-49239000D01*
X208025624Y-49259392D01*
X208025624Y-49259392D01*
G37*
D14*
X207427500Y-50165000D03*
D13*
G36*
X212157983Y-93884718D02*
G01*
X212246282Y-93943718D01*
X212305282Y-94032017D01*
X212326000Y-94136173D01*
X212326000Y-95093827D01*
X212305282Y-95197983D01*
X212246282Y-95286282D01*
X212157983Y-95345282D01*
X212053827Y-95366000D01*
X211346173Y-95366000D01*
X211242017Y-95345282D01*
X211153718Y-95286282D01*
X211094718Y-95197983D01*
X211074000Y-95093827D01*
X211074000Y-94136173D01*
X211094718Y-94032017D01*
X211153718Y-93943718D01*
X211242017Y-93884718D01*
X211346173Y-93864000D01*
X212053827Y-93864000D01*
X212157983Y-93884718D01*
X212157983Y-93884718D01*
G37*
D18*
X211700000Y-94615000D03*
D13*
G36*
X214207983Y-93884718D02*
G01*
X214296282Y-93943718D01*
X214355282Y-94032017D01*
X214376000Y-94136173D01*
X214376000Y-95093827D01*
X214355282Y-95197983D01*
X214296282Y-95286282D01*
X214207983Y-95345282D01*
X214103827Y-95366000D01*
X213396173Y-95366000D01*
X213292017Y-95345282D01*
X213203718Y-95286282D01*
X213144718Y-95197983D01*
X213124000Y-95093827D01*
X213124000Y-94136173D01*
X213144718Y-94032017D01*
X213203718Y-93943718D01*
X213292017Y-93884718D01*
X213396173Y-93864000D01*
X214103827Y-93864000D01*
X214207983Y-93884718D01*
X214207983Y-93884718D01*
G37*
D18*
X213750000Y-94615000D03*
D22*
X213265000Y-98425000D03*
D23*
X215265000Y-98425000D03*
D13*
G36*
X221562983Y-80919718D02*
G01*
X221651282Y-80978718D01*
X221710282Y-81067017D01*
X221731000Y-81171173D01*
X221731000Y-81878827D01*
X221710282Y-81982983D01*
X221651282Y-82071282D01*
X221562983Y-82130282D01*
X221458827Y-82151000D01*
X220501173Y-82151000D01*
X220397017Y-82130282D01*
X220308718Y-82071282D01*
X220249718Y-81982983D01*
X220229000Y-81878827D01*
X220229000Y-81171173D01*
X220249718Y-81067017D01*
X220308718Y-80978718D01*
X220397017Y-80919718D01*
X220501173Y-80899000D01*
X221458827Y-80899000D01*
X221562983Y-80919718D01*
X221562983Y-80919718D01*
G37*
D18*
X220980000Y-81525000D03*
D13*
G36*
X221562983Y-82969718D02*
G01*
X221651282Y-83028718D01*
X221710282Y-83117017D01*
X221731000Y-83221173D01*
X221731000Y-83928827D01*
X221710282Y-84032983D01*
X221651282Y-84121282D01*
X221562983Y-84180282D01*
X221458827Y-84201000D01*
X220501173Y-84201000D01*
X220397017Y-84180282D01*
X220308718Y-84121282D01*
X220249718Y-84032983D01*
X220229000Y-83928827D01*
X220229000Y-83221173D01*
X220249718Y-83117017D01*
X220308718Y-83028718D01*
X220397017Y-82969718D01*
X220501173Y-82949000D01*
X221458827Y-82949000D01*
X221562983Y-82969718D01*
X221562983Y-82969718D01*
G37*
D18*
X220980000Y-83575000D03*
D13*
G36*
X201242983Y-82969718D02*
G01*
X201331282Y-83028718D01*
X201390282Y-83117017D01*
X201411000Y-83221173D01*
X201411000Y-83928827D01*
X201390282Y-84032983D01*
X201331282Y-84121282D01*
X201242983Y-84180282D01*
X201138827Y-84201000D01*
X200181173Y-84201000D01*
X200077017Y-84180282D01*
X199988718Y-84121282D01*
X199929718Y-84032983D01*
X199909000Y-83928827D01*
X199909000Y-83221173D01*
X199929718Y-83117017D01*
X199988718Y-83028718D01*
X200077017Y-82969718D01*
X200181173Y-82949000D01*
X201138827Y-82949000D01*
X201242983Y-82969718D01*
X201242983Y-82969718D01*
G37*
D18*
X200660000Y-83575000D03*
D13*
G36*
X201242983Y-80919718D02*
G01*
X201331282Y-80978718D01*
X201390282Y-81067017D01*
X201411000Y-81171173D01*
X201411000Y-81878827D01*
X201390282Y-81982983D01*
X201331282Y-82071282D01*
X201242983Y-82130282D01*
X201138827Y-82151000D01*
X200181173Y-82151000D01*
X200077017Y-82130282D01*
X199988718Y-82071282D01*
X199929718Y-81982983D01*
X199909000Y-81878827D01*
X199909000Y-81171173D01*
X199929718Y-81067017D01*
X199988718Y-80978718D01*
X200077017Y-80919718D01*
X200181173Y-80899000D01*
X201138827Y-80899000D01*
X201242983Y-80919718D01*
X201242983Y-80919718D01*
G37*
D18*
X200660000Y-81525000D03*
M02*
