G04 #@! TF.GenerationSoftware,KiCad,Pcbnew,(5.1.0-894-gde406e36d)*
G04 #@! TF.CreationDate,2019-06-07T17:38:46-07:00*
G04 #@! TF.ProjectId,TetheredJoy,54657468-6572-4656-944a-6f792e6b6963,n/c*
G04 #@! TF.SameCoordinates,Original*
G04 #@! TF.FileFunction,Copper,L1,Top*
G04 #@! TF.FilePolarity,Positive*
%FSLAX46Y46*%
G04 Gerber Fmt 4.6, Leading zero omitted, Abs format (unit mm)*
G04 Created by KiCad (PCBNEW (5.1.0-894-gde406e36d)) date 2019-06-07 17:38:46*
%MOMM*%
%LPD*%
G04 APERTURE LIST*
%ADD10C,0.100000*%
%ADD11C,1.425000*%
%ADD12R,1.050000X1.500000*%
%ADD13O,1.050000X1.500000*%
%ADD14C,0.600000*%
%ADD15C,1.150000*%
%ADD16O,1.700000X1.700000*%
%ADD17R,1.700000X1.700000*%
%ADD18R,1.800000X3.500000*%
%ADD19C,1.200000*%
%ADD20R,1.200000X1.200000*%
%ADD21C,0.800000*%
%ADD22C,0.304800*%
%ADD23C,0.508000*%
%ADD24C,1.016000*%
G04 APERTURE END LIST*
D10*
G36*
X210960671Y-72169030D02*
G01*
X211041777Y-72223223D01*
X211095970Y-72304329D01*
X211115000Y-72400000D01*
X211115000Y-73650000D01*
X211095970Y-73745671D01*
X211041777Y-73826777D01*
X210960671Y-73880970D01*
X210865000Y-73900000D01*
X209940000Y-73900000D01*
X209844329Y-73880970D01*
X209763223Y-73826777D01*
X209709030Y-73745671D01*
X209690000Y-73650000D01*
X209690000Y-72400000D01*
X209709030Y-72304329D01*
X209763223Y-72223223D01*
X209844329Y-72169030D01*
X209940000Y-72150000D01*
X210865000Y-72150000D01*
X210960671Y-72169030D01*
X210960671Y-72169030D01*
G37*
D11*
X210402500Y-73025000D03*
D10*
G36*
X207985671Y-72169030D02*
G01*
X208066777Y-72223223D01*
X208120970Y-72304329D01*
X208140000Y-72400000D01*
X208140000Y-73650000D01*
X208120970Y-73745671D01*
X208066777Y-73826777D01*
X207985671Y-73880970D01*
X207890000Y-73900000D01*
X206965000Y-73900000D01*
X206869329Y-73880970D01*
X206788223Y-73826777D01*
X206734030Y-73745671D01*
X206715000Y-73650000D01*
X206715000Y-72400000D01*
X206734030Y-72304329D01*
X206788223Y-72223223D01*
X206869329Y-72169030D01*
X206965000Y-72150000D01*
X207890000Y-72150000D01*
X207985671Y-72169030D01*
X207985671Y-72169030D01*
G37*
D11*
X207427500Y-73025000D03*
D10*
G36*
X205190671Y-43539030D02*
G01*
X205271777Y-43593223D01*
X205325970Y-43674329D01*
X205345000Y-43770000D01*
X205345000Y-44695000D01*
X205325970Y-44790671D01*
X205271777Y-44871777D01*
X205190671Y-44925970D01*
X205095000Y-44945000D01*
X203845000Y-44945000D01*
X203749329Y-44925970D01*
X203668223Y-44871777D01*
X203614030Y-44790671D01*
X203595000Y-44695000D01*
X203595000Y-43770000D01*
X203614030Y-43674329D01*
X203668223Y-43593223D01*
X203749329Y-43539030D01*
X203845000Y-43520000D01*
X205095000Y-43520000D01*
X205190671Y-43539030D01*
X205190671Y-43539030D01*
G37*
D11*
X204470000Y-44232500D03*
D10*
G36*
X205190671Y-46514030D02*
G01*
X205271777Y-46568223D01*
X205325970Y-46649329D01*
X205345000Y-46745000D01*
X205345000Y-47670000D01*
X205325970Y-47765671D01*
X205271777Y-47846777D01*
X205190671Y-47900970D01*
X205095000Y-47920000D01*
X203845000Y-47920000D01*
X203749329Y-47900970D01*
X203668223Y-47846777D01*
X203614030Y-47765671D01*
X203595000Y-47670000D01*
X203595000Y-46745000D01*
X203614030Y-46649329D01*
X203668223Y-46568223D01*
X203749329Y-46514030D01*
X203845000Y-46495000D01*
X205095000Y-46495000D01*
X205190671Y-46514030D01*
X205190671Y-46514030D01*
G37*
D11*
X204470000Y-47207500D03*
D10*
G36*
X202650671Y-43539030D02*
G01*
X202731777Y-43593223D01*
X202785970Y-43674329D01*
X202805000Y-43770000D01*
X202805000Y-44695000D01*
X202785970Y-44790671D01*
X202731777Y-44871777D01*
X202650671Y-44925970D01*
X202555000Y-44945000D01*
X201305000Y-44945000D01*
X201209329Y-44925970D01*
X201128223Y-44871777D01*
X201074030Y-44790671D01*
X201055000Y-44695000D01*
X201055000Y-43770000D01*
X201074030Y-43674329D01*
X201128223Y-43593223D01*
X201209329Y-43539030D01*
X201305000Y-43520000D01*
X202555000Y-43520000D01*
X202650671Y-43539030D01*
X202650671Y-43539030D01*
G37*
D11*
X201930000Y-44232500D03*
D10*
G36*
X202650671Y-46514030D02*
G01*
X202731777Y-46568223D01*
X202785970Y-46649329D01*
X202805000Y-46745000D01*
X202805000Y-47670000D01*
X202785970Y-47765671D01*
X202731777Y-47846777D01*
X202650671Y-47900970D01*
X202555000Y-47920000D01*
X201305000Y-47920000D01*
X201209329Y-47900970D01*
X201128223Y-47846777D01*
X201074030Y-47765671D01*
X201055000Y-47670000D01*
X201055000Y-46745000D01*
X201074030Y-46649329D01*
X201128223Y-46568223D01*
X201209329Y-46514030D01*
X201305000Y-46495000D01*
X202555000Y-46495000D01*
X202650671Y-46514030D01*
X202650671Y-46514030D01*
G37*
D11*
X201930000Y-47207500D03*
D12*
X216535000Y-94615000D03*
D13*
X219075000Y-94615000D03*
X217805000Y-94615000D03*
D10*
G36*
X218960000Y-78460096D02*
G01*
X219014904Y-78515000D01*
X219035000Y-78590000D01*
X219035000Y-78890000D01*
X219014904Y-78965000D01*
X218960000Y-79019904D01*
X218885000Y-79040000D01*
X217135000Y-79040000D01*
X217060000Y-79019904D01*
X217005096Y-78965000D01*
X216985000Y-78890000D01*
X216985000Y-78590000D01*
X217005096Y-78515000D01*
X217060000Y-78460096D01*
X217135000Y-78440000D01*
X218885000Y-78440000D01*
X218960000Y-78460096D01*
X218960000Y-78460096D01*
G37*
D14*
X218010000Y-78740000D03*
D10*
G36*
X218960000Y-79730096D02*
G01*
X219014904Y-79785000D01*
X219035000Y-79860000D01*
X219035000Y-80160000D01*
X219014904Y-80235000D01*
X218960000Y-80289904D01*
X218885000Y-80310000D01*
X217135000Y-80310000D01*
X217060000Y-80289904D01*
X217005096Y-80235000D01*
X216985000Y-80160000D01*
X216985000Y-79860000D01*
X217005096Y-79785000D01*
X217060000Y-79730096D01*
X217135000Y-79710000D01*
X218885000Y-79710000D01*
X218960000Y-79730096D01*
X218960000Y-79730096D01*
G37*
D14*
X218010000Y-80010000D03*
D10*
G36*
X218960000Y-81000096D02*
G01*
X219014904Y-81055000D01*
X219035000Y-81130000D01*
X219035000Y-81430000D01*
X219014904Y-81505000D01*
X218960000Y-81559904D01*
X218885000Y-81580000D01*
X217135000Y-81580000D01*
X217060000Y-81559904D01*
X217005096Y-81505000D01*
X216985000Y-81430000D01*
X216985000Y-81130000D01*
X217005096Y-81055000D01*
X217060000Y-81000096D01*
X217135000Y-80980000D01*
X218885000Y-80980000D01*
X218960000Y-81000096D01*
X218960000Y-81000096D01*
G37*
D14*
X218010000Y-81280000D03*
D10*
G36*
X218960000Y-82270096D02*
G01*
X219014904Y-82325000D01*
X219035000Y-82400000D01*
X219035000Y-82700000D01*
X219014904Y-82775000D01*
X218960000Y-82829904D01*
X218885000Y-82850000D01*
X217135000Y-82850000D01*
X217060000Y-82829904D01*
X217005096Y-82775000D01*
X216985000Y-82700000D01*
X216985000Y-82400000D01*
X217005096Y-82325000D01*
X217060000Y-82270096D01*
X217135000Y-82250000D01*
X218885000Y-82250000D01*
X218960000Y-82270096D01*
X218960000Y-82270096D01*
G37*
D14*
X218010000Y-82550000D03*
D10*
G36*
X218960000Y-83540096D02*
G01*
X219014904Y-83595000D01*
X219035000Y-83670000D01*
X219035000Y-83970000D01*
X219014904Y-84045000D01*
X218960000Y-84099904D01*
X218885000Y-84120000D01*
X217135000Y-84120000D01*
X217060000Y-84099904D01*
X217005096Y-84045000D01*
X216985000Y-83970000D01*
X216985000Y-83670000D01*
X217005096Y-83595000D01*
X217060000Y-83540096D01*
X217135000Y-83520000D01*
X218885000Y-83520000D01*
X218960000Y-83540096D01*
X218960000Y-83540096D01*
G37*
D14*
X218010000Y-83820000D03*
D10*
G36*
X218960000Y-84810096D02*
G01*
X219014904Y-84865000D01*
X219035000Y-84940000D01*
X219035000Y-85240000D01*
X219014904Y-85315000D01*
X218960000Y-85369904D01*
X218885000Y-85390000D01*
X217135000Y-85390000D01*
X217060000Y-85369904D01*
X217005096Y-85315000D01*
X216985000Y-85240000D01*
X216985000Y-84940000D01*
X217005096Y-84865000D01*
X217060000Y-84810096D01*
X217135000Y-84790000D01*
X218885000Y-84790000D01*
X218960000Y-84810096D01*
X218960000Y-84810096D01*
G37*
D14*
X218010000Y-85090000D03*
D10*
G36*
X218960000Y-86080096D02*
G01*
X219014904Y-86135000D01*
X219035000Y-86210000D01*
X219035000Y-86510000D01*
X219014904Y-86585000D01*
X218960000Y-86639904D01*
X218885000Y-86660000D01*
X217135000Y-86660000D01*
X217060000Y-86639904D01*
X217005096Y-86585000D01*
X216985000Y-86510000D01*
X216985000Y-86210000D01*
X217005096Y-86135000D01*
X217060000Y-86080096D01*
X217135000Y-86060000D01*
X218885000Y-86060000D01*
X218960000Y-86080096D01*
X218960000Y-86080096D01*
G37*
D14*
X218010000Y-86360000D03*
D10*
G36*
X218960000Y-87350096D02*
G01*
X219014904Y-87405000D01*
X219035000Y-87480000D01*
X219035000Y-87780000D01*
X219014904Y-87855000D01*
X218960000Y-87909904D01*
X218885000Y-87930000D01*
X217135000Y-87930000D01*
X217060000Y-87909904D01*
X217005096Y-87855000D01*
X216985000Y-87780000D01*
X216985000Y-87480000D01*
X217005096Y-87405000D01*
X217060000Y-87350096D01*
X217135000Y-87330000D01*
X218885000Y-87330000D01*
X218960000Y-87350096D01*
X218960000Y-87350096D01*
G37*
D14*
X218010000Y-87630000D03*
D10*
G36*
X218960000Y-88620096D02*
G01*
X219014904Y-88675000D01*
X219035000Y-88750000D01*
X219035000Y-89050000D01*
X219014904Y-89125000D01*
X218960000Y-89179904D01*
X218885000Y-89200000D01*
X217135000Y-89200000D01*
X217060000Y-89179904D01*
X217005096Y-89125000D01*
X216985000Y-89050000D01*
X216985000Y-88750000D01*
X217005096Y-88675000D01*
X217060000Y-88620096D01*
X217135000Y-88600000D01*
X218885000Y-88600000D01*
X218960000Y-88620096D01*
X218960000Y-88620096D01*
G37*
D14*
X218010000Y-88900000D03*
D10*
G36*
X209660000Y-88620096D02*
G01*
X209714904Y-88675000D01*
X209735000Y-88750000D01*
X209735000Y-89050000D01*
X209714904Y-89125000D01*
X209660000Y-89179904D01*
X209585000Y-89200000D01*
X207835000Y-89200000D01*
X207760000Y-89179904D01*
X207705096Y-89125000D01*
X207685000Y-89050000D01*
X207685000Y-88750000D01*
X207705096Y-88675000D01*
X207760000Y-88620096D01*
X207835000Y-88600000D01*
X209585000Y-88600000D01*
X209660000Y-88620096D01*
X209660000Y-88620096D01*
G37*
D14*
X208710000Y-88900000D03*
D10*
G36*
X209660000Y-87350096D02*
G01*
X209714904Y-87405000D01*
X209735000Y-87480000D01*
X209735000Y-87780000D01*
X209714904Y-87855000D01*
X209660000Y-87909904D01*
X209585000Y-87930000D01*
X207835000Y-87930000D01*
X207760000Y-87909904D01*
X207705096Y-87855000D01*
X207685000Y-87780000D01*
X207685000Y-87480000D01*
X207705096Y-87405000D01*
X207760000Y-87350096D01*
X207835000Y-87330000D01*
X209585000Y-87330000D01*
X209660000Y-87350096D01*
X209660000Y-87350096D01*
G37*
D14*
X208710000Y-87630000D03*
D10*
G36*
X209660000Y-86080096D02*
G01*
X209714904Y-86135000D01*
X209735000Y-86210000D01*
X209735000Y-86510000D01*
X209714904Y-86585000D01*
X209660000Y-86639904D01*
X209585000Y-86660000D01*
X207835000Y-86660000D01*
X207760000Y-86639904D01*
X207705096Y-86585000D01*
X207685000Y-86510000D01*
X207685000Y-86210000D01*
X207705096Y-86135000D01*
X207760000Y-86080096D01*
X207835000Y-86060000D01*
X209585000Y-86060000D01*
X209660000Y-86080096D01*
X209660000Y-86080096D01*
G37*
D14*
X208710000Y-86360000D03*
D10*
G36*
X209660000Y-84810096D02*
G01*
X209714904Y-84865000D01*
X209735000Y-84940000D01*
X209735000Y-85240000D01*
X209714904Y-85315000D01*
X209660000Y-85369904D01*
X209585000Y-85390000D01*
X207835000Y-85390000D01*
X207760000Y-85369904D01*
X207705096Y-85315000D01*
X207685000Y-85240000D01*
X207685000Y-84940000D01*
X207705096Y-84865000D01*
X207760000Y-84810096D01*
X207835000Y-84790000D01*
X209585000Y-84790000D01*
X209660000Y-84810096D01*
X209660000Y-84810096D01*
G37*
D14*
X208710000Y-85090000D03*
D10*
G36*
X209660000Y-83540096D02*
G01*
X209714904Y-83595000D01*
X209735000Y-83670000D01*
X209735000Y-83970000D01*
X209714904Y-84045000D01*
X209660000Y-84099904D01*
X209585000Y-84120000D01*
X207835000Y-84120000D01*
X207760000Y-84099904D01*
X207705096Y-84045000D01*
X207685000Y-83970000D01*
X207685000Y-83670000D01*
X207705096Y-83595000D01*
X207760000Y-83540096D01*
X207835000Y-83520000D01*
X209585000Y-83520000D01*
X209660000Y-83540096D01*
X209660000Y-83540096D01*
G37*
D14*
X208710000Y-83820000D03*
D10*
G36*
X209660000Y-82270096D02*
G01*
X209714904Y-82325000D01*
X209735000Y-82400000D01*
X209735000Y-82700000D01*
X209714904Y-82775000D01*
X209660000Y-82829904D01*
X209585000Y-82850000D01*
X207835000Y-82850000D01*
X207760000Y-82829904D01*
X207705096Y-82775000D01*
X207685000Y-82700000D01*
X207685000Y-82400000D01*
X207705096Y-82325000D01*
X207760000Y-82270096D01*
X207835000Y-82250000D01*
X209585000Y-82250000D01*
X209660000Y-82270096D01*
X209660000Y-82270096D01*
G37*
D14*
X208710000Y-82550000D03*
D10*
G36*
X209660000Y-81000096D02*
G01*
X209714904Y-81055000D01*
X209735000Y-81130000D01*
X209735000Y-81430000D01*
X209714904Y-81505000D01*
X209660000Y-81559904D01*
X209585000Y-81580000D01*
X207835000Y-81580000D01*
X207760000Y-81559904D01*
X207705096Y-81505000D01*
X207685000Y-81430000D01*
X207685000Y-81130000D01*
X207705096Y-81055000D01*
X207760000Y-81000096D01*
X207835000Y-80980000D01*
X209585000Y-80980000D01*
X209660000Y-81000096D01*
X209660000Y-81000096D01*
G37*
D14*
X208710000Y-81280000D03*
D10*
G36*
X209660000Y-79730096D02*
G01*
X209714904Y-79785000D01*
X209735000Y-79860000D01*
X209735000Y-80160000D01*
X209714904Y-80235000D01*
X209660000Y-80289904D01*
X209585000Y-80310000D01*
X207835000Y-80310000D01*
X207760000Y-80289904D01*
X207705096Y-80235000D01*
X207685000Y-80160000D01*
X207685000Y-79860000D01*
X207705096Y-79785000D01*
X207760000Y-79730096D01*
X207835000Y-79710000D01*
X209585000Y-79710000D01*
X209660000Y-79730096D01*
X209660000Y-79730096D01*
G37*
D14*
X208710000Y-80010000D03*
D10*
G36*
X209660000Y-78460096D02*
G01*
X209714904Y-78515000D01*
X209735000Y-78590000D01*
X209735000Y-78890000D01*
X209714904Y-78965000D01*
X209660000Y-79019904D01*
X209585000Y-79040000D01*
X207835000Y-79040000D01*
X207760000Y-79019904D01*
X207705096Y-78965000D01*
X207685000Y-78890000D01*
X207685000Y-78590000D01*
X207705096Y-78515000D01*
X207760000Y-78460096D01*
X207835000Y-78440000D01*
X209585000Y-78440000D01*
X209660000Y-78460096D01*
X209660000Y-78460096D01*
G37*
D14*
X208710000Y-78740000D03*
D10*
G36*
X214805671Y-72344030D02*
G01*
X214886777Y-72398223D01*
X214940970Y-72479329D01*
X214960000Y-72574999D01*
X214960000Y-73475001D01*
X214940970Y-73570671D01*
X214886777Y-73651777D01*
X214805671Y-73705970D01*
X214710001Y-73725000D01*
X214059999Y-73725000D01*
X213964329Y-73705970D01*
X213883223Y-73651777D01*
X213829030Y-73570671D01*
X213810000Y-73475001D01*
X213810000Y-72574999D01*
X213829030Y-72479329D01*
X213883223Y-72398223D01*
X213964329Y-72344030D01*
X214059999Y-72325000D01*
X214710001Y-72325000D01*
X214805671Y-72344030D01*
X214805671Y-72344030D01*
G37*
D15*
X214385000Y-73025000D03*
D10*
G36*
X212755671Y-72344030D02*
G01*
X212836777Y-72398223D01*
X212890970Y-72479329D01*
X212910000Y-72574999D01*
X212910000Y-73475001D01*
X212890970Y-73570671D01*
X212836777Y-73651777D01*
X212755671Y-73705970D01*
X212660001Y-73725000D01*
X212009999Y-73725000D01*
X211914329Y-73705970D01*
X211833223Y-73651777D01*
X211779030Y-73570671D01*
X211760000Y-73475001D01*
X211760000Y-72574999D01*
X211779030Y-72479329D01*
X211833223Y-72398223D01*
X211914329Y-72344030D01*
X212009999Y-72325000D01*
X212660001Y-72325000D01*
X212755671Y-72344030D01*
X212755671Y-72344030D01*
G37*
D15*
X212335000Y-73025000D03*
D10*
G36*
X214805671Y-69804030D02*
G01*
X214886777Y-69858223D01*
X214940970Y-69939329D01*
X214960000Y-70034999D01*
X214960000Y-70935001D01*
X214940970Y-71030671D01*
X214886777Y-71111777D01*
X214805671Y-71165970D01*
X214710001Y-71185000D01*
X214059999Y-71185000D01*
X213964329Y-71165970D01*
X213883223Y-71111777D01*
X213829030Y-71030671D01*
X213810000Y-70935001D01*
X213810000Y-70034999D01*
X213829030Y-69939329D01*
X213883223Y-69858223D01*
X213964329Y-69804030D01*
X214059999Y-69785000D01*
X214710001Y-69785000D01*
X214805671Y-69804030D01*
X214805671Y-69804030D01*
G37*
D15*
X214385000Y-70485000D03*
D10*
G36*
X212755671Y-69804030D02*
G01*
X212836777Y-69858223D01*
X212890970Y-69939329D01*
X212910000Y-70034999D01*
X212910000Y-70935001D01*
X212890970Y-71030671D01*
X212836777Y-71111777D01*
X212755671Y-71165970D01*
X212660001Y-71185000D01*
X212009999Y-71185000D01*
X211914329Y-71165970D01*
X211833223Y-71111777D01*
X211779030Y-71030671D01*
X211760000Y-70935001D01*
X211760000Y-70034999D01*
X211779030Y-69939329D01*
X211833223Y-69858223D01*
X211914329Y-69804030D01*
X212009999Y-69785000D01*
X212660001Y-69785000D01*
X212755671Y-69804030D01*
X212755671Y-69804030D01*
G37*
D15*
X212335000Y-70485000D03*
D10*
G36*
X214805671Y-42499030D02*
G01*
X214886777Y-42553223D01*
X214940970Y-42634329D01*
X214960000Y-42729999D01*
X214960000Y-43630001D01*
X214940970Y-43725671D01*
X214886777Y-43806777D01*
X214805671Y-43860970D01*
X214710001Y-43880000D01*
X214059999Y-43880000D01*
X213964329Y-43860970D01*
X213883223Y-43806777D01*
X213829030Y-43725671D01*
X213810000Y-43630001D01*
X213810000Y-42729999D01*
X213829030Y-42634329D01*
X213883223Y-42553223D01*
X213964329Y-42499030D01*
X214059999Y-42480000D01*
X214710001Y-42480000D01*
X214805671Y-42499030D01*
X214805671Y-42499030D01*
G37*
D15*
X214385000Y-43180000D03*
D10*
G36*
X212755671Y-42499030D02*
G01*
X212836777Y-42553223D01*
X212890970Y-42634329D01*
X212910000Y-42729999D01*
X212910000Y-43630001D01*
X212890970Y-43725671D01*
X212836777Y-43806777D01*
X212755671Y-43860970D01*
X212660001Y-43880000D01*
X212009999Y-43880000D01*
X211914329Y-43860970D01*
X211833223Y-43806777D01*
X211779030Y-43725671D01*
X211760000Y-43630001D01*
X211760000Y-42729999D01*
X211779030Y-42634329D01*
X211833223Y-42553223D01*
X211914329Y-42499030D01*
X212009999Y-42480000D01*
X212660001Y-42480000D01*
X212755671Y-42499030D01*
X212755671Y-42499030D01*
G37*
D15*
X212335000Y-43180000D03*
D10*
G36*
X205015671Y-48584030D02*
G01*
X205096777Y-48638223D01*
X205150970Y-48719329D01*
X205170000Y-48814999D01*
X205170000Y-49465001D01*
X205150970Y-49560671D01*
X205096777Y-49641777D01*
X205015671Y-49695970D01*
X204920001Y-49715000D01*
X204019999Y-49715000D01*
X203924329Y-49695970D01*
X203843223Y-49641777D01*
X203789030Y-49560671D01*
X203770000Y-49465001D01*
X203770000Y-48814999D01*
X203789030Y-48719329D01*
X203843223Y-48638223D01*
X203924329Y-48584030D01*
X204019999Y-48565000D01*
X204920001Y-48565000D01*
X205015671Y-48584030D01*
X205015671Y-48584030D01*
G37*
D15*
X204470000Y-49140000D03*
D10*
G36*
X205015671Y-50634030D02*
G01*
X205096777Y-50688223D01*
X205150970Y-50769329D01*
X205170000Y-50864999D01*
X205170000Y-51515001D01*
X205150970Y-51610671D01*
X205096777Y-51691777D01*
X205015671Y-51745970D01*
X204920001Y-51765000D01*
X204019999Y-51765000D01*
X203924329Y-51745970D01*
X203843223Y-51691777D01*
X203789030Y-51610671D01*
X203770000Y-51515001D01*
X203770000Y-50864999D01*
X203789030Y-50769329D01*
X203843223Y-50688223D01*
X203924329Y-50634030D01*
X204019999Y-50615000D01*
X204920001Y-50615000D01*
X205015671Y-50634030D01*
X205015671Y-50634030D01*
G37*
D15*
X204470000Y-51190000D03*
D10*
G36*
X202475671Y-48584030D02*
G01*
X202556777Y-48638223D01*
X202610970Y-48719329D01*
X202630000Y-48814999D01*
X202630000Y-49465001D01*
X202610970Y-49560671D01*
X202556777Y-49641777D01*
X202475671Y-49695970D01*
X202380001Y-49715000D01*
X201479999Y-49715000D01*
X201384329Y-49695970D01*
X201303223Y-49641777D01*
X201249030Y-49560671D01*
X201230000Y-49465001D01*
X201230000Y-48814999D01*
X201249030Y-48719329D01*
X201303223Y-48638223D01*
X201384329Y-48584030D01*
X201479999Y-48565000D01*
X202380001Y-48565000D01*
X202475671Y-48584030D01*
X202475671Y-48584030D01*
G37*
D15*
X201930000Y-49140000D03*
D10*
G36*
X202475671Y-50634030D02*
G01*
X202556777Y-50688223D01*
X202610970Y-50769329D01*
X202630000Y-50864999D01*
X202630000Y-51515001D01*
X202610970Y-51610671D01*
X202556777Y-51691777D01*
X202475671Y-51745970D01*
X202380001Y-51765000D01*
X201479999Y-51765000D01*
X201384329Y-51745970D01*
X201303223Y-51691777D01*
X201249030Y-51610671D01*
X201230000Y-51515001D01*
X201230000Y-50864999D01*
X201249030Y-50769329D01*
X201303223Y-50688223D01*
X201384329Y-50634030D01*
X201479999Y-50615000D01*
X202380001Y-50615000D01*
X202475671Y-50634030D01*
X202475671Y-50634030D01*
G37*
D15*
X201930000Y-51190000D03*
D10*
G36*
X214805671Y-64724030D02*
G01*
X214886777Y-64778223D01*
X214940970Y-64859329D01*
X214960000Y-64954999D01*
X214960000Y-65855001D01*
X214940970Y-65950671D01*
X214886777Y-66031777D01*
X214805671Y-66085970D01*
X214710001Y-66105000D01*
X214059999Y-66105000D01*
X213964329Y-66085970D01*
X213883223Y-66031777D01*
X213829030Y-65950671D01*
X213810000Y-65855001D01*
X213810000Y-64954999D01*
X213829030Y-64859329D01*
X213883223Y-64778223D01*
X213964329Y-64724030D01*
X214059999Y-64705000D01*
X214710001Y-64705000D01*
X214805671Y-64724030D01*
X214805671Y-64724030D01*
G37*
D15*
X214385000Y-65405000D03*
D10*
G36*
X212755671Y-64724030D02*
G01*
X212836777Y-64778223D01*
X212890970Y-64859329D01*
X212910000Y-64954999D01*
X212910000Y-65855001D01*
X212890970Y-65950671D01*
X212836777Y-66031777D01*
X212755671Y-66085970D01*
X212660001Y-66105000D01*
X212009999Y-66105000D01*
X211914329Y-66085970D01*
X211833223Y-66031777D01*
X211779030Y-65950671D01*
X211760000Y-65855001D01*
X211760000Y-64954999D01*
X211779030Y-64859329D01*
X211833223Y-64778223D01*
X211914329Y-64724030D01*
X212009999Y-64705000D01*
X212660001Y-64705000D01*
X212755671Y-64724030D01*
X212755671Y-64724030D01*
G37*
D15*
X212335000Y-65405000D03*
D10*
G36*
X214805671Y-62184030D02*
G01*
X214886777Y-62238223D01*
X214940970Y-62319329D01*
X214960000Y-62414999D01*
X214960000Y-63315001D01*
X214940970Y-63410671D01*
X214886777Y-63491777D01*
X214805671Y-63545970D01*
X214710001Y-63565000D01*
X214059999Y-63565000D01*
X213964329Y-63545970D01*
X213883223Y-63491777D01*
X213829030Y-63410671D01*
X213810000Y-63315001D01*
X213810000Y-62414999D01*
X213829030Y-62319329D01*
X213883223Y-62238223D01*
X213964329Y-62184030D01*
X214059999Y-62165000D01*
X214710001Y-62165000D01*
X214805671Y-62184030D01*
X214805671Y-62184030D01*
G37*
D15*
X214385000Y-62865000D03*
D10*
G36*
X212755671Y-62184030D02*
G01*
X212836777Y-62238223D01*
X212890970Y-62319329D01*
X212910000Y-62414999D01*
X212910000Y-63315001D01*
X212890970Y-63410671D01*
X212836777Y-63491777D01*
X212755671Y-63545970D01*
X212660001Y-63565000D01*
X212009999Y-63565000D01*
X211914329Y-63545970D01*
X211833223Y-63491777D01*
X211779030Y-63410671D01*
X211760000Y-63315001D01*
X211760000Y-62414999D01*
X211779030Y-62319329D01*
X211833223Y-62238223D01*
X211914329Y-62184030D01*
X212009999Y-62165000D01*
X212660001Y-62165000D01*
X212755671Y-62184030D01*
X212755671Y-62184030D01*
G37*
D15*
X212335000Y-62865000D03*
D10*
G36*
X214805671Y-57104030D02*
G01*
X214886777Y-57158223D01*
X214940970Y-57239329D01*
X214960000Y-57334999D01*
X214960000Y-58235001D01*
X214940970Y-58330671D01*
X214886777Y-58411777D01*
X214805671Y-58465970D01*
X214710001Y-58485000D01*
X214059999Y-58485000D01*
X213964329Y-58465970D01*
X213883223Y-58411777D01*
X213829030Y-58330671D01*
X213810000Y-58235001D01*
X213810000Y-57334999D01*
X213829030Y-57239329D01*
X213883223Y-57158223D01*
X213964329Y-57104030D01*
X214059999Y-57085000D01*
X214710001Y-57085000D01*
X214805671Y-57104030D01*
X214805671Y-57104030D01*
G37*
D15*
X214385000Y-57785000D03*
D10*
G36*
X212755671Y-57104030D02*
G01*
X212836777Y-57158223D01*
X212890970Y-57239329D01*
X212910000Y-57334999D01*
X212910000Y-58235001D01*
X212890970Y-58330671D01*
X212836777Y-58411777D01*
X212755671Y-58465970D01*
X212660001Y-58485000D01*
X212009999Y-58485000D01*
X211914329Y-58465970D01*
X211833223Y-58411777D01*
X211779030Y-58330671D01*
X211760000Y-58235001D01*
X211760000Y-57334999D01*
X211779030Y-57239329D01*
X211833223Y-57158223D01*
X211914329Y-57104030D01*
X212009999Y-57085000D01*
X212660001Y-57085000D01*
X212755671Y-57104030D01*
X212755671Y-57104030D01*
G37*
D15*
X212335000Y-57785000D03*
D10*
G36*
X214805671Y-49484030D02*
G01*
X214886777Y-49538223D01*
X214940970Y-49619329D01*
X214960000Y-49714999D01*
X214960000Y-50615001D01*
X214940970Y-50710671D01*
X214886777Y-50791777D01*
X214805671Y-50845970D01*
X214710001Y-50865000D01*
X214059999Y-50865000D01*
X213964329Y-50845970D01*
X213883223Y-50791777D01*
X213829030Y-50710671D01*
X213810000Y-50615001D01*
X213810000Y-49714999D01*
X213829030Y-49619329D01*
X213883223Y-49538223D01*
X213964329Y-49484030D01*
X214059999Y-49465000D01*
X214710001Y-49465000D01*
X214805671Y-49484030D01*
X214805671Y-49484030D01*
G37*
D15*
X214385000Y-50165000D03*
D10*
G36*
X212755671Y-49484030D02*
G01*
X212836777Y-49538223D01*
X212890970Y-49619329D01*
X212910000Y-49714999D01*
X212910000Y-50615001D01*
X212890970Y-50710671D01*
X212836777Y-50791777D01*
X212755671Y-50845970D01*
X212660001Y-50865000D01*
X212009999Y-50865000D01*
X211914329Y-50845970D01*
X211833223Y-50791777D01*
X211779030Y-50710671D01*
X211760000Y-50615001D01*
X211760000Y-49714999D01*
X211779030Y-49619329D01*
X211833223Y-49538223D01*
X211914329Y-49484030D01*
X212009999Y-49465000D01*
X212660001Y-49465000D01*
X212755671Y-49484030D01*
X212755671Y-49484030D01*
G37*
D15*
X212335000Y-50165000D03*
D10*
G36*
X214805671Y-54564030D02*
G01*
X214886777Y-54618223D01*
X214940970Y-54699329D01*
X214960000Y-54794999D01*
X214960000Y-55695001D01*
X214940970Y-55790671D01*
X214886777Y-55871777D01*
X214805671Y-55925970D01*
X214710001Y-55945000D01*
X214059999Y-55945000D01*
X213964329Y-55925970D01*
X213883223Y-55871777D01*
X213829030Y-55790671D01*
X213810000Y-55695001D01*
X213810000Y-54794999D01*
X213829030Y-54699329D01*
X213883223Y-54618223D01*
X213964329Y-54564030D01*
X214059999Y-54545000D01*
X214710001Y-54545000D01*
X214805671Y-54564030D01*
X214805671Y-54564030D01*
G37*
D15*
X214385000Y-55245000D03*
D10*
G36*
X212755671Y-54564030D02*
G01*
X212836777Y-54618223D01*
X212890970Y-54699329D01*
X212910000Y-54794999D01*
X212910000Y-55695001D01*
X212890970Y-55790671D01*
X212836777Y-55871777D01*
X212755671Y-55925970D01*
X212660001Y-55945000D01*
X212009999Y-55945000D01*
X211914329Y-55925970D01*
X211833223Y-55871777D01*
X211779030Y-55790671D01*
X211760000Y-55695001D01*
X211760000Y-54794999D01*
X211779030Y-54699329D01*
X211833223Y-54618223D01*
X211914329Y-54564030D01*
X212009999Y-54545000D01*
X212660001Y-54545000D01*
X212755671Y-54564030D01*
X212755671Y-54564030D01*
G37*
D15*
X212335000Y-55245000D03*
D10*
G36*
X214805671Y-46944030D02*
G01*
X214886777Y-46998223D01*
X214940970Y-47079329D01*
X214960000Y-47174999D01*
X214960000Y-48075001D01*
X214940970Y-48170671D01*
X214886777Y-48251777D01*
X214805671Y-48305970D01*
X214710001Y-48325000D01*
X214059999Y-48325000D01*
X213964329Y-48305970D01*
X213883223Y-48251777D01*
X213829030Y-48170671D01*
X213810000Y-48075001D01*
X213810000Y-47174999D01*
X213829030Y-47079329D01*
X213883223Y-46998223D01*
X213964329Y-46944030D01*
X214059999Y-46925000D01*
X214710001Y-46925000D01*
X214805671Y-46944030D01*
X214805671Y-46944030D01*
G37*
D15*
X214385000Y-47625000D03*
D10*
G36*
X212755671Y-46944030D02*
G01*
X212836777Y-46998223D01*
X212890970Y-47079329D01*
X212910000Y-47174999D01*
X212910000Y-48075001D01*
X212890970Y-48170671D01*
X212836777Y-48251777D01*
X212755671Y-48305970D01*
X212660001Y-48325000D01*
X212009999Y-48325000D01*
X211914329Y-48305970D01*
X211833223Y-48251777D01*
X211779030Y-48170671D01*
X211760000Y-48075001D01*
X211760000Y-47174999D01*
X211779030Y-47079329D01*
X211833223Y-46998223D01*
X211914329Y-46944030D01*
X212009999Y-46925000D01*
X212660001Y-46925000D01*
X212755671Y-46944030D01*
X212755671Y-46944030D01*
G37*
D15*
X212335000Y-47625000D03*
D16*
X207645000Y-103505000D03*
X210185000Y-103505000D03*
X212725000Y-103505000D03*
D17*
X215265000Y-103505000D03*
D16*
X214630000Y-39370000D03*
X212090000Y-39370000D03*
X209550000Y-39370000D03*
X207010000Y-39370000D03*
D17*
X204470000Y-39370000D03*
D16*
X220980000Y-73025000D03*
D17*
X220980000Y-70485000D03*
D16*
X217170000Y-73025000D03*
D17*
X217170000Y-70485000D03*
D16*
X220980000Y-65405000D03*
D17*
X220980000Y-62865000D03*
D16*
X217170000Y-65405000D03*
D17*
X217170000Y-62865000D03*
D16*
X220980000Y-57785000D03*
D17*
X220980000Y-55245000D03*
D16*
X217170000Y-57785000D03*
D17*
X217170000Y-55245000D03*
D16*
X220980000Y-50165000D03*
D17*
X220980000Y-47625000D03*
D16*
X217170000Y-50165000D03*
D17*
X217170000Y-47625000D03*
D16*
X204470000Y-88900000D03*
X204470000Y-86360000D03*
X204470000Y-83820000D03*
X204470000Y-81280000D03*
D17*
X204470000Y-78740000D03*
D16*
X207645000Y-107315000D03*
X210185000Y-107315000D03*
X212725000Y-107315000D03*
D17*
X215265000Y-107315000D03*
D18*
X219075000Y-103465000D03*
X219075000Y-98465000D03*
D10*
G36*
X210960671Y-64549030D02*
G01*
X211041777Y-64603223D01*
X211095970Y-64684329D01*
X211115000Y-64780000D01*
X211115000Y-66030000D01*
X211095970Y-66125671D01*
X211041777Y-66206777D01*
X210960671Y-66260970D01*
X210865000Y-66280000D01*
X209940000Y-66280000D01*
X209844329Y-66260970D01*
X209763223Y-66206777D01*
X209709030Y-66125671D01*
X209690000Y-66030000D01*
X209690000Y-64780000D01*
X209709030Y-64684329D01*
X209763223Y-64603223D01*
X209844329Y-64549030D01*
X209940000Y-64530000D01*
X210865000Y-64530000D01*
X210960671Y-64549030D01*
X210960671Y-64549030D01*
G37*
D11*
X210402500Y-65405000D03*
D10*
G36*
X207985671Y-64549030D02*
G01*
X208066777Y-64603223D01*
X208120970Y-64684329D01*
X208140000Y-64780000D01*
X208140000Y-66030000D01*
X208120970Y-66125671D01*
X208066777Y-66206777D01*
X207985671Y-66260970D01*
X207890000Y-66280000D01*
X206965000Y-66280000D01*
X206869329Y-66260970D01*
X206788223Y-66206777D01*
X206734030Y-66125671D01*
X206715000Y-66030000D01*
X206715000Y-64780000D01*
X206734030Y-64684329D01*
X206788223Y-64603223D01*
X206869329Y-64549030D01*
X206965000Y-64530000D01*
X207890000Y-64530000D01*
X207985671Y-64549030D01*
X207985671Y-64549030D01*
G37*
D11*
X207427500Y-65405000D03*
D10*
G36*
X210960671Y-56929030D02*
G01*
X211041777Y-56983223D01*
X211095970Y-57064329D01*
X211115000Y-57160000D01*
X211115000Y-58410000D01*
X211095970Y-58505671D01*
X211041777Y-58586777D01*
X210960671Y-58640970D01*
X210865000Y-58660000D01*
X209940000Y-58660000D01*
X209844329Y-58640970D01*
X209763223Y-58586777D01*
X209709030Y-58505671D01*
X209690000Y-58410000D01*
X209690000Y-57160000D01*
X209709030Y-57064329D01*
X209763223Y-56983223D01*
X209844329Y-56929030D01*
X209940000Y-56910000D01*
X210865000Y-56910000D01*
X210960671Y-56929030D01*
X210960671Y-56929030D01*
G37*
D11*
X210402500Y-57785000D03*
D10*
G36*
X207985671Y-56929030D02*
G01*
X208066777Y-56983223D01*
X208120970Y-57064329D01*
X208140000Y-57160000D01*
X208140000Y-58410000D01*
X208120970Y-58505671D01*
X208066777Y-58586777D01*
X207985671Y-58640970D01*
X207890000Y-58660000D01*
X206965000Y-58660000D01*
X206869329Y-58640970D01*
X206788223Y-58586777D01*
X206734030Y-58505671D01*
X206715000Y-58410000D01*
X206715000Y-57160000D01*
X206734030Y-57064329D01*
X206788223Y-56983223D01*
X206869329Y-56929030D01*
X206965000Y-56910000D01*
X207890000Y-56910000D01*
X207985671Y-56929030D01*
X207985671Y-56929030D01*
G37*
D11*
X207427500Y-57785000D03*
D10*
G36*
X210960671Y-49309030D02*
G01*
X211041777Y-49363223D01*
X211095970Y-49444329D01*
X211115000Y-49540000D01*
X211115000Y-50790000D01*
X211095970Y-50885671D01*
X211041777Y-50966777D01*
X210960671Y-51020970D01*
X210865000Y-51040000D01*
X209940000Y-51040000D01*
X209844329Y-51020970D01*
X209763223Y-50966777D01*
X209709030Y-50885671D01*
X209690000Y-50790000D01*
X209690000Y-49540000D01*
X209709030Y-49444329D01*
X209763223Y-49363223D01*
X209844329Y-49309030D01*
X209940000Y-49290000D01*
X210865000Y-49290000D01*
X210960671Y-49309030D01*
X210960671Y-49309030D01*
G37*
D11*
X210402500Y-50165000D03*
D10*
G36*
X207985671Y-49309030D02*
G01*
X208066777Y-49363223D01*
X208120970Y-49444329D01*
X208140000Y-49540000D01*
X208140000Y-50790000D01*
X208120970Y-50885671D01*
X208066777Y-50966777D01*
X207985671Y-51020970D01*
X207890000Y-51040000D01*
X206965000Y-51040000D01*
X206869329Y-51020970D01*
X206788223Y-50966777D01*
X206734030Y-50885671D01*
X206715000Y-50790000D01*
X206715000Y-49540000D01*
X206734030Y-49444329D01*
X206788223Y-49363223D01*
X206869329Y-49309030D01*
X206965000Y-49290000D01*
X207890000Y-49290000D01*
X207985671Y-49309030D01*
X207985671Y-49309030D01*
G37*
D11*
X207427500Y-50165000D03*
D10*
G36*
X212120671Y-93934030D02*
G01*
X212201777Y-93988223D01*
X212255970Y-94069329D01*
X212275000Y-94164999D01*
X212275000Y-95065001D01*
X212255970Y-95160671D01*
X212201777Y-95241777D01*
X212120671Y-95295970D01*
X212025001Y-95315000D01*
X211374999Y-95315000D01*
X211279329Y-95295970D01*
X211198223Y-95241777D01*
X211144030Y-95160671D01*
X211125000Y-95065001D01*
X211125000Y-94164999D01*
X211144030Y-94069329D01*
X211198223Y-93988223D01*
X211279329Y-93934030D01*
X211374999Y-93915000D01*
X212025001Y-93915000D01*
X212120671Y-93934030D01*
X212120671Y-93934030D01*
G37*
D15*
X211700000Y-94615000D03*
D10*
G36*
X214170671Y-93934030D02*
G01*
X214251777Y-93988223D01*
X214305970Y-94069329D01*
X214325000Y-94164999D01*
X214325000Y-95065001D01*
X214305970Y-95160671D01*
X214251777Y-95241777D01*
X214170671Y-95295970D01*
X214075001Y-95315000D01*
X213424999Y-95315000D01*
X213329329Y-95295970D01*
X213248223Y-95241777D01*
X213194030Y-95160671D01*
X213175000Y-95065001D01*
X213175000Y-94164999D01*
X213194030Y-94069329D01*
X213248223Y-93988223D01*
X213329329Y-93934030D01*
X213424999Y-93915000D01*
X214075001Y-93915000D01*
X214170671Y-93934030D01*
X214170671Y-93934030D01*
G37*
D15*
X213750000Y-94615000D03*
D19*
X213265000Y-98425000D03*
D20*
X215265000Y-98425000D03*
D10*
G36*
X221525671Y-80969030D02*
G01*
X221606777Y-81023223D01*
X221660970Y-81104329D01*
X221680000Y-81199999D01*
X221680000Y-81850001D01*
X221660970Y-81945671D01*
X221606777Y-82026777D01*
X221525671Y-82080970D01*
X221430001Y-82100000D01*
X220529999Y-82100000D01*
X220434329Y-82080970D01*
X220353223Y-82026777D01*
X220299030Y-81945671D01*
X220280000Y-81850001D01*
X220280000Y-81199999D01*
X220299030Y-81104329D01*
X220353223Y-81023223D01*
X220434329Y-80969030D01*
X220529999Y-80950000D01*
X221430001Y-80950000D01*
X221525671Y-80969030D01*
X221525671Y-80969030D01*
G37*
D15*
X220980000Y-81525000D03*
D10*
G36*
X221525671Y-83019030D02*
G01*
X221606777Y-83073223D01*
X221660970Y-83154329D01*
X221680000Y-83249999D01*
X221680000Y-83900001D01*
X221660970Y-83995671D01*
X221606777Y-84076777D01*
X221525671Y-84130970D01*
X221430001Y-84150000D01*
X220529999Y-84150000D01*
X220434329Y-84130970D01*
X220353223Y-84076777D01*
X220299030Y-83995671D01*
X220280000Y-83900001D01*
X220280000Y-83249999D01*
X220299030Y-83154329D01*
X220353223Y-83073223D01*
X220434329Y-83019030D01*
X220529999Y-83000000D01*
X221430001Y-83000000D01*
X221525671Y-83019030D01*
X221525671Y-83019030D01*
G37*
D15*
X220980000Y-83575000D03*
D10*
G36*
X201205671Y-83019030D02*
G01*
X201286777Y-83073223D01*
X201340970Y-83154329D01*
X201360000Y-83249999D01*
X201360000Y-83900001D01*
X201340970Y-83995671D01*
X201286777Y-84076777D01*
X201205671Y-84130970D01*
X201110001Y-84150000D01*
X200209999Y-84150000D01*
X200114329Y-84130970D01*
X200033223Y-84076777D01*
X199979030Y-83995671D01*
X199960000Y-83900001D01*
X199960000Y-83249999D01*
X199979030Y-83154329D01*
X200033223Y-83073223D01*
X200114329Y-83019030D01*
X200209999Y-83000000D01*
X201110001Y-83000000D01*
X201205671Y-83019030D01*
X201205671Y-83019030D01*
G37*
D15*
X200660000Y-83575000D03*
D10*
G36*
X201205671Y-80969030D02*
G01*
X201286777Y-81023223D01*
X201340970Y-81104329D01*
X201360000Y-81199999D01*
X201360000Y-81850001D01*
X201340970Y-81945671D01*
X201286777Y-82026777D01*
X201205671Y-82080970D01*
X201110001Y-82100000D01*
X200209999Y-82100000D01*
X200114329Y-82080970D01*
X200033223Y-82026777D01*
X199979030Y-81945671D01*
X199960000Y-81850001D01*
X199960000Y-81199999D01*
X199979030Y-81104329D01*
X200033223Y-81023223D01*
X200114329Y-80969030D01*
X200209999Y-80950000D01*
X201110001Y-80950000D01*
X201205671Y-80969030D01*
X201205671Y-80969030D01*
G37*
D15*
X200660000Y-81525000D03*
D21*
X210937410Y-44575797D03*
X213360000Y-44450000D03*
X204470000Y-68580000D03*
X210820000Y-68580000D03*
X217275204Y-40331563D03*
X216827181Y-41648473D03*
X207010000Y-59055000D03*
X210684503Y-86459654D03*
X210863311Y-85475758D03*
X210820000Y-84455000D03*
X207191318Y-87965118D03*
X206375000Y-84455000D03*
X206310012Y-46038801D03*
X208280000Y-53975000D03*
X210185000Y-81280000D03*
X208915000Y-45085000D03*
X210933992Y-78033359D03*
X210185000Y-80010000D03*
X215265000Y-88900000D03*
X210820000Y-83185000D03*
X215265000Y-54092410D03*
X213360000Y-51952590D03*
X217805000Y-52705000D03*
X219488426Y-81904131D03*
X219710000Y-80010000D03*
X219710000Y-78740000D03*
X210702590Y-87630000D03*
X211455000Y-88900000D03*
X205740000Y-93345000D03*
X223520000Y-81915000D03*
X216535000Y-83820000D03*
X215265000Y-68580000D03*
X215265000Y-60960000D03*
X214630000Y-45720000D03*
X213360000Y-71755000D03*
X213360000Y-64135000D03*
X213360000Y-48895000D03*
X213360000Y-56515000D03*
X213360000Y-74930000D03*
X213360000Y-67310000D03*
X213360000Y-59690000D03*
X205105000Y-57785000D03*
X205105000Y-65405000D03*
X205105000Y-73025000D03*
D22*
X213360000Y-44450000D02*
X213360000Y-44205000D01*
X213360000Y-44205000D02*
X214385000Y-43180000D01*
X210594113Y-44232500D02*
X210937410Y-44575797D01*
X204470000Y-44232500D02*
X210594113Y-44232500D01*
X209550000Y-86360000D02*
X208710000Y-86360000D01*
X210087410Y-85822590D02*
X209550000Y-86360000D01*
X210087410Y-85187590D02*
X210087410Y-85822590D01*
D23*
X210820000Y-68580000D02*
X204470000Y-68580000D01*
D22*
X211257212Y-37662788D02*
X216732788Y-37662788D01*
X218027605Y-41013734D02*
X217392866Y-41648473D01*
X217392866Y-41648473D02*
X216827181Y-41648473D01*
X209550000Y-39370000D02*
X211257212Y-37662788D01*
X212090000Y-39370000D02*
X213292401Y-38167599D01*
X218027605Y-38957605D02*
X218027605Y-41013734D01*
X215676925Y-38167599D02*
X217275204Y-39765878D01*
X213292401Y-38167599D02*
X215676925Y-38167599D01*
X216732788Y-37662788D02*
X218027605Y-38957605D01*
X217275204Y-39765878D02*
X217275204Y-40331563D01*
X207427500Y-57785000D02*
X207427500Y-58637500D01*
X207427500Y-58637500D02*
X207010000Y-59055000D01*
X210087410Y-85187590D02*
X210820000Y-84455000D01*
D23*
X218010000Y-86360000D02*
X210784157Y-86360000D01*
X210784157Y-86360000D02*
X210684503Y-86459654D01*
X211428996Y-85475758D02*
X210863311Y-85475758D01*
X217624242Y-85475758D02*
X211428996Y-85475758D01*
X218010000Y-85090000D02*
X217624242Y-85475758D01*
D22*
X210087410Y-85440878D02*
X210087410Y-85187590D01*
D23*
X207526436Y-87630000D02*
X207191318Y-87965118D01*
X208710000Y-87630000D02*
X207526436Y-87630000D01*
X204840710Y-83449290D02*
X204470000Y-83820000D01*
X208339290Y-83449290D02*
X204840710Y-83449290D01*
D22*
X207010000Y-85090000D02*
X206375000Y-84455000D01*
D23*
X208710000Y-83820000D02*
X208339290Y-83449290D01*
D22*
X208710000Y-85090000D02*
X207010000Y-85090000D01*
X202698692Y-45001192D02*
X201930000Y-44232500D01*
X217805000Y-52705000D02*
X205985000Y-52705000D01*
X203182499Y-45484999D02*
X202698692Y-45001192D01*
X206310012Y-49047512D02*
X206310012Y-46604486D01*
X204715000Y-53975000D02*
X201930000Y-51190000D01*
X206150259Y-45085000D02*
X205750260Y-45484999D01*
X208915000Y-45085000D02*
X206150259Y-45085000D01*
X205985000Y-52705000D02*
X205092554Y-51812554D01*
X207427500Y-50165000D02*
X206310012Y-49047512D01*
X205750260Y-45484999D02*
X203182499Y-45484999D01*
X208280000Y-53975000D02*
X204715000Y-53975000D01*
X206310012Y-46604486D02*
X206310012Y-46038801D01*
X205092554Y-51812554D02*
X204470000Y-51190000D01*
X208710000Y-81280000D02*
X210185000Y-81280000D01*
X209416641Y-78033359D02*
X210368307Y-78033359D01*
X208710000Y-78740000D02*
X209416641Y-78033359D01*
X210368307Y-78033359D02*
X210933992Y-78033359D01*
X208710000Y-80010000D02*
X210185000Y-80010000D01*
X218010000Y-88900000D02*
X215265000Y-88900000D01*
X218010000Y-82550000D02*
X211455000Y-82550000D01*
X211455000Y-82550000D02*
X210820000Y-83185000D01*
X207427500Y-50165000D02*
X209215090Y-51952590D01*
X211454910Y-51217410D02*
X211171192Y-50933692D01*
X211171192Y-50933692D02*
X210402500Y-50165000D01*
X213487590Y-54092410D02*
X214699315Y-54092410D01*
X214385000Y-50165000D02*
X213762446Y-50787554D01*
X213411480Y-50787554D02*
X212981624Y-51217410D01*
X212981624Y-51217410D02*
X211454910Y-51217410D01*
X214699315Y-54092410D02*
X215265000Y-54092410D01*
X213762446Y-50787554D02*
X213411480Y-50787554D01*
X212794315Y-51952590D02*
X213360000Y-51952590D01*
X212335000Y-55245000D02*
X213487590Y-54092410D01*
X209215090Y-51952590D02*
X212794315Y-51952590D01*
X218010000Y-81280000D02*
X218864295Y-81280000D01*
X218864295Y-81280000D02*
X219488426Y-81904131D01*
X218010000Y-80010000D02*
X219710000Y-80010000D01*
X218010000Y-78740000D02*
X219710000Y-78740000D01*
D23*
X218010000Y-87630000D02*
X210702590Y-87630000D01*
D22*
X208710000Y-88900000D02*
X211455000Y-88900000D01*
D24*
X214865001Y-92945001D02*
X216535000Y-94615000D01*
X205740000Y-93345000D02*
X206139999Y-92945001D01*
X206139999Y-92945001D02*
X214865001Y-92945001D01*
X202911999Y-93056999D02*
X206375000Y-96520000D01*
X206375000Y-96520000D02*
X212805000Y-96520000D01*
X204470000Y-83820000D02*
X202911999Y-85378001D01*
X202911999Y-85378001D02*
X202911999Y-93056999D01*
D23*
X223130000Y-81525000D02*
X223520000Y-81915000D01*
X220980000Y-81525000D02*
X223130000Y-81525000D01*
X218010000Y-83820000D02*
X216535000Y-83820000D01*
D22*
X212335000Y-70485000D02*
X214240000Y-68580000D01*
X214240000Y-68580000D02*
X215265000Y-68580000D01*
X212335000Y-62865000D02*
X214240000Y-60960000D01*
X214240000Y-60960000D02*
X215265000Y-60960000D01*
X212335000Y-47625000D02*
X214240000Y-45720000D01*
X214240000Y-45720000D02*
X214630000Y-45720000D01*
X212335000Y-47625000D02*
X212335000Y-43180000D01*
X214385000Y-70485000D02*
X214385000Y-70730000D01*
X214385000Y-70730000D02*
X213360000Y-71755000D01*
X214385000Y-62865000D02*
X214385000Y-63110000D01*
X214385000Y-63110000D02*
X213360000Y-64135000D01*
X214385000Y-47625000D02*
X214385000Y-47870000D01*
X214385000Y-47870000D02*
X213360000Y-48895000D01*
X214385000Y-55245000D02*
X214385000Y-55490000D01*
X214385000Y-55490000D02*
X213360000Y-56515000D01*
X214385000Y-57785000D02*
X213332590Y-58837410D01*
X213332590Y-58837410D02*
X211454910Y-58837410D01*
X211454910Y-58837410D02*
X211171192Y-58553692D01*
X211171192Y-58553692D02*
X210402500Y-57785000D01*
X214385000Y-65405000D02*
X213332590Y-66457410D01*
X213332590Y-66457410D02*
X211454910Y-66457410D01*
X211454910Y-66457410D02*
X211171192Y-66173692D01*
X211171192Y-66173692D02*
X210402500Y-65405000D01*
X217170000Y-65405000D02*
X214385000Y-65405000D01*
X214385000Y-73025000D02*
X213332590Y-74077410D01*
X213332590Y-74077410D02*
X211454910Y-74077410D01*
X211454910Y-74077410D02*
X211171192Y-73793692D01*
X211171192Y-73793692D02*
X210402500Y-73025000D01*
X212335000Y-50165000D02*
X212335000Y-47625000D01*
X212335000Y-57785000D02*
X212335000Y-55245000D01*
X212335000Y-65405000D02*
X212335000Y-62865000D01*
X212335000Y-73025000D02*
X212335000Y-70485000D01*
X217170000Y-73025000D02*
X214385000Y-73025000D01*
X217170000Y-50165000D02*
X214385000Y-50165000D01*
X217170000Y-55245000D02*
X214385000Y-55245000D01*
X217170000Y-57785000D02*
X214385000Y-57785000D01*
X217170000Y-62865000D02*
X214385000Y-62865000D01*
X220980000Y-62865000D02*
X217170000Y-62865000D01*
X217170000Y-70485000D02*
X214385000Y-70485000D01*
X220980000Y-70485000D02*
X217170000Y-70485000D01*
X207427500Y-73025000D02*
X209332500Y-74930000D01*
X209332500Y-74930000D02*
X213360000Y-74930000D01*
X207427500Y-65405000D02*
X209332500Y-67310000D01*
X210368060Y-67310000D02*
X213360000Y-67310000D01*
X209332500Y-67310000D02*
X210368060Y-67310000D01*
X207427500Y-57785000D02*
X209332500Y-59690000D01*
X209332500Y-59690000D02*
X213360000Y-59690000D01*
X207427500Y-57785000D02*
X205105000Y-57785000D01*
X207427500Y-65405000D02*
X205105000Y-65405000D01*
X207427500Y-73025000D02*
X205105000Y-73025000D01*
X214630000Y-39370000D02*
X214630000Y-42935000D01*
X214630000Y-42935000D02*
X214385000Y-43180000D01*
D23*
X210185000Y-107315000D02*
X210185000Y-106045000D01*
X210185000Y-106045000D02*
X207645000Y-103505000D01*
D24*
X212725000Y-103505000D02*
X212725000Y-98965000D01*
X212725000Y-98965000D02*
X213265000Y-98425000D01*
X215265000Y-107315000D02*
X212725000Y-104775000D01*
X212725000Y-104775000D02*
X212725000Y-103505000D01*
X211700000Y-94615000D02*
X211700000Y-95415000D01*
X211700000Y-95415000D02*
X212805000Y-96520000D01*
X212805000Y-96520000D02*
X213995000Y-96520000D01*
X213995000Y-96520000D02*
X213265000Y-97250000D01*
X213265000Y-97250000D02*
X213265000Y-98425000D01*
X217179402Y-96520000D02*
X213995000Y-96520000D01*
X217805000Y-94615000D02*
X217805000Y-95894402D01*
X217805000Y-95894402D02*
X217179402Y-96520000D01*
X216535000Y-94615000D02*
X213750000Y-94615000D01*
X219075000Y-94615000D02*
X219075000Y-98465000D01*
X219075000Y-98465000D02*
X215305000Y-98465000D01*
X215305000Y-98465000D02*
X215265000Y-98425000D01*
X219075000Y-103465000D02*
X215305000Y-103465000D01*
X215305000Y-103465000D02*
X215265000Y-103505000D01*
D23*
X218010000Y-83820000D02*
X220735000Y-83820000D01*
X220735000Y-83820000D02*
X220980000Y-83575000D01*
X207010000Y-82550000D02*
X207010000Y-79922000D01*
X207010000Y-79922000D02*
X205828000Y-78740000D01*
X205828000Y-78740000D02*
X204470000Y-78740000D01*
X208710000Y-82550000D02*
X207010000Y-82550000D01*
X204470000Y-83820000D02*
X200905000Y-83820000D01*
X200905000Y-83820000D02*
X200660000Y-83575000D01*
X204470000Y-81280000D02*
X200905000Y-81280000D01*
X200905000Y-81280000D02*
X200660000Y-81525000D01*
X204470000Y-49140000D02*
X204470000Y-47207500D01*
X201930000Y-49140000D02*
X201930000Y-47207500D01*
X220980000Y-55245000D02*
X217170000Y-55245000D01*
X217170000Y-47625000D02*
X214385000Y-47625000D01*
X220980000Y-47625000D02*
X217170000Y-47625000D01*
M02*
