G04 #@! TF.GenerationSoftware,KiCad,Pcbnew,(5.1.0-894-gde406e36d)*
G04 #@! TF.CreationDate,2019-06-07T17:38:46-07:00*
G04 #@! TF.ProjectId,TetheredJoy,54657468-6572-4656-944a-6f792e6b6963,n/c*
G04 #@! TF.SameCoordinates,Original*
G04 #@! TF.FileFunction,Soldermask,Top*
G04 #@! TF.FilePolarity,Negative*
%FSLAX46Y46*%
G04 Gerber Fmt 4.6, Leading zero omitted, Abs format (unit mm)*
G04 Created by KiCad (PCBNEW (5.1.0-894-gde406e36d)) date 2019-06-07 17:38:46*
%MOMM*%
%LPD*%
G04 APERTURE LIST*
%ADD10C,0.100000*%
G04 APERTURE END LIST*
D10*
G36*
X216166000Y-108216000D02*
G01*
X214364000Y-108216000D01*
X214364000Y-106414000D01*
X216166000Y-106414000D01*
X216166000Y-108216000D01*
X216166000Y-108216000D01*
G37*
G36*
X212913360Y-106428835D02*
G01*
X212994397Y-106455166D01*
X213081663Y-106482848D01*
X213084655Y-106484493D01*
X213093488Y-106487363D01*
X213165466Y-106528919D01*
X213236499Y-106567970D01*
X213243986Y-106574253D01*
X213257511Y-106582061D01*
X213315259Y-106634057D01*
X213371857Y-106681549D01*
X213381962Y-106694118D01*
X213398261Y-106708793D01*
X213440454Y-106766867D01*
X213482579Y-106819260D01*
X213492994Y-106839182D01*
X213509586Y-106862019D01*
X213536297Y-106922012D01*
X213564439Y-106975843D01*
X213572582Y-107003510D01*
X213586621Y-107035042D01*
X213598992Y-107093241D01*
X213614328Y-107145349D01*
X213617518Y-107180401D01*
X213625999Y-107220301D01*
X213625999Y-107273592D01*
X213630343Y-107321324D01*
X213625999Y-107362653D01*
X213625999Y-107409699D01*
X213616217Y-107455721D01*
X213611873Y-107497047D01*
X213597702Y-107542827D01*
X213586621Y-107594958D01*
X213570028Y-107632226D01*
X213559622Y-107665843D01*
X213533789Y-107713620D01*
X213509586Y-107767981D01*
X213489298Y-107795905D01*
X213475580Y-107821276D01*
X213436859Y-107868082D01*
X213398261Y-107921207D01*
X213377284Y-107940095D01*
X213362952Y-107957419D01*
X213310845Y-107999917D01*
X213257511Y-108047939D01*
X213238524Y-108058901D01*
X213226025Y-108069095D01*
X213160780Y-108103786D01*
X213093488Y-108142637D01*
X213078636Y-108147463D01*
X213070003Y-108152053D01*
X212992430Y-108175473D01*
X212913360Y-108201165D01*
X212904114Y-108202137D01*
X212900851Y-108203122D01*
X212809710Y-108212059D01*
X212772211Y-108216000D01*
X212677789Y-108216000D01*
X212536640Y-108201165D01*
X212455603Y-108174834D01*
X212368337Y-108147152D01*
X212365345Y-108145507D01*
X212356512Y-108142637D01*
X212284534Y-108101081D01*
X212213501Y-108062030D01*
X212206014Y-108055747D01*
X212192489Y-108047939D01*
X212134741Y-107995943D01*
X212078143Y-107948451D01*
X212068038Y-107935882D01*
X212051739Y-107921207D01*
X212009546Y-107863133D01*
X211967421Y-107810740D01*
X211957006Y-107790818D01*
X211940414Y-107767981D01*
X211913703Y-107707988D01*
X211885561Y-107654157D01*
X211877418Y-107626490D01*
X211863379Y-107594958D01*
X211851008Y-107536759D01*
X211835672Y-107484651D01*
X211832482Y-107449599D01*
X211824001Y-107409699D01*
X211824001Y-107356408D01*
X211819657Y-107308676D01*
X211824001Y-107267347D01*
X211824001Y-107220301D01*
X211833783Y-107174279D01*
X211838127Y-107132953D01*
X211852298Y-107087173D01*
X211863379Y-107035042D01*
X211879972Y-106997774D01*
X211890378Y-106964157D01*
X211916211Y-106916380D01*
X211940414Y-106862019D01*
X211960702Y-106834095D01*
X211974420Y-106808724D01*
X212013141Y-106761918D01*
X212051739Y-106708793D01*
X212072716Y-106689905D01*
X212087048Y-106672581D01*
X212139155Y-106630083D01*
X212192489Y-106582061D01*
X212211476Y-106571099D01*
X212223975Y-106560905D01*
X212289220Y-106526214D01*
X212356512Y-106487363D01*
X212371364Y-106482537D01*
X212379997Y-106477947D01*
X212457570Y-106454527D01*
X212536640Y-106428835D01*
X212545886Y-106427863D01*
X212549149Y-106426878D01*
X212640290Y-106417941D01*
X212677789Y-106414000D01*
X212772211Y-106414000D01*
X212913360Y-106428835D01*
X212913360Y-106428835D01*
G37*
G36*
X210373360Y-106428835D02*
G01*
X210454397Y-106455166D01*
X210541663Y-106482848D01*
X210544655Y-106484493D01*
X210553488Y-106487363D01*
X210625466Y-106528919D01*
X210696499Y-106567970D01*
X210703986Y-106574253D01*
X210717511Y-106582061D01*
X210775259Y-106634057D01*
X210831857Y-106681549D01*
X210841962Y-106694118D01*
X210858261Y-106708793D01*
X210900454Y-106766867D01*
X210942579Y-106819260D01*
X210952994Y-106839182D01*
X210969586Y-106862019D01*
X210996297Y-106922012D01*
X211024439Y-106975843D01*
X211032582Y-107003510D01*
X211046621Y-107035042D01*
X211058992Y-107093241D01*
X211074328Y-107145349D01*
X211077518Y-107180401D01*
X211085999Y-107220301D01*
X211085999Y-107273592D01*
X211090343Y-107321324D01*
X211085999Y-107362653D01*
X211085999Y-107409699D01*
X211076217Y-107455721D01*
X211071873Y-107497047D01*
X211057702Y-107542827D01*
X211046621Y-107594958D01*
X211030028Y-107632226D01*
X211019622Y-107665843D01*
X210993789Y-107713620D01*
X210969586Y-107767981D01*
X210949298Y-107795905D01*
X210935580Y-107821276D01*
X210896859Y-107868082D01*
X210858261Y-107921207D01*
X210837284Y-107940095D01*
X210822952Y-107957419D01*
X210770845Y-107999917D01*
X210717511Y-108047939D01*
X210698524Y-108058901D01*
X210686025Y-108069095D01*
X210620780Y-108103786D01*
X210553488Y-108142637D01*
X210538636Y-108147463D01*
X210530003Y-108152053D01*
X210452430Y-108175473D01*
X210373360Y-108201165D01*
X210364114Y-108202137D01*
X210360851Y-108203122D01*
X210269710Y-108212059D01*
X210232211Y-108216000D01*
X210137789Y-108216000D01*
X209996640Y-108201165D01*
X209915603Y-108174834D01*
X209828337Y-108147152D01*
X209825345Y-108145507D01*
X209816512Y-108142637D01*
X209744534Y-108101081D01*
X209673501Y-108062030D01*
X209666014Y-108055747D01*
X209652489Y-108047939D01*
X209594741Y-107995943D01*
X209538143Y-107948451D01*
X209528038Y-107935882D01*
X209511739Y-107921207D01*
X209469546Y-107863133D01*
X209427421Y-107810740D01*
X209417006Y-107790818D01*
X209400414Y-107767981D01*
X209373703Y-107707988D01*
X209345561Y-107654157D01*
X209337418Y-107626490D01*
X209323379Y-107594958D01*
X209311008Y-107536759D01*
X209295672Y-107484651D01*
X209292482Y-107449599D01*
X209284001Y-107409699D01*
X209284001Y-107356408D01*
X209279657Y-107308676D01*
X209284001Y-107267347D01*
X209284001Y-107220301D01*
X209293783Y-107174279D01*
X209298127Y-107132953D01*
X209312298Y-107087173D01*
X209323379Y-107035042D01*
X209339972Y-106997774D01*
X209350378Y-106964157D01*
X209376211Y-106916380D01*
X209400414Y-106862019D01*
X209420702Y-106834095D01*
X209434420Y-106808724D01*
X209473141Y-106761918D01*
X209511739Y-106708793D01*
X209532716Y-106689905D01*
X209547048Y-106672581D01*
X209599155Y-106630083D01*
X209652489Y-106582061D01*
X209671476Y-106571099D01*
X209683975Y-106560905D01*
X209749220Y-106526214D01*
X209816512Y-106487363D01*
X209831364Y-106482537D01*
X209839997Y-106477947D01*
X209917570Y-106454527D01*
X209996640Y-106428835D01*
X210005886Y-106427863D01*
X210009149Y-106426878D01*
X210100290Y-106417941D01*
X210137789Y-106414000D01*
X210232211Y-106414000D01*
X210373360Y-106428835D01*
X210373360Y-106428835D01*
G37*
G36*
X207833360Y-106428835D02*
G01*
X207914397Y-106455166D01*
X208001663Y-106482848D01*
X208004655Y-106484493D01*
X208013488Y-106487363D01*
X208085466Y-106528919D01*
X208156499Y-106567970D01*
X208163986Y-106574253D01*
X208177511Y-106582061D01*
X208235259Y-106634057D01*
X208291857Y-106681549D01*
X208301962Y-106694118D01*
X208318261Y-106708793D01*
X208360454Y-106766867D01*
X208402579Y-106819260D01*
X208412994Y-106839182D01*
X208429586Y-106862019D01*
X208456297Y-106922012D01*
X208484439Y-106975843D01*
X208492582Y-107003510D01*
X208506621Y-107035042D01*
X208518992Y-107093241D01*
X208534328Y-107145349D01*
X208537518Y-107180401D01*
X208545999Y-107220301D01*
X208545999Y-107273592D01*
X208550343Y-107321324D01*
X208545999Y-107362653D01*
X208545999Y-107409699D01*
X208536217Y-107455721D01*
X208531873Y-107497047D01*
X208517702Y-107542827D01*
X208506621Y-107594958D01*
X208490028Y-107632226D01*
X208479622Y-107665843D01*
X208453789Y-107713620D01*
X208429586Y-107767981D01*
X208409298Y-107795905D01*
X208395580Y-107821276D01*
X208356859Y-107868082D01*
X208318261Y-107921207D01*
X208297284Y-107940095D01*
X208282952Y-107957419D01*
X208230845Y-107999917D01*
X208177511Y-108047939D01*
X208158524Y-108058901D01*
X208146025Y-108069095D01*
X208080780Y-108103786D01*
X208013488Y-108142637D01*
X207998636Y-108147463D01*
X207990003Y-108152053D01*
X207912430Y-108175473D01*
X207833360Y-108201165D01*
X207824114Y-108202137D01*
X207820851Y-108203122D01*
X207729710Y-108212059D01*
X207692211Y-108216000D01*
X207597789Y-108216000D01*
X207456640Y-108201165D01*
X207375603Y-108174834D01*
X207288337Y-108147152D01*
X207285345Y-108145507D01*
X207276512Y-108142637D01*
X207204534Y-108101081D01*
X207133501Y-108062030D01*
X207126014Y-108055747D01*
X207112489Y-108047939D01*
X207054741Y-107995943D01*
X206998143Y-107948451D01*
X206988038Y-107935882D01*
X206971739Y-107921207D01*
X206929546Y-107863133D01*
X206887421Y-107810740D01*
X206877006Y-107790818D01*
X206860414Y-107767981D01*
X206833703Y-107707988D01*
X206805561Y-107654157D01*
X206797418Y-107626490D01*
X206783379Y-107594958D01*
X206771008Y-107536759D01*
X206755672Y-107484651D01*
X206752482Y-107449599D01*
X206744001Y-107409699D01*
X206744001Y-107356408D01*
X206739657Y-107308676D01*
X206744001Y-107267347D01*
X206744001Y-107220301D01*
X206753783Y-107174279D01*
X206758127Y-107132953D01*
X206772298Y-107087173D01*
X206783379Y-107035042D01*
X206799972Y-106997774D01*
X206810378Y-106964157D01*
X206836211Y-106916380D01*
X206860414Y-106862019D01*
X206880702Y-106834095D01*
X206894420Y-106808724D01*
X206933141Y-106761918D01*
X206971739Y-106708793D01*
X206992716Y-106689905D01*
X207007048Y-106672581D01*
X207059155Y-106630083D01*
X207112489Y-106582061D01*
X207131476Y-106571099D01*
X207143975Y-106560905D01*
X207209220Y-106526214D01*
X207276512Y-106487363D01*
X207291364Y-106482537D01*
X207299997Y-106477947D01*
X207377570Y-106454527D01*
X207456640Y-106428835D01*
X207465886Y-106427863D01*
X207469149Y-106426878D01*
X207560290Y-106417941D01*
X207597789Y-106414000D01*
X207692211Y-106414000D01*
X207833360Y-106428835D01*
X207833360Y-106428835D01*
G37*
G36*
X201939157Y-105277794D02*
G01*
X201993764Y-105275887D01*
X202051626Y-105283197D01*
X202115961Y-105286287D01*
X202169288Y-105298060D01*
X202217430Y-105304142D01*
X202279258Y-105322339D01*
X202348128Y-105337544D01*
X202393047Y-105355829D01*
X202433709Y-105367797D01*
X202497351Y-105398289D01*
X202568340Y-105427187D01*
X202604327Y-105449543D01*
X202637022Y-105465208D01*
X202699994Y-105508975D01*
X202770300Y-105552651D01*
X202797423Y-105576689D01*
X202822151Y-105593876D01*
X202881712Y-105651394D01*
X202948233Y-105710350D01*
X202967079Y-105733832D01*
X202984327Y-105750488D01*
X203037597Y-105821696D01*
X203097051Y-105895774D01*
X203108689Y-105916726D01*
X203119376Y-105931012D01*
X203163429Y-106015277D01*
X203212500Y-106103622D01*
X203218405Y-106120436D01*
X203223823Y-106130800D01*
X203255765Y-106226820D01*
X203291279Y-106327949D01*
X203293238Y-106339468D01*
X203294988Y-106344730D01*
X203312172Y-106450827D01*
X203331134Y-106562344D01*
X203328362Y-106826974D01*
X203307096Y-106937929D01*
X203287668Y-107043785D01*
X203285804Y-107049020D01*
X203283607Y-107060482D01*
X203246015Y-107160760D01*
X203212040Y-107256172D01*
X203206403Y-107266425D01*
X203200148Y-107283111D01*
X203149233Y-107370417D01*
X203103428Y-107453735D01*
X203092446Y-107467791D01*
X203080372Y-107488495D01*
X203019378Y-107561315D01*
X202964630Y-107631388D01*
X202947038Y-107647678D01*
X202927703Y-107670762D01*
X202859965Y-107728310D01*
X202799208Y-107784571D01*
X202774120Y-107801239D01*
X202746506Y-107824699D01*
X202675311Y-107866888D01*
X202611430Y-107909330D01*
X202578414Y-107924307D01*
X202541963Y-107945907D01*
X202470385Y-107973312D01*
X202406117Y-108002465D01*
X202365208Y-108013580D01*
X202319922Y-108030918D01*
X202250749Y-108044677D01*
X202188555Y-108061575D01*
X202140300Y-108066647D01*
X202086733Y-108077302D01*
X202022349Y-108079044D01*
X201964342Y-108085141D01*
X201909778Y-108082090D01*
X201849061Y-108083733D01*
X201791351Y-108075468D01*
X201739244Y-108072555D01*
X201679905Y-108059509D01*
X201613704Y-108050028D01*
X201564032Y-108034032D01*
X201519053Y-108024143D01*
X201456870Y-107999523D01*
X201387391Y-107977149D01*
X201346562Y-107955849D01*
X201309438Y-107941151D01*
X201246723Y-107903765D01*
X201176593Y-107867180D01*
X201144820Y-107843019D01*
X201115787Y-107825712D01*
X201055161Y-107774841D01*
X200987337Y-107723266D01*
X200964275Y-107698578D01*
X200943083Y-107680796D01*
X200887378Y-107616261D01*
X200825034Y-107549522D01*
X200809830Y-107526419D01*
X200795769Y-107510130D01*
X200747889Y-107432303D01*
X200694326Y-107350916D01*
X200685698Y-107331214D01*
X200677635Y-107318108D01*
X200640454Y-107227901D01*
X200598950Y-107133127D01*
X200595247Y-107118221D01*
X200591724Y-107109673D01*
X200568028Y-107008643D01*
X200541632Y-106902381D01*
X200540949Y-106893191D01*
X200540243Y-106890181D01*
X200532554Y-106780219D01*
X200524012Y-106665276D01*
X200534980Y-106550318D01*
X200544951Y-106440758D01*
X200545718Y-106437769D01*
X200546594Y-106428592D01*
X200575231Y-106322825D01*
X200601018Y-106222391D01*
X200604716Y-106213928D01*
X200608731Y-106199097D01*
X200652214Y-106105206D01*
X200691273Y-106015804D01*
X200699611Y-106002866D01*
X200708648Y-105983353D01*
X200763893Y-105903120D01*
X200813403Y-105826297D01*
X200827804Y-105810303D01*
X200843486Y-105787528D01*
X200907201Y-105722123D01*
X200964258Y-105658754D01*
X200985822Y-105641416D01*
X201009392Y-105617221D01*
X201078275Y-105567083D01*
X201139957Y-105517489D01*
X201169345Y-105500794D01*
X201201620Y-105477302D01*
X201272503Y-105442192D01*
X201335986Y-105406129D01*
X201373412Y-105392210D01*
X201414675Y-105371772D01*
X201484594Y-105350862D01*
X201547294Y-105327544D01*
X201592486Y-105318596D01*
X201642465Y-105303649D01*
X201708830Y-105295559D01*
X201768445Y-105283755D01*
X201820605Y-105281934D01*
X201878477Y-105274879D01*
X201939157Y-105277794D01*
X201939157Y-105277794D01*
G37*
G36*
X220026000Y-105266000D02*
G01*
X218124000Y-105266000D01*
X218124000Y-101664000D01*
X220026000Y-101664000D01*
X220026000Y-105266000D01*
X220026000Y-105266000D01*
G37*
G36*
X207833360Y-102618835D02*
G01*
X207914397Y-102645166D01*
X208001663Y-102672848D01*
X208004655Y-102674493D01*
X208013488Y-102677363D01*
X208085466Y-102718919D01*
X208156499Y-102757970D01*
X208163986Y-102764253D01*
X208177511Y-102772061D01*
X208235259Y-102824057D01*
X208291857Y-102871549D01*
X208301962Y-102884118D01*
X208318261Y-102898793D01*
X208360454Y-102956867D01*
X208402579Y-103009260D01*
X208412994Y-103029182D01*
X208429586Y-103052019D01*
X208456297Y-103112012D01*
X208484439Y-103165843D01*
X208492582Y-103193510D01*
X208506621Y-103225042D01*
X208518992Y-103283241D01*
X208534328Y-103335349D01*
X208537518Y-103370401D01*
X208545999Y-103410301D01*
X208545999Y-103463592D01*
X208550343Y-103511324D01*
X208545999Y-103552653D01*
X208545999Y-103599699D01*
X208536217Y-103645721D01*
X208531873Y-103687047D01*
X208517702Y-103732827D01*
X208506621Y-103784958D01*
X208490028Y-103822226D01*
X208479622Y-103855843D01*
X208453789Y-103903620D01*
X208429586Y-103957981D01*
X208409298Y-103985905D01*
X208395580Y-104011276D01*
X208356859Y-104058082D01*
X208318261Y-104111207D01*
X208297284Y-104130095D01*
X208282952Y-104147419D01*
X208230845Y-104189917D01*
X208177511Y-104237939D01*
X208158524Y-104248901D01*
X208146025Y-104259095D01*
X208080780Y-104293786D01*
X208013488Y-104332637D01*
X207998636Y-104337463D01*
X207990003Y-104342053D01*
X207912430Y-104365473D01*
X207833360Y-104391165D01*
X207824114Y-104392137D01*
X207820851Y-104393122D01*
X207729710Y-104402059D01*
X207692211Y-104406000D01*
X207597789Y-104406000D01*
X207456640Y-104391165D01*
X207375603Y-104364834D01*
X207288337Y-104337152D01*
X207285345Y-104335507D01*
X207276512Y-104332637D01*
X207204534Y-104291081D01*
X207133501Y-104252030D01*
X207126014Y-104245747D01*
X207112489Y-104237939D01*
X207054741Y-104185943D01*
X206998143Y-104138451D01*
X206988038Y-104125882D01*
X206971739Y-104111207D01*
X206929546Y-104053133D01*
X206887421Y-104000740D01*
X206877006Y-103980818D01*
X206860414Y-103957981D01*
X206833703Y-103897988D01*
X206805561Y-103844157D01*
X206797418Y-103816490D01*
X206783379Y-103784958D01*
X206771008Y-103726759D01*
X206755672Y-103674651D01*
X206752482Y-103639599D01*
X206744001Y-103599699D01*
X206744001Y-103546408D01*
X206739657Y-103498676D01*
X206744001Y-103457347D01*
X206744001Y-103410301D01*
X206753783Y-103364279D01*
X206758127Y-103322953D01*
X206772298Y-103277173D01*
X206783379Y-103225042D01*
X206799972Y-103187774D01*
X206810378Y-103154157D01*
X206836211Y-103106380D01*
X206860414Y-103052019D01*
X206880702Y-103024095D01*
X206894420Y-102998724D01*
X206933141Y-102951918D01*
X206971739Y-102898793D01*
X206992716Y-102879905D01*
X207007048Y-102862581D01*
X207059155Y-102820083D01*
X207112489Y-102772061D01*
X207131476Y-102761099D01*
X207143975Y-102750905D01*
X207209220Y-102716214D01*
X207276512Y-102677363D01*
X207291364Y-102672537D01*
X207299997Y-102667947D01*
X207377570Y-102644527D01*
X207456640Y-102618835D01*
X207465886Y-102617863D01*
X207469149Y-102616878D01*
X207560290Y-102607941D01*
X207597789Y-102604000D01*
X207692211Y-102604000D01*
X207833360Y-102618835D01*
X207833360Y-102618835D01*
G37*
G36*
X210373360Y-102618835D02*
G01*
X210454397Y-102645166D01*
X210541663Y-102672848D01*
X210544655Y-102674493D01*
X210553488Y-102677363D01*
X210625466Y-102718919D01*
X210696499Y-102757970D01*
X210703986Y-102764253D01*
X210717511Y-102772061D01*
X210775259Y-102824057D01*
X210831857Y-102871549D01*
X210841962Y-102884118D01*
X210858261Y-102898793D01*
X210900454Y-102956867D01*
X210942579Y-103009260D01*
X210952994Y-103029182D01*
X210969586Y-103052019D01*
X210996297Y-103112012D01*
X211024439Y-103165843D01*
X211032582Y-103193510D01*
X211046621Y-103225042D01*
X211058992Y-103283241D01*
X211074328Y-103335349D01*
X211077518Y-103370401D01*
X211085999Y-103410301D01*
X211085999Y-103463592D01*
X211090343Y-103511324D01*
X211085999Y-103552653D01*
X211085999Y-103599699D01*
X211076217Y-103645721D01*
X211071873Y-103687047D01*
X211057702Y-103732827D01*
X211046621Y-103784958D01*
X211030028Y-103822226D01*
X211019622Y-103855843D01*
X210993789Y-103903620D01*
X210969586Y-103957981D01*
X210949298Y-103985905D01*
X210935580Y-104011276D01*
X210896859Y-104058082D01*
X210858261Y-104111207D01*
X210837284Y-104130095D01*
X210822952Y-104147419D01*
X210770845Y-104189917D01*
X210717511Y-104237939D01*
X210698524Y-104248901D01*
X210686025Y-104259095D01*
X210620780Y-104293786D01*
X210553488Y-104332637D01*
X210538636Y-104337463D01*
X210530003Y-104342053D01*
X210452430Y-104365473D01*
X210373360Y-104391165D01*
X210364114Y-104392137D01*
X210360851Y-104393122D01*
X210269710Y-104402059D01*
X210232211Y-104406000D01*
X210137789Y-104406000D01*
X209996640Y-104391165D01*
X209915603Y-104364834D01*
X209828337Y-104337152D01*
X209825345Y-104335507D01*
X209816512Y-104332637D01*
X209744534Y-104291081D01*
X209673501Y-104252030D01*
X209666014Y-104245747D01*
X209652489Y-104237939D01*
X209594741Y-104185943D01*
X209538143Y-104138451D01*
X209528038Y-104125882D01*
X209511739Y-104111207D01*
X209469546Y-104053133D01*
X209427421Y-104000740D01*
X209417006Y-103980818D01*
X209400414Y-103957981D01*
X209373703Y-103897988D01*
X209345561Y-103844157D01*
X209337418Y-103816490D01*
X209323379Y-103784958D01*
X209311008Y-103726759D01*
X209295672Y-103674651D01*
X209292482Y-103639599D01*
X209284001Y-103599699D01*
X209284001Y-103546408D01*
X209279657Y-103498676D01*
X209284001Y-103457347D01*
X209284001Y-103410301D01*
X209293783Y-103364279D01*
X209298127Y-103322953D01*
X209312298Y-103277173D01*
X209323379Y-103225042D01*
X209339972Y-103187774D01*
X209350378Y-103154157D01*
X209376211Y-103106380D01*
X209400414Y-103052019D01*
X209420702Y-103024095D01*
X209434420Y-102998724D01*
X209473141Y-102951918D01*
X209511739Y-102898793D01*
X209532716Y-102879905D01*
X209547048Y-102862581D01*
X209599155Y-102820083D01*
X209652489Y-102772061D01*
X209671476Y-102761099D01*
X209683975Y-102750905D01*
X209749220Y-102716214D01*
X209816512Y-102677363D01*
X209831364Y-102672537D01*
X209839997Y-102667947D01*
X209917570Y-102644527D01*
X209996640Y-102618835D01*
X210005886Y-102617863D01*
X210009149Y-102616878D01*
X210100290Y-102607941D01*
X210137789Y-102604000D01*
X210232211Y-102604000D01*
X210373360Y-102618835D01*
X210373360Y-102618835D01*
G37*
G36*
X212913360Y-102618835D02*
G01*
X212994397Y-102645166D01*
X213081663Y-102672848D01*
X213084655Y-102674493D01*
X213093488Y-102677363D01*
X213165466Y-102718919D01*
X213236499Y-102757970D01*
X213243986Y-102764253D01*
X213257511Y-102772061D01*
X213315259Y-102824057D01*
X213371857Y-102871549D01*
X213381962Y-102884118D01*
X213398261Y-102898793D01*
X213440454Y-102956867D01*
X213482579Y-103009260D01*
X213492994Y-103029182D01*
X213509586Y-103052019D01*
X213536297Y-103112012D01*
X213564439Y-103165843D01*
X213572582Y-103193510D01*
X213586621Y-103225042D01*
X213598992Y-103283241D01*
X213614328Y-103335349D01*
X213617518Y-103370401D01*
X213625999Y-103410301D01*
X213625999Y-103463592D01*
X213630343Y-103511324D01*
X213625999Y-103552653D01*
X213625999Y-103599699D01*
X213616217Y-103645721D01*
X213611873Y-103687047D01*
X213597702Y-103732827D01*
X213586621Y-103784958D01*
X213570028Y-103822226D01*
X213559622Y-103855843D01*
X213533789Y-103903620D01*
X213509586Y-103957981D01*
X213489298Y-103985905D01*
X213475580Y-104011276D01*
X213436859Y-104058082D01*
X213398261Y-104111207D01*
X213377284Y-104130095D01*
X213362952Y-104147419D01*
X213310845Y-104189917D01*
X213257511Y-104237939D01*
X213238524Y-104248901D01*
X213226025Y-104259095D01*
X213160780Y-104293786D01*
X213093488Y-104332637D01*
X213078636Y-104337463D01*
X213070003Y-104342053D01*
X212992430Y-104365473D01*
X212913360Y-104391165D01*
X212904114Y-104392137D01*
X212900851Y-104393122D01*
X212809710Y-104402059D01*
X212772211Y-104406000D01*
X212677789Y-104406000D01*
X212536640Y-104391165D01*
X212455603Y-104364834D01*
X212368337Y-104337152D01*
X212365345Y-104335507D01*
X212356512Y-104332637D01*
X212284534Y-104291081D01*
X212213501Y-104252030D01*
X212206014Y-104245747D01*
X212192489Y-104237939D01*
X212134741Y-104185943D01*
X212078143Y-104138451D01*
X212068038Y-104125882D01*
X212051739Y-104111207D01*
X212009546Y-104053133D01*
X211967421Y-104000740D01*
X211957006Y-103980818D01*
X211940414Y-103957981D01*
X211913703Y-103897988D01*
X211885561Y-103844157D01*
X211877418Y-103816490D01*
X211863379Y-103784958D01*
X211851008Y-103726759D01*
X211835672Y-103674651D01*
X211832482Y-103639599D01*
X211824001Y-103599699D01*
X211824001Y-103546408D01*
X211819657Y-103498676D01*
X211824001Y-103457347D01*
X211824001Y-103410301D01*
X211833783Y-103364279D01*
X211838127Y-103322953D01*
X211852298Y-103277173D01*
X211863379Y-103225042D01*
X211879972Y-103187774D01*
X211890378Y-103154157D01*
X211916211Y-103106380D01*
X211940414Y-103052019D01*
X211960702Y-103024095D01*
X211974420Y-102998724D01*
X212013141Y-102951918D01*
X212051739Y-102898793D01*
X212072716Y-102879905D01*
X212087048Y-102862581D01*
X212139155Y-102820083D01*
X212192489Y-102772061D01*
X212211476Y-102761099D01*
X212223975Y-102750905D01*
X212289220Y-102716214D01*
X212356512Y-102677363D01*
X212371364Y-102672537D01*
X212379997Y-102667947D01*
X212457570Y-102644527D01*
X212536640Y-102618835D01*
X212545886Y-102617863D01*
X212549149Y-102616878D01*
X212640290Y-102607941D01*
X212677789Y-102604000D01*
X212772211Y-102604000D01*
X212913360Y-102618835D01*
X212913360Y-102618835D01*
G37*
G36*
X216166000Y-104406000D02*
G01*
X214364000Y-104406000D01*
X214364000Y-102604000D01*
X216166000Y-102604000D01*
X216166000Y-104406000D01*
X216166000Y-104406000D01*
G37*
G36*
X220026000Y-100266000D02*
G01*
X218124000Y-100266000D01*
X218124000Y-96664000D01*
X220026000Y-96664000D01*
X220026000Y-100266000D01*
X220026000Y-100266000D01*
G37*
G36*
X213286945Y-97774094D02*
G01*
X213342571Y-97774482D01*
X213360701Y-97778734D01*
X213387955Y-97780449D01*
X213439718Y-97797268D01*
X213484763Y-97807833D01*
X213509764Y-97820027D01*
X213544385Y-97831276D01*
X213582764Y-97855632D01*
X213616034Y-97871859D01*
X213644882Y-97895053D01*
X213683261Y-97919409D01*
X213708181Y-97945946D01*
X213729857Y-97963374D01*
X213758591Y-97999627D01*
X213795856Y-98039311D01*
X213809016Y-98063249D01*
X213820579Y-98077838D01*
X213844610Y-98127994D01*
X213875095Y-98183446D01*
X213879617Y-98201059D01*
X213883685Y-98209549D01*
X213898192Y-98273404D01*
X213916000Y-98342760D01*
X213916000Y-98507240D01*
X213913533Y-98516850D01*
X213913530Y-98517034D01*
X213877429Y-98657640D01*
X213877339Y-98657816D01*
X213875095Y-98666554D01*
X213840611Y-98729280D01*
X213810670Y-98787539D01*
X213804617Y-98794752D01*
X213795856Y-98810689D01*
X213752535Y-98856822D01*
X213716787Y-98899424D01*
X213701960Y-98910678D01*
X213683261Y-98930591D01*
X213637297Y-98959761D01*
X213600454Y-98987726D01*
X213575125Y-98999216D01*
X213544385Y-99018724D01*
X213501157Y-99032770D01*
X213467443Y-99048063D01*
X213431179Y-99055507D01*
X213387955Y-99069551D01*
X213351621Y-99071837D01*
X213324378Y-99077429D01*
X213278132Y-99076461D01*
X213223798Y-99079879D01*
X213196967Y-99074761D01*
X213178354Y-99074371D01*
X213124393Y-99060917D01*
X213062231Y-99049059D01*
X213045773Y-99041314D01*
X213036639Y-99039037D01*
X212978184Y-99009509D01*
X212913404Y-98979026D01*
X212906452Y-98973275D01*
X212906276Y-98973186D01*
X212793743Y-98880091D01*
X212793621Y-98879932D01*
X212786670Y-98874182D01*
X212744599Y-98816276D01*
X212704627Y-98764372D01*
X212700677Y-98755823D01*
X212689990Y-98741114D01*
X212666699Y-98682288D01*
X212643368Y-98631794D01*
X212639497Y-98613583D01*
X212629441Y-98588184D01*
X212622617Y-98534168D01*
X212613001Y-98488927D01*
X212613389Y-98461122D01*
X212608826Y-98425000D01*
X212614523Y-98379902D01*
X212615040Y-98342890D01*
X212623744Y-98306912D01*
X212629441Y-98261816D01*
X212642843Y-98227966D01*
X212649383Y-98200933D01*
X212669951Y-98159499D01*
X212689990Y-98108886D01*
X212706044Y-98086789D01*
X212714323Y-98070112D01*
X212749479Y-98027007D01*
X212786670Y-97975818D01*
X212800682Y-97964226D01*
X212806631Y-97956932D01*
X212858222Y-97916624D01*
X212913404Y-97870974D01*
X212921572Y-97867131D01*
X212921726Y-97867010D01*
X213053874Y-97804826D01*
X213054064Y-97804784D01*
X213062231Y-97800941D01*
X213132577Y-97787522D01*
X213196521Y-97773463D01*
X213205934Y-97773529D01*
X213223798Y-97770121D01*
X213286945Y-97774094D01*
X213286945Y-97774094D01*
G37*
G36*
X215916000Y-99076000D02*
G01*
X214614000Y-99076000D01*
X214614000Y-97774000D01*
X215916000Y-97774000D01*
X215916000Y-99076000D01*
X215916000Y-99076000D01*
G37*
G36*
X219113984Y-93814162D02*
G01*
X219147721Y-93814339D01*
X219183401Y-93823301D01*
X219225365Y-93828826D01*
X219256133Y-93841570D01*
X219282936Y-93848303D01*
X219320847Y-93868376D01*
X219365484Y-93886865D01*
X219387115Y-93903463D01*
X219406149Y-93913541D01*
X219442766Y-93946165D01*
X219485808Y-93979192D01*
X219498716Y-93996013D01*
X219510242Y-94006283D01*
X219541549Y-94051836D01*
X219578135Y-94099515D01*
X219583924Y-94113492D01*
X219589209Y-94121181D01*
X219611040Y-94178956D01*
X219636174Y-94239634D01*
X219637353Y-94248590D01*
X219638487Y-94251591D01*
X219646888Y-94321014D01*
X219651000Y-94352249D01*
X219651000Y-94877750D01*
X219636174Y-94990366D01*
X219610090Y-95053338D01*
X219586365Y-95114189D01*
X219582761Y-95119317D01*
X219578135Y-95130485D01*
X219539802Y-95180441D01*
X219506199Y-95228254D01*
X219496869Y-95236393D01*
X219485808Y-95250808D01*
X219440427Y-95285630D01*
X219401140Y-95319902D01*
X219384713Y-95328381D01*
X219365485Y-95343135D01*
X219318105Y-95362761D01*
X219277253Y-95383846D01*
X219253340Y-95389587D01*
X219225366Y-95401174D01*
X219180438Y-95407089D01*
X219141691Y-95416391D01*
X219111002Y-95416230D01*
X219075000Y-95420970D01*
X219036016Y-95415838D01*
X219002279Y-95415661D01*
X218966599Y-95406699D01*
X218924635Y-95401174D01*
X218893867Y-95388430D01*
X218867064Y-95381697D01*
X218829153Y-95361624D01*
X218784516Y-95343135D01*
X218762885Y-95326537D01*
X218743851Y-95316459D01*
X218707230Y-95283832D01*
X218664193Y-95250808D01*
X218651288Y-95233989D01*
X218639758Y-95223717D01*
X218608443Y-95178153D01*
X218571866Y-95130485D01*
X218566077Y-95116510D01*
X218560792Y-95108820D01*
X218556624Y-95097790D01*
X218514174Y-95041587D01*
X218448077Y-95017257D01*
X218379319Y-95032524D01*
X218323234Y-95096569D01*
X218316363Y-95114192D01*
X218312761Y-95119318D01*
X218308135Y-95130485D01*
X218269803Y-95180440D01*
X218236199Y-95228254D01*
X218226869Y-95236393D01*
X218215808Y-95250808D01*
X218170427Y-95285630D01*
X218131140Y-95319902D01*
X218114713Y-95328381D01*
X218095485Y-95343135D01*
X218048105Y-95362761D01*
X218007253Y-95383846D01*
X217983340Y-95389587D01*
X217955366Y-95401174D01*
X217910438Y-95407089D01*
X217871691Y-95416391D01*
X217841002Y-95416230D01*
X217805000Y-95420970D01*
X217766016Y-95415838D01*
X217732279Y-95415661D01*
X217696599Y-95406699D01*
X217654635Y-95401174D01*
X217623867Y-95388430D01*
X217597064Y-95381697D01*
X217559153Y-95361624D01*
X217514516Y-95343135D01*
X217492885Y-95326537D01*
X217473851Y-95316459D01*
X217437230Y-95283832D01*
X217394193Y-95250808D01*
X217381288Y-95233989D01*
X217369758Y-95223717D01*
X217339014Y-95178984D01*
X217284383Y-95134529D01*
X217214391Y-95126667D01*
X217151259Y-95157894D01*
X217111000Y-95249784D01*
X217111000Y-95416000D01*
X215959000Y-95416000D01*
X215959000Y-93814000D01*
X217111000Y-93814000D01*
X217111000Y-93980432D01*
X217130843Y-94048012D01*
X217184073Y-94094135D01*
X217253788Y-94104159D01*
X217337931Y-94052513D01*
X217340202Y-94049554D01*
X217373801Y-94001747D01*
X217383129Y-93993610D01*
X217394192Y-93979192D01*
X217439576Y-93944367D01*
X217478860Y-93910098D01*
X217495287Y-93901619D01*
X217514515Y-93886865D01*
X217561895Y-93867239D01*
X217602747Y-93846154D01*
X217626660Y-93840413D01*
X217654634Y-93828826D01*
X217699562Y-93822911D01*
X217738309Y-93813609D01*
X217768998Y-93813770D01*
X217805000Y-93809030D01*
X217843984Y-93814162D01*
X217877721Y-93814339D01*
X217913401Y-93823301D01*
X217955365Y-93828826D01*
X217986133Y-93841570D01*
X218012936Y-93848303D01*
X218050847Y-93868376D01*
X218095484Y-93886865D01*
X218117115Y-93903463D01*
X218136149Y-93913541D01*
X218172766Y-93946165D01*
X218215808Y-93979192D01*
X218228716Y-93996013D01*
X218240242Y-94006283D01*
X218271548Y-94051834D01*
X218308135Y-94099515D01*
X218313925Y-94113493D01*
X218319206Y-94121177D01*
X218323375Y-94132210D01*
X218365825Y-94188413D01*
X218431921Y-94212744D01*
X218500680Y-94197478D01*
X218556766Y-94133432D01*
X218563637Y-94115809D01*
X218567239Y-94110683D01*
X218571865Y-94099516D01*
X218610201Y-94049556D01*
X218643801Y-94001747D01*
X218653129Y-93993610D01*
X218664192Y-93979192D01*
X218709576Y-93944367D01*
X218748860Y-93910098D01*
X218765287Y-93901619D01*
X218784515Y-93886865D01*
X218831895Y-93867239D01*
X218872747Y-93846154D01*
X218896660Y-93840413D01*
X218924634Y-93828826D01*
X218969562Y-93822911D01*
X219008309Y-93813609D01*
X219038998Y-93813770D01*
X219075000Y-93809030D01*
X219113984Y-93814162D01*
X219113984Y-93814162D01*
G37*
G36*
X214242743Y-93877965D02*
G01*
X214302775Y-93912625D01*
X214343686Y-93961381D01*
X214376000Y-94081978D01*
X214376000Y-95153542D01*
X214362035Y-95232743D01*
X214327375Y-95292775D01*
X214278619Y-95333686D01*
X214158022Y-95366000D01*
X213336458Y-95366000D01*
X213257257Y-95352035D01*
X213197225Y-95317375D01*
X213156314Y-95268619D01*
X213124000Y-95148022D01*
X213124000Y-94076458D01*
X213137965Y-93997257D01*
X213172625Y-93937225D01*
X213221381Y-93896314D01*
X213341978Y-93864000D01*
X214163542Y-93864000D01*
X214242743Y-93877965D01*
X214242743Y-93877965D01*
G37*
G36*
X212192743Y-93877965D02*
G01*
X212252775Y-93912625D01*
X212293686Y-93961381D01*
X212326000Y-94081978D01*
X212326000Y-95153542D01*
X212312035Y-95232743D01*
X212277375Y-95292775D01*
X212228619Y-95333686D01*
X212108022Y-95366000D01*
X211286458Y-95366000D01*
X211207257Y-95352035D01*
X211147225Y-95317375D01*
X211106314Y-95268619D01*
X211074000Y-95148022D01*
X211074000Y-94076458D01*
X211087965Y-93997257D01*
X211122625Y-93937225D01*
X211171381Y-93896314D01*
X211291978Y-93864000D01*
X212113542Y-93864000D01*
X212192743Y-93877965D01*
X212192743Y-93877965D01*
G37*
G36*
X204658360Y-88013835D02*
G01*
X204739397Y-88040166D01*
X204826663Y-88067848D01*
X204829655Y-88069493D01*
X204838488Y-88072363D01*
X204910466Y-88113919D01*
X204981499Y-88152970D01*
X204988986Y-88159253D01*
X205002511Y-88167061D01*
X205060259Y-88219057D01*
X205116857Y-88266549D01*
X205126962Y-88279118D01*
X205143261Y-88293793D01*
X205185454Y-88351867D01*
X205227579Y-88404260D01*
X205237994Y-88424182D01*
X205254586Y-88447019D01*
X205281297Y-88507012D01*
X205309439Y-88560843D01*
X205317582Y-88588510D01*
X205331621Y-88620042D01*
X205343992Y-88678241D01*
X205359328Y-88730349D01*
X205362518Y-88765401D01*
X205370999Y-88805301D01*
X205370999Y-88858592D01*
X205375343Y-88906324D01*
X205370999Y-88947653D01*
X205370999Y-88994699D01*
X205361217Y-89040721D01*
X205356873Y-89082047D01*
X205342702Y-89127827D01*
X205331621Y-89179958D01*
X205315028Y-89217226D01*
X205304622Y-89250843D01*
X205278789Y-89298620D01*
X205254586Y-89352981D01*
X205234298Y-89380905D01*
X205220580Y-89406276D01*
X205181859Y-89453082D01*
X205143261Y-89506207D01*
X205122284Y-89525095D01*
X205107952Y-89542419D01*
X205055845Y-89584917D01*
X205002511Y-89632939D01*
X204983524Y-89643901D01*
X204971025Y-89654095D01*
X204905780Y-89688786D01*
X204838488Y-89727637D01*
X204823636Y-89732463D01*
X204815003Y-89737053D01*
X204737430Y-89760473D01*
X204658360Y-89786165D01*
X204649114Y-89787137D01*
X204645851Y-89788122D01*
X204554710Y-89797059D01*
X204517211Y-89801000D01*
X204422789Y-89801000D01*
X204281640Y-89786165D01*
X204200603Y-89759834D01*
X204113337Y-89732152D01*
X204110345Y-89730507D01*
X204101512Y-89727637D01*
X204029534Y-89686081D01*
X203958501Y-89647030D01*
X203951014Y-89640747D01*
X203937489Y-89632939D01*
X203879741Y-89580943D01*
X203823143Y-89533451D01*
X203813038Y-89520882D01*
X203796739Y-89506207D01*
X203754546Y-89448133D01*
X203712421Y-89395740D01*
X203702006Y-89375818D01*
X203685414Y-89352981D01*
X203658703Y-89292988D01*
X203630561Y-89239157D01*
X203622418Y-89211490D01*
X203608379Y-89179958D01*
X203596008Y-89121759D01*
X203580672Y-89069651D01*
X203577482Y-89034599D01*
X203569001Y-88994699D01*
X203569001Y-88941408D01*
X203564657Y-88893676D01*
X203569001Y-88852347D01*
X203569001Y-88805301D01*
X203578783Y-88759279D01*
X203583127Y-88717953D01*
X203597298Y-88672173D01*
X203608379Y-88620042D01*
X203624972Y-88582774D01*
X203635378Y-88549157D01*
X203661211Y-88501380D01*
X203685414Y-88447019D01*
X203705702Y-88419095D01*
X203719420Y-88393724D01*
X203758141Y-88346918D01*
X203796739Y-88293793D01*
X203817716Y-88274905D01*
X203832048Y-88257581D01*
X203884155Y-88215083D01*
X203937489Y-88167061D01*
X203956476Y-88156099D01*
X203968975Y-88145905D01*
X204034220Y-88111214D01*
X204101512Y-88072363D01*
X204116364Y-88067537D01*
X204124997Y-88062947D01*
X204202570Y-88039527D01*
X204281640Y-88013835D01*
X204290886Y-88012863D01*
X204294149Y-88011878D01*
X204385290Y-88002941D01*
X204422789Y-87999000D01*
X204517211Y-87999000D01*
X204658360Y-88013835D01*
X204658360Y-88013835D01*
G37*
G36*
X209717826Y-88561321D02*
G01*
X209754899Y-88588256D01*
X209779514Y-88630891D01*
X209786000Y-88671839D01*
X209786000Y-89124859D01*
X209773679Y-89182826D01*
X209746744Y-89219899D01*
X209704109Y-89244514D01*
X209663161Y-89251000D01*
X207760141Y-89251000D01*
X207702174Y-89238679D01*
X207665101Y-89211744D01*
X207640486Y-89169109D01*
X207634000Y-89128161D01*
X207634000Y-88675141D01*
X207646321Y-88617174D01*
X207673256Y-88580101D01*
X207715891Y-88555486D01*
X207756839Y-88549000D01*
X209659859Y-88549000D01*
X209717826Y-88561321D01*
X209717826Y-88561321D01*
G37*
G36*
X219017826Y-88561321D02*
G01*
X219054899Y-88588256D01*
X219079514Y-88630891D01*
X219086000Y-88671839D01*
X219086000Y-89124859D01*
X219073679Y-89182826D01*
X219046744Y-89219899D01*
X219004109Y-89244514D01*
X218963161Y-89251000D01*
X217060141Y-89251000D01*
X217002174Y-89238679D01*
X216965101Y-89211744D01*
X216940486Y-89169109D01*
X216934000Y-89128161D01*
X216934000Y-88675141D01*
X216946321Y-88617174D01*
X216973256Y-88580101D01*
X217015891Y-88555486D01*
X217056839Y-88549000D01*
X218959859Y-88549000D01*
X219017826Y-88561321D01*
X219017826Y-88561321D01*
G37*
G36*
X219017826Y-87291321D02*
G01*
X219054899Y-87318256D01*
X219079514Y-87360891D01*
X219086000Y-87401839D01*
X219086000Y-87854859D01*
X219073679Y-87912826D01*
X219046744Y-87949899D01*
X219004109Y-87974514D01*
X218963161Y-87981000D01*
X217060141Y-87981000D01*
X217002174Y-87968679D01*
X216965101Y-87941744D01*
X216940486Y-87899109D01*
X216934000Y-87858161D01*
X216934000Y-87405141D01*
X216946321Y-87347174D01*
X216973256Y-87310101D01*
X217015891Y-87285486D01*
X217056839Y-87279000D01*
X218959859Y-87279000D01*
X219017826Y-87291321D01*
X219017826Y-87291321D01*
G37*
G36*
X209717826Y-87291321D02*
G01*
X209754899Y-87318256D01*
X209779514Y-87360891D01*
X209786000Y-87401839D01*
X209786000Y-87854859D01*
X209773679Y-87912826D01*
X209746744Y-87949899D01*
X209704109Y-87974514D01*
X209663161Y-87981000D01*
X207760141Y-87981000D01*
X207702174Y-87968679D01*
X207665101Y-87941744D01*
X207640486Y-87899109D01*
X207634000Y-87858161D01*
X207634000Y-87405141D01*
X207646321Y-87347174D01*
X207673256Y-87310101D01*
X207715891Y-87285486D01*
X207756839Y-87279000D01*
X209659859Y-87279000D01*
X209717826Y-87291321D01*
X209717826Y-87291321D01*
G37*
G36*
X204658360Y-85473835D02*
G01*
X204739397Y-85500166D01*
X204826663Y-85527848D01*
X204829655Y-85529493D01*
X204838488Y-85532363D01*
X204910466Y-85573919D01*
X204981499Y-85612970D01*
X204988986Y-85619253D01*
X205002511Y-85627061D01*
X205060259Y-85679057D01*
X205116857Y-85726549D01*
X205126962Y-85739118D01*
X205143261Y-85753793D01*
X205185454Y-85811867D01*
X205227579Y-85864260D01*
X205237994Y-85884182D01*
X205254586Y-85907019D01*
X205281297Y-85967012D01*
X205309439Y-86020843D01*
X205317582Y-86048510D01*
X205331621Y-86080042D01*
X205343992Y-86138241D01*
X205359328Y-86190349D01*
X205362518Y-86225401D01*
X205370999Y-86265301D01*
X205370999Y-86318592D01*
X205375343Y-86366324D01*
X205370999Y-86407653D01*
X205370999Y-86454699D01*
X205361217Y-86500721D01*
X205356873Y-86542047D01*
X205342702Y-86587827D01*
X205331621Y-86639958D01*
X205315028Y-86677226D01*
X205304622Y-86710843D01*
X205278789Y-86758620D01*
X205254586Y-86812981D01*
X205234298Y-86840905D01*
X205220580Y-86866276D01*
X205181859Y-86913082D01*
X205143261Y-86966207D01*
X205122284Y-86985095D01*
X205107952Y-87002419D01*
X205055845Y-87044917D01*
X205002511Y-87092939D01*
X204983524Y-87103901D01*
X204971025Y-87114095D01*
X204905780Y-87148786D01*
X204838488Y-87187637D01*
X204823636Y-87192463D01*
X204815003Y-87197053D01*
X204737430Y-87220473D01*
X204658360Y-87246165D01*
X204649114Y-87247137D01*
X204645851Y-87248122D01*
X204554710Y-87257059D01*
X204517211Y-87261000D01*
X204422789Y-87261000D01*
X204281640Y-87246165D01*
X204200603Y-87219834D01*
X204113337Y-87192152D01*
X204110345Y-87190507D01*
X204101512Y-87187637D01*
X204029534Y-87146081D01*
X203958501Y-87107030D01*
X203951014Y-87100747D01*
X203937489Y-87092939D01*
X203879741Y-87040943D01*
X203823143Y-86993451D01*
X203813038Y-86980882D01*
X203796739Y-86966207D01*
X203754546Y-86908133D01*
X203712421Y-86855740D01*
X203702006Y-86835818D01*
X203685414Y-86812981D01*
X203658703Y-86752988D01*
X203630561Y-86699157D01*
X203622418Y-86671490D01*
X203608379Y-86639958D01*
X203596008Y-86581759D01*
X203580672Y-86529651D01*
X203577482Y-86494599D01*
X203569001Y-86454699D01*
X203569001Y-86401408D01*
X203564657Y-86353676D01*
X203569001Y-86312347D01*
X203569001Y-86265301D01*
X203578783Y-86219279D01*
X203583127Y-86177953D01*
X203597298Y-86132173D01*
X203608379Y-86080042D01*
X203624972Y-86042774D01*
X203635378Y-86009157D01*
X203661211Y-85961380D01*
X203685414Y-85907019D01*
X203705702Y-85879095D01*
X203719420Y-85853724D01*
X203758141Y-85806918D01*
X203796739Y-85753793D01*
X203817716Y-85734905D01*
X203832048Y-85717581D01*
X203884155Y-85675083D01*
X203937489Y-85627061D01*
X203956476Y-85616099D01*
X203968975Y-85605905D01*
X204034220Y-85571214D01*
X204101512Y-85532363D01*
X204116364Y-85527537D01*
X204124997Y-85522947D01*
X204202570Y-85499527D01*
X204281640Y-85473835D01*
X204290886Y-85472863D01*
X204294149Y-85471878D01*
X204385290Y-85462941D01*
X204422789Y-85459000D01*
X204517211Y-85459000D01*
X204658360Y-85473835D01*
X204658360Y-85473835D01*
G37*
G36*
X209717826Y-86021321D02*
G01*
X209754899Y-86048256D01*
X209779514Y-86090891D01*
X209786000Y-86131839D01*
X209786000Y-86584859D01*
X209773679Y-86642826D01*
X209746744Y-86679899D01*
X209704109Y-86704514D01*
X209663161Y-86711000D01*
X207760141Y-86711000D01*
X207702174Y-86698679D01*
X207665101Y-86671744D01*
X207640486Y-86629109D01*
X207634000Y-86588161D01*
X207634000Y-86135141D01*
X207646321Y-86077174D01*
X207673256Y-86040101D01*
X207715891Y-86015486D01*
X207756839Y-86009000D01*
X209659859Y-86009000D01*
X209717826Y-86021321D01*
X209717826Y-86021321D01*
G37*
G36*
X219017826Y-86021321D02*
G01*
X219054899Y-86048256D01*
X219079514Y-86090891D01*
X219086000Y-86131839D01*
X219086000Y-86584859D01*
X219073679Y-86642826D01*
X219046744Y-86679899D01*
X219004109Y-86704514D01*
X218963161Y-86711000D01*
X217060141Y-86711000D01*
X217002174Y-86698679D01*
X216965101Y-86671744D01*
X216940486Y-86629109D01*
X216934000Y-86588161D01*
X216934000Y-86135141D01*
X216946321Y-86077174D01*
X216973256Y-86040101D01*
X217015891Y-86015486D01*
X217056839Y-86009000D01*
X218959859Y-86009000D01*
X219017826Y-86021321D01*
X219017826Y-86021321D01*
G37*
G36*
X209717826Y-84751321D02*
G01*
X209754899Y-84778256D01*
X209779514Y-84820891D01*
X209786000Y-84861839D01*
X209786000Y-85314859D01*
X209773679Y-85372826D01*
X209746744Y-85409899D01*
X209704109Y-85434514D01*
X209663161Y-85441000D01*
X207760141Y-85441000D01*
X207702174Y-85428679D01*
X207665101Y-85401744D01*
X207640486Y-85359109D01*
X207634000Y-85318161D01*
X207634000Y-84865141D01*
X207646321Y-84807174D01*
X207673256Y-84770101D01*
X207715891Y-84745486D01*
X207756839Y-84739000D01*
X209659859Y-84739000D01*
X209717826Y-84751321D01*
X209717826Y-84751321D01*
G37*
G36*
X219017826Y-84751321D02*
G01*
X219054899Y-84778256D01*
X219079514Y-84820891D01*
X219086000Y-84861839D01*
X219086000Y-85314859D01*
X219073679Y-85372826D01*
X219046744Y-85409899D01*
X219004109Y-85434514D01*
X218963161Y-85441000D01*
X217060141Y-85441000D01*
X217002174Y-85428679D01*
X216965101Y-85401744D01*
X216940486Y-85359109D01*
X216934000Y-85318161D01*
X216934000Y-84865141D01*
X216946321Y-84807174D01*
X216973256Y-84770101D01*
X217015891Y-84745486D01*
X217056839Y-84739000D01*
X218959859Y-84739000D01*
X219017826Y-84751321D01*
X219017826Y-84751321D01*
G37*
G36*
X204658360Y-82933835D02*
G01*
X204739397Y-82960166D01*
X204826663Y-82987848D01*
X204829655Y-82989493D01*
X204838488Y-82992363D01*
X204910466Y-83033919D01*
X204981499Y-83072970D01*
X204988986Y-83079253D01*
X205002511Y-83087061D01*
X205060259Y-83139057D01*
X205116857Y-83186549D01*
X205126962Y-83199118D01*
X205143261Y-83213793D01*
X205185454Y-83271867D01*
X205227579Y-83324260D01*
X205237994Y-83344182D01*
X205254586Y-83367019D01*
X205281297Y-83427012D01*
X205309439Y-83480843D01*
X205317582Y-83508510D01*
X205331621Y-83540042D01*
X205343992Y-83598241D01*
X205359328Y-83650349D01*
X205362518Y-83685401D01*
X205370999Y-83725301D01*
X205370999Y-83778592D01*
X205375343Y-83826324D01*
X205370999Y-83867653D01*
X205370999Y-83914699D01*
X205361217Y-83960721D01*
X205356873Y-84002047D01*
X205342702Y-84047827D01*
X205331621Y-84099958D01*
X205315028Y-84137226D01*
X205304622Y-84170843D01*
X205278789Y-84218620D01*
X205254586Y-84272981D01*
X205234298Y-84300905D01*
X205220580Y-84326276D01*
X205181859Y-84373082D01*
X205143261Y-84426207D01*
X205122284Y-84445095D01*
X205107952Y-84462419D01*
X205055845Y-84504917D01*
X205002511Y-84552939D01*
X204983524Y-84563901D01*
X204971025Y-84574095D01*
X204905780Y-84608786D01*
X204838488Y-84647637D01*
X204823636Y-84652463D01*
X204815003Y-84657053D01*
X204737430Y-84680473D01*
X204658360Y-84706165D01*
X204649114Y-84707137D01*
X204645851Y-84708122D01*
X204554710Y-84717059D01*
X204517211Y-84721000D01*
X204422789Y-84721000D01*
X204281640Y-84706165D01*
X204200603Y-84679834D01*
X204113337Y-84652152D01*
X204110345Y-84650507D01*
X204101512Y-84647637D01*
X204029534Y-84606081D01*
X203958501Y-84567030D01*
X203951014Y-84560747D01*
X203937489Y-84552939D01*
X203879741Y-84500943D01*
X203823143Y-84453451D01*
X203813038Y-84440882D01*
X203796739Y-84426207D01*
X203754546Y-84368133D01*
X203712421Y-84315740D01*
X203702006Y-84295818D01*
X203685414Y-84272981D01*
X203658703Y-84212988D01*
X203630561Y-84159157D01*
X203622418Y-84131490D01*
X203608379Y-84099958D01*
X203596008Y-84041759D01*
X203580672Y-83989651D01*
X203577482Y-83954599D01*
X203569001Y-83914699D01*
X203569001Y-83861408D01*
X203564657Y-83813676D01*
X203569001Y-83772347D01*
X203569001Y-83725301D01*
X203578783Y-83679279D01*
X203583127Y-83637953D01*
X203597298Y-83592173D01*
X203608379Y-83540042D01*
X203624972Y-83502774D01*
X203635378Y-83469157D01*
X203661211Y-83421380D01*
X203685414Y-83367019D01*
X203705702Y-83339095D01*
X203719420Y-83313724D01*
X203758141Y-83266918D01*
X203796739Y-83213793D01*
X203817716Y-83194905D01*
X203832048Y-83177581D01*
X203884155Y-83135083D01*
X203937489Y-83087061D01*
X203956476Y-83076099D01*
X203968975Y-83065905D01*
X204034220Y-83031214D01*
X204101512Y-82992363D01*
X204116364Y-82987537D01*
X204124997Y-82982947D01*
X204202570Y-82959527D01*
X204281640Y-82933835D01*
X204290886Y-82932863D01*
X204294149Y-82931878D01*
X204385290Y-82922941D01*
X204422789Y-82919000D01*
X204517211Y-82919000D01*
X204658360Y-82933835D01*
X204658360Y-82933835D01*
G37*
G36*
X201277743Y-82962965D02*
G01*
X201337775Y-82997625D01*
X201378686Y-83046381D01*
X201411000Y-83166978D01*
X201411000Y-83988542D01*
X201397035Y-84067743D01*
X201362375Y-84127775D01*
X201313619Y-84168686D01*
X201193022Y-84201000D01*
X200121458Y-84201000D01*
X200042257Y-84187035D01*
X199982225Y-84152375D01*
X199941314Y-84103619D01*
X199909000Y-83983022D01*
X199909000Y-83161458D01*
X199922965Y-83082257D01*
X199957625Y-83022225D01*
X200006381Y-82981314D01*
X200126978Y-82949000D01*
X201198542Y-82949000D01*
X201277743Y-82962965D01*
X201277743Y-82962965D01*
G37*
G36*
X221597743Y-82962965D02*
G01*
X221657775Y-82997625D01*
X221698686Y-83046381D01*
X221731000Y-83166978D01*
X221731000Y-83988542D01*
X221717035Y-84067743D01*
X221682375Y-84127775D01*
X221633619Y-84168686D01*
X221513022Y-84201000D01*
X220441458Y-84201000D01*
X220362257Y-84187035D01*
X220302225Y-84152375D01*
X220261314Y-84103619D01*
X220229000Y-83983022D01*
X220229000Y-83161458D01*
X220242965Y-83082257D01*
X220277625Y-83022225D01*
X220326381Y-82981314D01*
X220446978Y-82949000D01*
X221518542Y-82949000D01*
X221597743Y-82962965D01*
X221597743Y-82962965D01*
G37*
G36*
X209717826Y-83481321D02*
G01*
X209754899Y-83508256D01*
X209779514Y-83550891D01*
X209786000Y-83591839D01*
X209786000Y-84044859D01*
X209773679Y-84102826D01*
X209746744Y-84139899D01*
X209704109Y-84164514D01*
X209663161Y-84171000D01*
X207760141Y-84171000D01*
X207702174Y-84158679D01*
X207665101Y-84131744D01*
X207640486Y-84089109D01*
X207634000Y-84048161D01*
X207634000Y-83595141D01*
X207646321Y-83537174D01*
X207673256Y-83500101D01*
X207715891Y-83475486D01*
X207756839Y-83469000D01*
X209659859Y-83469000D01*
X209717826Y-83481321D01*
X209717826Y-83481321D01*
G37*
G36*
X219017826Y-83481321D02*
G01*
X219054899Y-83508256D01*
X219079514Y-83550891D01*
X219086000Y-83591839D01*
X219086000Y-84044859D01*
X219073679Y-84102826D01*
X219046744Y-84139899D01*
X219004109Y-84164514D01*
X218963161Y-84171000D01*
X217060141Y-84171000D01*
X217002174Y-84158679D01*
X216965101Y-84131744D01*
X216940486Y-84089109D01*
X216934000Y-84048161D01*
X216934000Y-83595141D01*
X216946321Y-83537174D01*
X216973256Y-83500101D01*
X217015891Y-83475486D01*
X217056839Y-83469000D01*
X218959859Y-83469000D01*
X219017826Y-83481321D01*
X219017826Y-83481321D01*
G37*
G36*
X209717826Y-82211321D02*
G01*
X209754899Y-82238256D01*
X209779514Y-82280891D01*
X209786000Y-82321839D01*
X209786000Y-82774859D01*
X209773679Y-82832826D01*
X209746744Y-82869899D01*
X209704109Y-82894514D01*
X209663161Y-82901000D01*
X207760141Y-82901000D01*
X207702174Y-82888679D01*
X207665101Y-82861744D01*
X207640486Y-82819109D01*
X207634000Y-82778161D01*
X207634000Y-82325141D01*
X207646321Y-82267174D01*
X207673256Y-82230101D01*
X207715891Y-82205486D01*
X207756839Y-82199000D01*
X209659859Y-82199000D01*
X209717826Y-82211321D01*
X209717826Y-82211321D01*
G37*
G36*
X219017826Y-82211321D02*
G01*
X219054899Y-82238256D01*
X219079514Y-82280891D01*
X219086000Y-82321839D01*
X219086000Y-82774859D01*
X219073679Y-82832826D01*
X219046744Y-82869899D01*
X219004109Y-82894514D01*
X218963161Y-82901000D01*
X217060141Y-82901000D01*
X217002174Y-82888679D01*
X216965101Y-82861744D01*
X216940486Y-82819109D01*
X216934000Y-82778161D01*
X216934000Y-82325141D01*
X216946321Y-82267174D01*
X216973256Y-82230101D01*
X217015891Y-82205486D01*
X217056839Y-82199000D01*
X218959859Y-82199000D01*
X219017826Y-82211321D01*
X219017826Y-82211321D01*
G37*
G36*
X204658360Y-80393835D02*
G01*
X204739397Y-80420166D01*
X204826663Y-80447848D01*
X204829655Y-80449493D01*
X204838488Y-80452363D01*
X204910466Y-80493919D01*
X204981499Y-80532970D01*
X204988986Y-80539253D01*
X205002511Y-80547061D01*
X205060259Y-80599057D01*
X205116857Y-80646549D01*
X205126962Y-80659118D01*
X205143261Y-80673793D01*
X205185454Y-80731867D01*
X205227579Y-80784260D01*
X205237994Y-80804182D01*
X205254586Y-80827019D01*
X205281297Y-80887012D01*
X205309439Y-80940843D01*
X205317582Y-80968510D01*
X205331621Y-81000042D01*
X205343992Y-81058241D01*
X205359328Y-81110349D01*
X205362518Y-81145401D01*
X205370999Y-81185301D01*
X205370999Y-81238592D01*
X205375343Y-81286324D01*
X205370999Y-81327653D01*
X205370999Y-81374699D01*
X205361217Y-81420721D01*
X205356873Y-81462047D01*
X205342702Y-81507827D01*
X205331621Y-81559958D01*
X205315028Y-81597226D01*
X205304622Y-81630843D01*
X205278789Y-81678620D01*
X205254586Y-81732981D01*
X205234298Y-81760905D01*
X205220580Y-81786276D01*
X205181859Y-81833082D01*
X205143261Y-81886207D01*
X205122284Y-81905095D01*
X205107952Y-81922419D01*
X205055845Y-81964917D01*
X205002511Y-82012939D01*
X204983524Y-82023901D01*
X204971025Y-82034095D01*
X204905780Y-82068786D01*
X204838488Y-82107637D01*
X204823636Y-82112463D01*
X204815003Y-82117053D01*
X204737430Y-82140473D01*
X204658360Y-82166165D01*
X204649114Y-82167137D01*
X204645851Y-82168122D01*
X204554710Y-82177059D01*
X204517211Y-82181000D01*
X204422789Y-82181000D01*
X204281640Y-82166165D01*
X204200603Y-82139834D01*
X204113337Y-82112152D01*
X204110345Y-82110507D01*
X204101512Y-82107637D01*
X204029534Y-82066081D01*
X203958501Y-82027030D01*
X203951014Y-82020747D01*
X203937489Y-82012939D01*
X203879741Y-81960943D01*
X203823143Y-81913451D01*
X203813038Y-81900882D01*
X203796739Y-81886207D01*
X203754546Y-81828133D01*
X203712421Y-81775740D01*
X203702006Y-81755818D01*
X203685414Y-81732981D01*
X203658703Y-81672988D01*
X203630561Y-81619157D01*
X203622418Y-81591490D01*
X203608379Y-81559958D01*
X203596008Y-81501759D01*
X203580672Y-81449651D01*
X203577482Y-81414599D01*
X203569001Y-81374699D01*
X203569001Y-81321408D01*
X203564657Y-81273676D01*
X203569001Y-81232347D01*
X203569001Y-81185301D01*
X203578783Y-81139279D01*
X203583127Y-81097953D01*
X203597298Y-81052173D01*
X203608379Y-81000042D01*
X203624972Y-80962774D01*
X203635378Y-80929157D01*
X203661211Y-80881380D01*
X203685414Y-80827019D01*
X203705702Y-80799095D01*
X203719420Y-80773724D01*
X203758141Y-80726918D01*
X203796739Y-80673793D01*
X203817716Y-80654905D01*
X203832048Y-80637581D01*
X203884155Y-80595083D01*
X203937489Y-80547061D01*
X203956476Y-80536099D01*
X203968975Y-80525905D01*
X204034220Y-80491214D01*
X204101512Y-80452363D01*
X204116364Y-80447537D01*
X204124997Y-80442947D01*
X204202570Y-80419527D01*
X204281640Y-80393835D01*
X204290886Y-80392863D01*
X204294149Y-80391878D01*
X204385290Y-80382941D01*
X204422789Y-80379000D01*
X204517211Y-80379000D01*
X204658360Y-80393835D01*
X204658360Y-80393835D01*
G37*
G36*
X201277743Y-80912965D02*
G01*
X201337775Y-80947625D01*
X201378686Y-80996381D01*
X201411000Y-81116978D01*
X201411000Y-81938542D01*
X201397035Y-82017743D01*
X201362375Y-82077775D01*
X201313619Y-82118686D01*
X201193022Y-82151000D01*
X200121458Y-82151000D01*
X200042257Y-82137035D01*
X199982225Y-82102375D01*
X199941314Y-82053619D01*
X199909000Y-81933022D01*
X199909000Y-81111458D01*
X199922965Y-81032257D01*
X199957625Y-80972225D01*
X200006381Y-80931314D01*
X200126978Y-80899000D01*
X201198542Y-80899000D01*
X201277743Y-80912965D01*
X201277743Y-80912965D01*
G37*
G36*
X221597743Y-80912965D02*
G01*
X221657775Y-80947625D01*
X221698686Y-80996381D01*
X221731000Y-81116978D01*
X221731000Y-81938542D01*
X221717035Y-82017743D01*
X221682375Y-82077775D01*
X221633619Y-82118686D01*
X221513022Y-82151000D01*
X220441458Y-82151000D01*
X220362257Y-82137035D01*
X220302225Y-82102375D01*
X220261314Y-82053619D01*
X220229000Y-81933022D01*
X220229000Y-81111458D01*
X220242965Y-81032257D01*
X220277625Y-80972225D01*
X220326381Y-80931314D01*
X220446978Y-80899000D01*
X221518542Y-80899000D01*
X221597743Y-80912965D01*
X221597743Y-80912965D01*
G37*
G36*
X209717826Y-80941321D02*
G01*
X209754899Y-80968256D01*
X209779514Y-81010891D01*
X209786000Y-81051839D01*
X209786000Y-81504859D01*
X209773679Y-81562826D01*
X209746744Y-81599899D01*
X209704109Y-81624514D01*
X209663161Y-81631000D01*
X207760141Y-81631000D01*
X207702174Y-81618679D01*
X207665101Y-81591744D01*
X207640486Y-81549109D01*
X207634000Y-81508161D01*
X207634000Y-81055141D01*
X207646321Y-80997174D01*
X207673256Y-80960101D01*
X207715891Y-80935486D01*
X207756839Y-80929000D01*
X209659859Y-80929000D01*
X209717826Y-80941321D01*
X209717826Y-80941321D01*
G37*
G36*
X219017826Y-80941321D02*
G01*
X219054899Y-80968256D01*
X219079514Y-81010891D01*
X219086000Y-81051839D01*
X219086000Y-81504859D01*
X219073679Y-81562826D01*
X219046744Y-81599899D01*
X219004109Y-81624514D01*
X218963161Y-81631000D01*
X217060141Y-81631000D01*
X217002174Y-81618679D01*
X216965101Y-81591744D01*
X216940486Y-81549109D01*
X216934000Y-81508161D01*
X216934000Y-81055141D01*
X216946321Y-80997174D01*
X216973256Y-80960101D01*
X217015891Y-80935486D01*
X217056839Y-80929000D01*
X218959859Y-80929000D01*
X219017826Y-80941321D01*
X219017826Y-80941321D01*
G37*
G36*
X219017826Y-79671321D02*
G01*
X219054899Y-79698256D01*
X219079514Y-79740891D01*
X219086000Y-79781839D01*
X219086000Y-80234859D01*
X219073679Y-80292826D01*
X219046744Y-80329899D01*
X219004109Y-80354514D01*
X218963161Y-80361000D01*
X217060141Y-80361000D01*
X217002174Y-80348679D01*
X216965101Y-80321744D01*
X216940486Y-80279109D01*
X216934000Y-80238161D01*
X216934000Y-79785141D01*
X216946321Y-79727174D01*
X216973256Y-79690101D01*
X217015891Y-79665486D01*
X217056839Y-79659000D01*
X218959859Y-79659000D01*
X219017826Y-79671321D01*
X219017826Y-79671321D01*
G37*
G36*
X209717826Y-79671321D02*
G01*
X209754899Y-79698256D01*
X209779514Y-79740891D01*
X209786000Y-79781839D01*
X209786000Y-80234859D01*
X209773679Y-80292826D01*
X209746744Y-80329899D01*
X209704109Y-80354514D01*
X209663161Y-80361000D01*
X207760141Y-80361000D01*
X207702174Y-80348679D01*
X207665101Y-80321744D01*
X207640486Y-80279109D01*
X207634000Y-80238161D01*
X207634000Y-79785141D01*
X207646321Y-79727174D01*
X207673256Y-79690101D01*
X207715891Y-79665486D01*
X207756839Y-79659000D01*
X209659859Y-79659000D01*
X209717826Y-79671321D01*
X209717826Y-79671321D01*
G37*
G36*
X205371000Y-79641000D02*
G01*
X203569000Y-79641000D01*
X203569000Y-77839000D01*
X205371000Y-77839000D01*
X205371000Y-79641000D01*
X205371000Y-79641000D01*
G37*
G36*
X219017826Y-78401321D02*
G01*
X219054899Y-78428256D01*
X219079514Y-78470891D01*
X219086000Y-78511839D01*
X219086000Y-78964859D01*
X219073679Y-79022826D01*
X219046744Y-79059899D01*
X219004109Y-79084514D01*
X218963161Y-79091000D01*
X217060141Y-79091000D01*
X217002174Y-79078679D01*
X216965101Y-79051744D01*
X216940486Y-79009109D01*
X216934000Y-78968161D01*
X216934000Y-78515141D01*
X216946321Y-78457174D01*
X216973256Y-78420101D01*
X217015891Y-78395486D01*
X217056839Y-78389000D01*
X218959859Y-78389000D01*
X219017826Y-78401321D01*
X219017826Y-78401321D01*
G37*
G36*
X209717826Y-78401321D02*
G01*
X209754899Y-78428256D01*
X209779514Y-78470891D01*
X209786000Y-78511839D01*
X209786000Y-78964859D01*
X209773679Y-79022826D01*
X209746744Y-79059899D01*
X209704109Y-79084514D01*
X209663161Y-79091000D01*
X207760141Y-79091000D01*
X207702174Y-79078679D01*
X207665101Y-79051744D01*
X207640486Y-79009109D01*
X207634000Y-78968161D01*
X207634000Y-78515141D01*
X207646321Y-78457174D01*
X207673256Y-78420101D01*
X207715891Y-78395486D01*
X207756839Y-78389000D01*
X209659859Y-78389000D01*
X209717826Y-78401321D01*
X209717826Y-78401321D01*
G37*
G36*
X211042459Y-72112075D02*
G01*
X211098049Y-72144169D01*
X211135664Y-72188998D01*
X211166000Y-72302212D01*
X211166000Y-73753309D01*
X211152925Y-73827459D01*
X211120831Y-73883049D01*
X211076002Y-73920664D01*
X210962788Y-73951000D01*
X209836691Y-73951000D01*
X209762541Y-73937925D01*
X209706951Y-73905831D01*
X209669336Y-73861002D01*
X209639000Y-73747788D01*
X209639000Y-72296691D01*
X209652075Y-72222541D01*
X209684169Y-72166951D01*
X209728998Y-72129336D01*
X209842212Y-72099000D01*
X210968309Y-72099000D01*
X211042459Y-72112075D01*
X211042459Y-72112075D01*
G37*
G36*
X208067459Y-72112075D02*
G01*
X208123049Y-72144169D01*
X208160664Y-72188998D01*
X208191000Y-72302212D01*
X208191000Y-73753309D01*
X208177925Y-73827459D01*
X208145831Y-73883049D01*
X208101002Y-73920664D01*
X207987788Y-73951000D01*
X206861691Y-73951000D01*
X206787541Y-73937925D01*
X206731951Y-73905831D01*
X206694336Y-73861002D01*
X206664000Y-73747788D01*
X206664000Y-72296691D01*
X206677075Y-72222541D01*
X206709169Y-72166951D01*
X206753998Y-72129336D01*
X206867212Y-72099000D01*
X207993309Y-72099000D01*
X208067459Y-72112075D01*
X208067459Y-72112075D01*
G37*
G36*
X221168360Y-72138835D02*
G01*
X221249397Y-72165166D01*
X221336663Y-72192848D01*
X221339655Y-72194493D01*
X221348488Y-72197363D01*
X221420466Y-72238919D01*
X221491499Y-72277970D01*
X221498986Y-72284253D01*
X221512511Y-72292061D01*
X221570259Y-72344057D01*
X221626857Y-72391549D01*
X221636962Y-72404118D01*
X221653261Y-72418793D01*
X221695454Y-72476867D01*
X221737579Y-72529260D01*
X221747994Y-72549182D01*
X221764586Y-72572019D01*
X221791297Y-72632012D01*
X221819439Y-72685843D01*
X221827582Y-72713510D01*
X221841621Y-72745042D01*
X221853992Y-72803241D01*
X221869328Y-72855349D01*
X221872518Y-72890401D01*
X221880999Y-72930301D01*
X221880999Y-72983592D01*
X221885343Y-73031324D01*
X221880999Y-73072653D01*
X221880999Y-73119699D01*
X221871217Y-73165721D01*
X221866873Y-73207047D01*
X221852702Y-73252827D01*
X221841621Y-73304958D01*
X221825028Y-73342226D01*
X221814622Y-73375843D01*
X221788789Y-73423620D01*
X221764586Y-73477981D01*
X221744298Y-73505905D01*
X221730580Y-73531276D01*
X221691859Y-73578082D01*
X221653261Y-73631207D01*
X221632284Y-73650095D01*
X221617952Y-73667419D01*
X221565845Y-73709917D01*
X221512511Y-73757939D01*
X221493524Y-73768901D01*
X221481025Y-73779095D01*
X221415780Y-73813786D01*
X221348488Y-73852637D01*
X221333636Y-73857463D01*
X221325003Y-73862053D01*
X221247430Y-73885473D01*
X221168360Y-73911165D01*
X221159114Y-73912137D01*
X221155851Y-73913122D01*
X221064710Y-73922059D01*
X221027211Y-73926000D01*
X220932789Y-73926000D01*
X220791640Y-73911165D01*
X220710603Y-73884834D01*
X220623337Y-73857152D01*
X220620345Y-73855507D01*
X220611512Y-73852637D01*
X220539534Y-73811081D01*
X220468501Y-73772030D01*
X220461014Y-73765747D01*
X220447489Y-73757939D01*
X220389741Y-73705943D01*
X220333143Y-73658451D01*
X220323038Y-73645882D01*
X220306739Y-73631207D01*
X220264546Y-73573133D01*
X220222421Y-73520740D01*
X220212006Y-73500818D01*
X220195414Y-73477981D01*
X220168703Y-73417988D01*
X220140561Y-73364157D01*
X220132418Y-73336490D01*
X220118379Y-73304958D01*
X220106008Y-73246759D01*
X220090672Y-73194651D01*
X220087482Y-73159599D01*
X220079001Y-73119699D01*
X220079001Y-73066408D01*
X220074657Y-73018676D01*
X220079001Y-72977347D01*
X220079001Y-72930301D01*
X220088783Y-72884279D01*
X220093127Y-72842953D01*
X220107298Y-72797173D01*
X220118379Y-72745042D01*
X220134972Y-72707774D01*
X220145378Y-72674157D01*
X220171211Y-72626380D01*
X220195414Y-72572019D01*
X220215702Y-72544095D01*
X220229420Y-72518724D01*
X220268141Y-72471918D01*
X220306739Y-72418793D01*
X220327716Y-72399905D01*
X220342048Y-72382581D01*
X220394155Y-72340083D01*
X220447489Y-72292061D01*
X220466476Y-72281099D01*
X220478975Y-72270905D01*
X220544220Y-72236214D01*
X220611512Y-72197363D01*
X220626364Y-72192537D01*
X220634997Y-72187947D01*
X220712570Y-72164527D01*
X220791640Y-72138835D01*
X220800886Y-72137863D01*
X220804149Y-72136878D01*
X220895290Y-72127941D01*
X220932789Y-72124000D01*
X221027211Y-72124000D01*
X221168360Y-72138835D01*
X221168360Y-72138835D01*
G37*
G36*
X217358360Y-72138835D02*
G01*
X217439397Y-72165166D01*
X217526663Y-72192848D01*
X217529655Y-72194493D01*
X217538488Y-72197363D01*
X217610466Y-72238919D01*
X217681499Y-72277970D01*
X217688986Y-72284253D01*
X217702511Y-72292061D01*
X217760259Y-72344057D01*
X217816857Y-72391549D01*
X217826962Y-72404118D01*
X217843261Y-72418793D01*
X217885454Y-72476867D01*
X217927579Y-72529260D01*
X217937994Y-72549182D01*
X217954586Y-72572019D01*
X217981297Y-72632012D01*
X218009439Y-72685843D01*
X218017582Y-72713510D01*
X218031621Y-72745042D01*
X218043992Y-72803241D01*
X218059328Y-72855349D01*
X218062518Y-72890401D01*
X218070999Y-72930301D01*
X218070999Y-72983592D01*
X218075343Y-73031324D01*
X218070999Y-73072653D01*
X218070999Y-73119699D01*
X218061217Y-73165721D01*
X218056873Y-73207047D01*
X218042702Y-73252827D01*
X218031621Y-73304958D01*
X218015028Y-73342226D01*
X218004622Y-73375843D01*
X217978789Y-73423620D01*
X217954586Y-73477981D01*
X217934298Y-73505905D01*
X217920580Y-73531276D01*
X217881859Y-73578082D01*
X217843261Y-73631207D01*
X217822284Y-73650095D01*
X217807952Y-73667419D01*
X217755845Y-73709917D01*
X217702511Y-73757939D01*
X217683524Y-73768901D01*
X217671025Y-73779095D01*
X217605780Y-73813786D01*
X217538488Y-73852637D01*
X217523636Y-73857463D01*
X217515003Y-73862053D01*
X217437430Y-73885473D01*
X217358360Y-73911165D01*
X217349114Y-73912137D01*
X217345851Y-73913122D01*
X217254710Y-73922059D01*
X217217211Y-73926000D01*
X217122789Y-73926000D01*
X216981640Y-73911165D01*
X216900603Y-73884834D01*
X216813337Y-73857152D01*
X216810345Y-73855507D01*
X216801512Y-73852637D01*
X216729534Y-73811081D01*
X216658501Y-73772030D01*
X216651014Y-73765747D01*
X216637489Y-73757939D01*
X216579741Y-73705943D01*
X216523143Y-73658451D01*
X216513038Y-73645882D01*
X216496739Y-73631207D01*
X216454546Y-73573133D01*
X216412421Y-73520740D01*
X216402006Y-73500818D01*
X216385414Y-73477981D01*
X216358703Y-73417988D01*
X216330561Y-73364157D01*
X216322418Y-73336490D01*
X216308379Y-73304958D01*
X216296008Y-73246759D01*
X216280672Y-73194651D01*
X216277482Y-73159599D01*
X216269001Y-73119699D01*
X216269001Y-73066408D01*
X216264657Y-73018676D01*
X216269001Y-72977347D01*
X216269001Y-72930301D01*
X216278783Y-72884279D01*
X216283127Y-72842953D01*
X216297298Y-72797173D01*
X216308379Y-72745042D01*
X216324972Y-72707774D01*
X216335378Y-72674157D01*
X216361211Y-72626380D01*
X216385414Y-72572019D01*
X216405702Y-72544095D01*
X216419420Y-72518724D01*
X216458141Y-72471918D01*
X216496739Y-72418793D01*
X216517716Y-72399905D01*
X216532048Y-72382581D01*
X216584155Y-72340083D01*
X216637489Y-72292061D01*
X216656476Y-72281099D01*
X216668975Y-72270905D01*
X216734220Y-72236214D01*
X216801512Y-72197363D01*
X216816364Y-72192537D01*
X216824997Y-72187947D01*
X216902570Y-72164527D01*
X216981640Y-72138835D01*
X216990886Y-72137863D01*
X216994149Y-72136878D01*
X217085290Y-72127941D01*
X217122789Y-72124000D01*
X217217211Y-72124000D01*
X217358360Y-72138835D01*
X217358360Y-72138835D01*
G37*
G36*
X214877743Y-72287965D02*
G01*
X214937775Y-72322625D01*
X214978686Y-72371381D01*
X215011000Y-72491978D01*
X215011000Y-73563542D01*
X214997035Y-73642743D01*
X214962375Y-73702775D01*
X214913619Y-73743686D01*
X214793022Y-73776000D01*
X213971458Y-73776000D01*
X213892257Y-73762035D01*
X213832225Y-73727375D01*
X213791314Y-73678619D01*
X213759000Y-73558022D01*
X213759000Y-72486458D01*
X213772965Y-72407257D01*
X213807625Y-72347225D01*
X213856381Y-72306314D01*
X213976978Y-72274000D01*
X214798542Y-72274000D01*
X214877743Y-72287965D01*
X214877743Y-72287965D01*
G37*
G36*
X212827743Y-72287965D02*
G01*
X212887775Y-72322625D01*
X212928686Y-72371381D01*
X212961000Y-72491978D01*
X212961000Y-73563542D01*
X212947035Y-73642743D01*
X212912375Y-73702775D01*
X212863619Y-73743686D01*
X212743022Y-73776000D01*
X211921458Y-73776000D01*
X211842257Y-73762035D01*
X211782225Y-73727375D01*
X211741314Y-73678619D01*
X211709000Y-73558022D01*
X211709000Y-72486458D01*
X211722965Y-72407257D01*
X211757625Y-72347225D01*
X211806381Y-72306314D01*
X211926978Y-72274000D01*
X212748542Y-72274000D01*
X212827743Y-72287965D01*
X212827743Y-72287965D01*
G37*
G36*
X218071000Y-71386000D02*
G01*
X216269000Y-71386000D01*
X216269000Y-69584000D01*
X218071000Y-69584000D01*
X218071000Y-71386000D01*
X218071000Y-71386000D01*
G37*
G36*
X221881000Y-71386000D02*
G01*
X220079000Y-71386000D01*
X220079000Y-69584000D01*
X221881000Y-69584000D01*
X221881000Y-71386000D01*
X221881000Y-71386000D01*
G37*
G36*
X214877743Y-69747965D02*
G01*
X214937775Y-69782625D01*
X214978686Y-69831381D01*
X215011000Y-69951978D01*
X215011000Y-71023542D01*
X214997035Y-71102743D01*
X214962375Y-71162775D01*
X214913619Y-71203686D01*
X214793022Y-71236000D01*
X213971458Y-71236000D01*
X213892257Y-71222035D01*
X213832225Y-71187375D01*
X213791314Y-71138619D01*
X213759000Y-71018022D01*
X213759000Y-69946458D01*
X213772965Y-69867257D01*
X213807625Y-69807225D01*
X213856381Y-69766314D01*
X213976978Y-69734000D01*
X214798542Y-69734000D01*
X214877743Y-69747965D01*
X214877743Y-69747965D01*
G37*
G36*
X212827743Y-69747965D02*
G01*
X212887775Y-69782625D01*
X212928686Y-69831381D01*
X212961000Y-69951978D01*
X212961000Y-71023542D01*
X212947035Y-71102743D01*
X212912375Y-71162775D01*
X212863619Y-71203686D01*
X212743022Y-71236000D01*
X211921458Y-71236000D01*
X211842257Y-71222035D01*
X211782225Y-71187375D01*
X211741314Y-71138619D01*
X211709000Y-71018022D01*
X211709000Y-69946458D01*
X211722965Y-69867257D01*
X211757625Y-69807225D01*
X211806381Y-69766314D01*
X211926978Y-69734000D01*
X212748542Y-69734000D01*
X212827743Y-69747965D01*
X212827743Y-69747965D01*
G37*
G36*
X211042459Y-64492075D02*
G01*
X211098049Y-64524169D01*
X211135664Y-64568998D01*
X211166000Y-64682212D01*
X211166000Y-66133309D01*
X211152925Y-66207459D01*
X211120831Y-66263049D01*
X211076002Y-66300664D01*
X210962788Y-66331000D01*
X209836691Y-66331000D01*
X209762541Y-66317925D01*
X209706951Y-66285831D01*
X209669336Y-66241002D01*
X209639000Y-66127788D01*
X209639000Y-64676691D01*
X209652075Y-64602541D01*
X209684169Y-64546951D01*
X209728998Y-64509336D01*
X209842212Y-64479000D01*
X210968309Y-64479000D01*
X211042459Y-64492075D01*
X211042459Y-64492075D01*
G37*
G36*
X208067459Y-64492075D02*
G01*
X208123049Y-64524169D01*
X208160664Y-64568998D01*
X208191000Y-64682212D01*
X208191000Y-66133309D01*
X208177925Y-66207459D01*
X208145831Y-66263049D01*
X208101002Y-66300664D01*
X207987788Y-66331000D01*
X206861691Y-66331000D01*
X206787541Y-66317925D01*
X206731951Y-66285831D01*
X206694336Y-66241002D01*
X206664000Y-66127788D01*
X206664000Y-64676691D01*
X206677075Y-64602541D01*
X206709169Y-64546951D01*
X206753998Y-64509336D01*
X206867212Y-64479000D01*
X207993309Y-64479000D01*
X208067459Y-64492075D01*
X208067459Y-64492075D01*
G37*
G36*
X217358360Y-64518835D02*
G01*
X217439397Y-64545166D01*
X217526663Y-64572848D01*
X217529655Y-64574493D01*
X217538488Y-64577363D01*
X217610466Y-64618919D01*
X217681499Y-64657970D01*
X217688986Y-64664253D01*
X217702511Y-64672061D01*
X217760259Y-64724057D01*
X217816857Y-64771549D01*
X217826962Y-64784118D01*
X217843261Y-64798793D01*
X217885454Y-64856867D01*
X217927579Y-64909260D01*
X217937994Y-64929182D01*
X217954586Y-64952019D01*
X217981297Y-65012012D01*
X218009439Y-65065843D01*
X218017582Y-65093510D01*
X218031621Y-65125042D01*
X218043992Y-65183241D01*
X218059328Y-65235349D01*
X218062518Y-65270401D01*
X218070999Y-65310301D01*
X218070999Y-65363592D01*
X218075343Y-65411324D01*
X218070999Y-65452653D01*
X218070999Y-65499699D01*
X218061217Y-65545721D01*
X218056873Y-65587047D01*
X218042702Y-65632827D01*
X218031621Y-65684958D01*
X218015028Y-65722226D01*
X218004622Y-65755843D01*
X217978789Y-65803620D01*
X217954586Y-65857981D01*
X217934298Y-65885905D01*
X217920580Y-65911276D01*
X217881859Y-65958082D01*
X217843261Y-66011207D01*
X217822284Y-66030095D01*
X217807952Y-66047419D01*
X217755845Y-66089917D01*
X217702511Y-66137939D01*
X217683524Y-66148901D01*
X217671025Y-66159095D01*
X217605780Y-66193786D01*
X217538488Y-66232637D01*
X217523636Y-66237463D01*
X217515003Y-66242053D01*
X217437430Y-66265473D01*
X217358360Y-66291165D01*
X217349114Y-66292137D01*
X217345851Y-66293122D01*
X217254710Y-66302059D01*
X217217211Y-66306000D01*
X217122789Y-66306000D01*
X216981640Y-66291165D01*
X216900603Y-66264834D01*
X216813337Y-66237152D01*
X216810345Y-66235507D01*
X216801512Y-66232637D01*
X216729534Y-66191081D01*
X216658501Y-66152030D01*
X216651014Y-66145747D01*
X216637489Y-66137939D01*
X216579741Y-66085943D01*
X216523143Y-66038451D01*
X216513038Y-66025882D01*
X216496739Y-66011207D01*
X216454546Y-65953133D01*
X216412421Y-65900740D01*
X216402006Y-65880818D01*
X216385414Y-65857981D01*
X216358703Y-65797988D01*
X216330561Y-65744157D01*
X216322418Y-65716490D01*
X216308379Y-65684958D01*
X216296008Y-65626759D01*
X216280672Y-65574651D01*
X216277482Y-65539599D01*
X216269001Y-65499699D01*
X216269001Y-65446408D01*
X216264657Y-65398676D01*
X216269001Y-65357347D01*
X216269001Y-65310301D01*
X216278783Y-65264279D01*
X216283127Y-65222953D01*
X216297298Y-65177173D01*
X216308379Y-65125042D01*
X216324972Y-65087774D01*
X216335378Y-65054157D01*
X216361211Y-65006380D01*
X216385414Y-64952019D01*
X216405702Y-64924095D01*
X216419420Y-64898724D01*
X216458141Y-64851918D01*
X216496739Y-64798793D01*
X216517716Y-64779905D01*
X216532048Y-64762581D01*
X216584155Y-64720083D01*
X216637489Y-64672061D01*
X216656476Y-64661099D01*
X216668975Y-64650905D01*
X216734220Y-64616214D01*
X216801512Y-64577363D01*
X216816364Y-64572537D01*
X216824997Y-64567947D01*
X216902570Y-64544527D01*
X216981640Y-64518835D01*
X216990886Y-64517863D01*
X216994149Y-64516878D01*
X217085290Y-64507941D01*
X217122789Y-64504000D01*
X217217211Y-64504000D01*
X217358360Y-64518835D01*
X217358360Y-64518835D01*
G37*
G36*
X221168360Y-64518835D02*
G01*
X221249397Y-64545166D01*
X221336663Y-64572848D01*
X221339655Y-64574493D01*
X221348488Y-64577363D01*
X221420466Y-64618919D01*
X221491499Y-64657970D01*
X221498986Y-64664253D01*
X221512511Y-64672061D01*
X221570259Y-64724057D01*
X221626857Y-64771549D01*
X221636962Y-64784118D01*
X221653261Y-64798793D01*
X221695454Y-64856867D01*
X221737579Y-64909260D01*
X221747994Y-64929182D01*
X221764586Y-64952019D01*
X221791297Y-65012012D01*
X221819439Y-65065843D01*
X221827582Y-65093510D01*
X221841621Y-65125042D01*
X221853992Y-65183241D01*
X221869328Y-65235349D01*
X221872518Y-65270401D01*
X221880999Y-65310301D01*
X221880999Y-65363592D01*
X221885343Y-65411324D01*
X221880999Y-65452653D01*
X221880999Y-65499699D01*
X221871217Y-65545721D01*
X221866873Y-65587047D01*
X221852702Y-65632827D01*
X221841621Y-65684958D01*
X221825028Y-65722226D01*
X221814622Y-65755843D01*
X221788789Y-65803620D01*
X221764586Y-65857981D01*
X221744298Y-65885905D01*
X221730580Y-65911276D01*
X221691859Y-65958082D01*
X221653261Y-66011207D01*
X221632284Y-66030095D01*
X221617952Y-66047419D01*
X221565845Y-66089917D01*
X221512511Y-66137939D01*
X221493524Y-66148901D01*
X221481025Y-66159095D01*
X221415780Y-66193786D01*
X221348488Y-66232637D01*
X221333636Y-66237463D01*
X221325003Y-66242053D01*
X221247430Y-66265473D01*
X221168360Y-66291165D01*
X221159114Y-66292137D01*
X221155851Y-66293122D01*
X221064710Y-66302059D01*
X221027211Y-66306000D01*
X220932789Y-66306000D01*
X220791640Y-66291165D01*
X220710603Y-66264834D01*
X220623337Y-66237152D01*
X220620345Y-66235507D01*
X220611512Y-66232637D01*
X220539534Y-66191081D01*
X220468501Y-66152030D01*
X220461014Y-66145747D01*
X220447489Y-66137939D01*
X220389741Y-66085943D01*
X220333143Y-66038451D01*
X220323038Y-66025882D01*
X220306739Y-66011207D01*
X220264546Y-65953133D01*
X220222421Y-65900740D01*
X220212006Y-65880818D01*
X220195414Y-65857981D01*
X220168703Y-65797988D01*
X220140561Y-65744157D01*
X220132418Y-65716490D01*
X220118379Y-65684958D01*
X220106008Y-65626759D01*
X220090672Y-65574651D01*
X220087482Y-65539599D01*
X220079001Y-65499699D01*
X220079001Y-65446408D01*
X220074657Y-65398676D01*
X220079001Y-65357347D01*
X220079001Y-65310301D01*
X220088783Y-65264279D01*
X220093127Y-65222953D01*
X220107298Y-65177173D01*
X220118379Y-65125042D01*
X220134972Y-65087774D01*
X220145378Y-65054157D01*
X220171211Y-65006380D01*
X220195414Y-64952019D01*
X220215702Y-64924095D01*
X220229420Y-64898724D01*
X220268141Y-64851918D01*
X220306739Y-64798793D01*
X220327716Y-64779905D01*
X220342048Y-64762581D01*
X220394155Y-64720083D01*
X220447489Y-64672061D01*
X220466476Y-64661099D01*
X220478975Y-64650905D01*
X220544220Y-64616214D01*
X220611512Y-64577363D01*
X220626364Y-64572537D01*
X220634997Y-64567947D01*
X220712570Y-64544527D01*
X220791640Y-64518835D01*
X220800886Y-64517863D01*
X220804149Y-64516878D01*
X220895290Y-64507941D01*
X220932789Y-64504000D01*
X221027211Y-64504000D01*
X221168360Y-64518835D01*
X221168360Y-64518835D01*
G37*
G36*
X212827743Y-64667965D02*
G01*
X212887775Y-64702625D01*
X212928686Y-64751381D01*
X212961000Y-64871978D01*
X212961000Y-65943542D01*
X212947035Y-66022743D01*
X212912375Y-66082775D01*
X212863619Y-66123686D01*
X212743022Y-66156000D01*
X211921458Y-66156000D01*
X211842257Y-66142035D01*
X211782225Y-66107375D01*
X211741314Y-66058619D01*
X211709000Y-65938022D01*
X211709000Y-64866458D01*
X211722965Y-64787257D01*
X211757625Y-64727225D01*
X211806381Y-64686314D01*
X211926978Y-64654000D01*
X212748542Y-64654000D01*
X212827743Y-64667965D01*
X212827743Y-64667965D01*
G37*
G36*
X214877743Y-64667965D02*
G01*
X214937775Y-64702625D01*
X214978686Y-64751381D01*
X215011000Y-64871978D01*
X215011000Y-65943542D01*
X214997035Y-66022743D01*
X214962375Y-66082775D01*
X214913619Y-66123686D01*
X214793022Y-66156000D01*
X213971458Y-66156000D01*
X213892257Y-66142035D01*
X213832225Y-66107375D01*
X213791314Y-66058619D01*
X213759000Y-65938022D01*
X213759000Y-64866458D01*
X213772965Y-64787257D01*
X213807625Y-64727225D01*
X213856381Y-64686314D01*
X213976978Y-64654000D01*
X214798542Y-64654000D01*
X214877743Y-64667965D01*
X214877743Y-64667965D01*
G37*
G36*
X221881000Y-63766000D02*
G01*
X220079000Y-63766000D01*
X220079000Y-61964000D01*
X221881000Y-61964000D01*
X221881000Y-63766000D01*
X221881000Y-63766000D01*
G37*
G36*
X218071000Y-63766000D02*
G01*
X216269000Y-63766000D01*
X216269000Y-61964000D01*
X218071000Y-61964000D01*
X218071000Y-63766000D01*
X218071000Y-63766000D01*
G37*
G36*
X214877743Y-62127965D02*
G01*
X214937775Y-62162625D01*
X214978686Y-62211381D01*
X215011000Y-62331978D01*
X215011000Y-63403542D01*
X214997035Y-63482743D01*
X214962375Y-63542775D01*
X214913619Y-63583686D01*
X214793022Y-63616000D01*
X213971458Y-63616000D01*
X213892257Y-63602035D01*
X213832225Y-63567375D01*
X213791314Y-63518619D01*
X213759000Y-63398022D01*
X213759000Y-62326458D01*
X213772965Y-62247257D01*
X213807625Y-62187225D01*
X213856381Y-62146314D01*
X213976978Y-62114000D01*
X214798542Y-62114000D01*
X214877743Y-62127965D01*
X214877743Y-62127965D01*
G37*
G36*
X212827743Y-62127965D02*
G01*
X212887775Y-62162625D01*
X212928686Y-62211381D01*
X212961000Y-62331978D01*
X212961000Y-63403542D01*
X212947035Y-63482743D01*
X212912375Y-63542775D01*
X212863619Y-63583686D01*
X212743022Y-63616000D01*
X211921458Y-63616000D01*
X211842257Y-63602035D01*
X211782225Y-63567375D01*
X211741314Y-63518619D01*
X211709000Y-63398022D01*
X211709000Y-62326458D01*
X211722965Y-62247257D01*
X211757625Y-62187225D01*
X211806381Y-62146314D01*
X211926978Y-62114000D01*
X212748542Y-62114000D01*
X212827743Y-62127965D01*
X212827743Y-62127965D01*
G37*
G36*
X211042459Y-56872075D02*
G01*
X211098049Y-56904169D01*
X211135664Y-56948998D01*
X211166000Y-57062212D01*
X211166000Y-58513309D01*
X211152925Y-58587459D01*
X211120831Y-58643049D01*
X211076002Y-58680664D01*
X210962788Y-58711000D01*
X209836691Y-58711000D01*
X209762541Y-58697925D01*
X209706951Y-58665831D01*
X209669336Y-58621002D01*
X209639000Y-58507788D01*
X209639000Y-57056691D01*
X209652075Y-56982541D01*
X209684169Y-56926951D01*
X209728998Y-56889336D01*
X209842212Y-56859000D01*
X210968309Y-56859000D01*
X211042459Y-56872075D01*
X211042459Y-56872075D01*
G37*
G36*
X208067459Y-56872075D02*
G01*
X208123049Y-56904169D01*
X208160664Y-56948998D01*
X208191000Y-57062212D01*
X208191000Y-58513309D01*
X208177925Y-58587459D01*
X208145831Y-58643049D01*
X208101002Y-58680664D01*
X207987788Y-58711000D01*
X206861691Y-58711000D01*
X206787541Y-58697925D01*
X206731951Y-58665831D01*
X206694336Y-58621002D01*
X206664000Y-58507788D01*
X206664000Y-57056691D01*
X206677075Y-56982541D01*
X206709169Y-56926951D01*
X206753998Y-56889336D01*
X206867212Y-56859000D01*
X207993309Y-56859000D01*
X208067459Y-56872075D01*
X208067459Y-56872075D01*
G37*
G36*
X221168360Y-56898835D02*
G01*
X221249397Y-56925166D01*
X221336663Y-56952848D01*
X221339655Y-56954493D01*
X221348488Y-56957363D01*
X221420466Y-56998919D01*
X221491499Y-57037970D01*
X221498986Y-57044253D01*
X221512511Y-57052061D01*
X221570259Y-57104057D01*
X221626857Y-57151549D01*
X221636962Y-57164118D01*
X221653261Y-57178793D01*
X221695454Y-57236867D01*
X221737579Y-57289260D01*
X221747994Y-57309182D01*
X221764586Y-57332019D01*
X221791297Y-57392012D01*
X221819439Y-57445843D01*
X221827582Y-57473510D01*
X221841621Y-57505042D01*
X221853992Y-57563241D01*
X221869328Y-57615349D01*
X221872518Y-57650401D01*
X221880999Y-57690301D01*
X221880999Y-57743592D01*
X221885343Y-57791324D01*
X221880999Y-57832653D01*
X221880999Y-57879699D01*
X221871217Y-57925721D01*
X221866873Y-57967047D01*
X221852702Y-58012827D01*
X221841621Y-58064958D01*
X221825028Y-58102226D01*
X221814622Y-58135843D01*
X221788789Y-58183620D01*
X221764586Y-58237981D01*
X221744298Y-58265905D01*
X221730580Y-58291276D01*
X221691859Y-58338082D01*
X221653261Y-58391207D01*
X221632284Y-58410095D01*
X221617952Y-58427419D01*
X221565845Y-58469917D01*
X221512511Y-58517939D01*
X221493524Y-58528901D01*
X221481025Y-58539095D01*
X221415780Y-58573786D01*
X221348488Y-58612637D01*
X221333636Y-58617463D01*
X221325003Y-58622053D01*
X221247430Y-58645473D01*
X221168360Y-58671165D01*
X221159114Y-58672137D01*
X221155851Y-58673122D01*
X221064710Y-58682059D01*
X221027211Y-58686000D01*
X220932789Y-58686000D01*
X220791640Y-58671165D01*
X220710603Y-58644834D01*
X220623337Y-58617152D01*
X220620345Y-58615507D01*
X220611512Y-58612637D01*
X220539534Y-58571081D01*
X220468501Y-58532030D01*
X220461014Y-58525747D01*
X220447489Y-58517939D01*
X220389741Y-58465943D01*
X220333143Y-58418451D01*
X220323038Y-58405882D01*
X220306739Y-58391207D01*
X220264546Y-58333133D01*
X220222421Y-58280740D01*
X220212006Y-58260818D01*
X220195414Y-58237981D01*
X220168703Y-58177988D01*
X220140561Y-58124157D01*
X220132418Y-58096490D01*
X220118379Y-58064958D01*
X220106008Y-58006759D01*
X220090672Y-57954651D01*
X220087482Y-57919599D01*
X220079001Y-57879699D01*
X220079001Y-57826408D01*
X220074657Y-57778676D01*
X220079001Y-57737347D01*
X220079001Y-57690301D01*
X220088783Y-57644279D01*
X220093127Y-57602953D01*
X220107298Y-57557173D01*
X220118379Y-57505042D01*
X220134972Y-57467774D01*
X220145378Y-57434157D01*
X220171211Y-57386380D01*
X220195414Y-57332019D01*
X220215702Y-57304095D01*
X220229420Y-57278724D01*
X220268141Y-57231918D01*
X220306739Y-57178793D01*
X220327716Y-57159905D01*
X220342048Y-57142581D01*
X220394155Y-57100083D01*
X220447489Y-57052061D01*
X220466476Y-57041099D01*
X220478975Y-57030905D01*
X220544220Y-56996214D01*
X220611512Y-56957363D01*
X220626364Y-56952537D01*
X220634997Y-56947947D01*
X220712570Y-56924527D01*
X220791640Y-56898835D01*
X220800886Y-56897863D01*
X220804149Y-56896878D01*
X220895290Y-56887941D01*
X220932789Y-56884000D01*
X221027211Y-56884000D01*
X221168360Y-56898835D01*
X221168360Y-56898835D01*
G37*
G36*
X217358360Y-56898835D02*
G01*
X217439397Y-56925166D01*
X217526663Y-56952848D01*
X217529655Y-56954493D01*
X217538488Y-56957363D01*
X217610466Y-56998919D01*
X217681499Y-57037970D01*
X217688986Y-57044253D01*
X217702511Y-57052061D01*
X217760259Y-57104057D01*
X217816857Y-57151549D01*
X217826962Y-57164118D01*
X217843261Y-57178793D01*
X217885454Y-57236867D01*
X217927579Y-57289260D01*
X217937994Y-57309182D01*
X217954586Y-57332019D01*
X217981297Y-57392012D01*
X218009439Y-57445843D01*
X218017582Y-57473510D01*
X218031621Y-57505042D01*
X218043992Y-57563241D01*
X218059328Y-57615349D01*
X218062518Y-57650401D01*
X218070999Y-57690301D01*
X218070999Y-57743592D01*
X218075343Y-57791324D01*
X218070999Y-57832653D01*
X218070999Y-57879699D01*
X218061217Y-57925721D01*
X218056873Y-57967047D01*
X218042702Y-58012827D01*
X218031621Y-58064958D01*
X218015028Y-58102226D01*
X218004622Y-58135843D01*
X217978789Y-58183620D01*
X217954586Y-58237981D01*
X217934298Y-58265905D01*
X217920580Y-58291276D01*
X217881859Y-58338082D01*
X217843261Y-58391207D01*
X217822284Y-58410095D01*
X217807952Y-58427419D01*
X217755845Y-58469917D01*
X217702511Y-58517939D01*
X217683524Y-58528901D01*
X217671025Y-58539095D01*
X217605780Y-58573786D01*
X217538488Y-58612637D01*
X217523636Y-58617463D01*
X217515003Y-58622053D01*
X217437430Y-58645473D01*
X217358360Y-58671165D01*
X217349114Y-58672137D01*
X217345851Y-58673122D01*
X217254710Y-58682059D01*
X217217211Y-58686000D01*
X217122789Y-58686000D01*
X216981640Y-58671165D01*
X216900603Y-58644834D01*
X216813337Y-58617152D01*
X216810345Y-58615507D01*
X216801512Y-58612637D01*
X216729534Y-58571081D01*
X216658501Y-58532030D01*
X216651014Y-58525747D01*
X216637489Y-58517939D01*
X216579741Y-58465943D01*
X216523143Y-58418451D01*
X216513038Y-58405882D01*
X216496739Y-58391207D01*
X216454546Y-58333133D01*
X216412421Y-58280740D01*
X216402006Y-58260818D01*
X216385414Y-58237981D01*
X216358703Y-58177988D01*
X216330561Y-58124157D01*
X216322418Y-58096490D01*
X216308379Y-58064958D01*
X216296008Y-58006759D01*
X216280672Y-57954651D01*
X216277482Y-57919599D01*
X216269001Y-57879699D01*
X216269001Y-57826408D01*
X216264657Y-57778676D01*
X216269001Y-57737347D01*
X216269001Y-57690301D01*
X216278783Y-57644279D01*
X216283127Y-57602953D01*
X216297298Y-57557173D01*
X216308379Y-57505042D01*
X216324972Y-57467774D01*
X216335378Y-57434157D01*
X216361211Y-57386380D01*
X216385414Y-57332019D01*
X216405702Y-57304095D01*
X216419420Y-57278724D01*
X216458141Y-57231918D01*
X216496739Y-57178793D01*
X216517716Y-57159905D01*
X216532048Y-57142581D01*
X216584155Y-57100083D01*
X216637489Y-57052061D01*
X216656476Y-57041099D01*
X216668975Y-57030905D01*
X216734220Y-56996214D01*
X216801512Y-56957363D01*
X216816364Y-56952537D01*
X216824997Y-56947947D01*
X216902570Y-56924527D01*
X216981640Y-56898835D01*
X216990886Y-56897863D01*
X216994149Y-56896878D01*
X217085290Y-56887941D01*
X217122789Y-56884000D01*
X217217211Y-56884000D01*
X217358360Y-56898835D01*
X217358360Y-56898835D01*
G37*
G36*
X214877743Y-57047965D02*
G01*
X214937775Y-57082625D01*
X214978686Y-57131381D01*
X215011000Y-57251978D01*
X215011000Y-58323542D01*
X214997035Y-58402743D01*
X214962375Y-58462775D01*
X214913619Y-58503686D01*
X214793022Y-58536000D01*
X213971458Y-58536000D01*
X213892257Y-58522035D01*
X213832225Y-58487375D01*
X213791314Y-58438619D01*
X213759000Y-58318022D01*
X213759000Y-57246458D01*
X213772965Y-57167257D01*
X213807625Y-57107225D01*
X213856381Y-57066314D01*
X213976978Y-57034000D01*
X214798542Y-57034000D01*
X214877743Y-57047965D01*
X214877743Y-57047965D01*
G37*
G36*
X212827743Y-57047965D02*
G01*
X212887775Y-57082625D01*
X212928686Y-57131381D01*
X212961000Y-57251978D01*
X212961000Y-58323542D01*
X212947035Y-58402743D01*
X212912375Y-58462775D01*
X212863619Y-58503686D01*
X212743022Y-58536000D01*
X211921458Y-58536000D01*
X211842257Y-58522035D01*
X211782225Y-58487375D01*
X211741314Y-58438619D01*
X211709000Y-58318022D01*
X211709000Y-57246458D01*
X211722965Y-57167257D01*
X211757625Y-57107225D01*
X211806381Y-57066314D01*
X211926978Y-57034000D01*
X212748542Y-57034000D01*
X212827743Y-57047965D01*
X212827743Y-57047965D01*
G37*
G36*
X221881000Y-56146000D02*
G01*
X220079000Y-56146000D01*
X220079000Y-54344000D01*
X221881000Y-54344000D01*
X221881000Y-56146000D01*
X221881000Y-56146000D01*
G37*
G36*
X218071000Y-56146000D02*
G01*
X216269000Y-56146000D01*
X216269000Y-54344000D01*
X218071000Y-54344000D01*
X218071000Y-56146000D01*
X218071000Y-56146000D01*
G37*
G36*
X214877743Y-54507965D02*
G01*
X214937775Y-54542625D01*
X214978686Y-54591381D01*
X215011000Y-54711978D01*
X215011000Y-55783542D01*
X214997035Y-55862743D01*
X214962375Y-55922775D01*
X214913619Y-55963686D01*
X214793022Y-55996000D01*
X213971458Y-55996000D01*
X213892257Y-55982035D01*
X213832225Y-55947375D01*
X213791314Y-55898619D01*
X213759000Y-55778022D01*
X213759000Y-54706458D01*
X213772965Y-54627257D01*
X213807625Y-54567225D01*
X213856381Y-54526314D01*
X213976978Y-54494000D01*
X214798542Y-54494000D01*
X214877743Y-54507965D01*
X214877743Y-54507965D01*
G37*
G36*
X212827743Y-54507965D02*
G01*
X212887775Y-54542625D01*
X212928686Y-54591381D01*
X212961000Y-54711978D01*
X212961000Y-55783542D01*
X212947035Y-55862743D01*
X212912375Y-55922775D01*
X212863619Y-55963686D01*
X212743022Y-55996000D01*
X211921458Y-55996000D01*
X211842257Y-55982035D01*
X211782225Y-55947375D01*
X211741314Y-55898619D01*
X211709000Y-55778022D01*
X211709000Y-54706458D01*
X211722965Y-54627257D01*
X211757625Y-54567225D01*
X211806381Y-54526314D01*
X211926978Y-54494000D01*
X212748542Y-54494000D01*
X212827743Y-54507965D01*
X212827743Y-54507965D01*
G37*
G36*
X205087743Y-50577965D02*
G01*
X205147775Y-50612625D01*
X205188686Y-50661381D01*
X205221000Y-50781978D01*
X205221000Y-51603542D01*
X205207035Y-51682743D01*
X205172375Y-51742775D01*
X205123619Y-51783686D01*
X205003022Y-51816000D01*
X203931458Y-51816000D01*
X203852257Y-51802035D01*
X203792225Y-51767375D01*
X203751314Y-51718619D01*
X203719000Y-51598022D01*
X203719000Y-50776458D01*
X203732965Y-50697257D01*
X203767625Y-50637225D01*
X203816381Y-50596314D01*
X203936978Y-50564000D01*
X205008542Y-50564000D01*
X205087743Y-50577965D01*
X205087743Y-50577965D01*
G37*
G36*
X202547743Y-50577965D02*
G01*
X202607775Y-50612625D01*
X202648686Y-50661381D01*
X202681000Y-50781978D01*
X202681000Y-51603542D01*
X202667035Y-51682743D01*
X202632375Y-51742775D01*
X202583619Y-51783686D01*
X202463022Y-51816000D01*
X201391458Y-51816000D01*
X201312257Y-51802035D01*
X201252225Y-51767375D01*
X201211314Y-51718619D01*
X201179000Y-51598022D01*
X201179000Y-50776458D01*
X201192965Y-50697257D01*
X201227625Y-50637225D01*
X201276381Y-50596314D01*
X201396978Y-50564000D01*
X202468542Y-50564000D01*
X202547743Y-50577965D01*
X202547743Y-50577965D01*
G37*
G36*
X211042459Y-49252075D02*
G01*
X211098049Y-49284169D01*
X211135664Y-49328998D01*
X211166000Y-49442212D01*
X211166000Y-50893309D01*
X211152925Y-50967459D01*
X211120831Y-51023049D01*
X211076002Y-51060664D01*
X210962788Y-51091000D01*
X209836691Y-51091000D01*
X209762541Y-51077925D01*
X209706951Y-51045831D01*
X209669336Y-51001002D01*
X209639000Y-50887788D01*
X209639000Y-49436691D01*
X209652075Y-49362541D01*
X209684169Y-49306951D01*
X209728998Y-49269336D01*
X209842212Y-49239000D01*
X210968309Y-49239000D01*
X211042459Y-49252075D01*
X211042459Y-49252075D01*
G37*
G36*
X208067459Y-49252075D02*
G01*
X208123049Y-49284169D01*
X208160664Y-49328998D01*
X208191000Y-49442212D01*
X208191000Y-50893309D01*
X208177925Y-50967459D01*
X208145831Y-51023049D01*
X208101002Y-51060664D01*
X207987788Y-51091000D01*
X206861691Y-51091000D01*
X206787541Y-51077925D01*
X206731951Y-51045831D01*
X206694336Y-51001002D01*
X206664000Y-50887788D01*
X206664000Y-49436691D01*
X206677075Y-49362541D01*
X206709169Y-49306951D01*
X206753998Y-49269336D01*
X206867212Y-49239000D01*
X207993309Y-49239000D01*
X208067459Y-49252075D01*
X208067459Y-49252075D01*
G37*
G36*
X221168360Y-49278835D02*
G01*
X221249397Y-49305166D01*
X221336663Y-49332848D01*
X221339655Y-49334493D01*
X221348488Y-49337363D01*
X221420466Y-49378919D01*
X221491499Y-49417970D01*
X221498986Y-49424253D01*
X221512511Y-49432061D01*
X221570259Y-49484057D01*
X221626857Y-49531549D01*
X221636962Y-49544118D01*
X221653261Y-49558793D01*
X221695454Y-49616867D01*
X221737579Y-49669260D01*
X221747994Y-49689182D01*
X221764586Y-49712019D01*
X221791297Y-49772012D01*
X221819439Y-49825843D01*
X221827582Y-49853510D01*
X221841621Y-49885042D01*
X221853992Y-49943241D01*
X221869328Y-49995349D01*
X221872518Y-50030401D01*
X221880999Y-50070301D01*
X221880999Y-50123592D01*
X221885343Y-50171324D01*
X221880999Y-50212653D01*
X221880999Y-50259699D01*
X221871217Y-50305721D01*
X221866873Y-50347047D01*
X221852702Y-50392827D01*
X221841621Y-50444958D01*
X221825028Y-50482226D01*
X221814622Y-50515843D01*
X221788789Y-50563620D01*
X221764586Y-50617981D01*
X221744298Y-50645905D01*
X221730580Y-50671276D01*
X221691859Y-50718082D01*
X221653261Y-50771207D01*
X221632284Y-50790095D01*
X221617952Y-50807419D01*
X221565845Y-50849917D01*
X221512511Y-50897939D01*
X221493524Y-50908901D01*
X221481025Y-50919095D01*
X221415780Y-50953786D01*
X221348488Y-50992637D01*
X221333636Y-50997463D01*
X221325003Y-51002053D01*
X221247430Y-51025473D01*
X221168360Y-51051165D01*
X221159114Y-51052137D01*
X221155851Y-51053122D01*
X221064710Y-51062059D01*
X221027211Y-51066000D01*
X220932789Y-51066000D01*
X220791640Y-51051165D01*
X220710603Y-51024834D01*
X220623337Y-50997152D01*
X220620345Y-50995507D01*
X220611512Y-50992637D01*
X220539534Y-50951081D01*
X220468501Y-50912030D01*
X220461014Y-50905747D01*
X220447489Y-50897939D01*
X220389741Y-50845943D01*
X220333143Y-50798451D01*
X220323038Y-50785882D01*
X220306739Y-50771207D01*
X220264546Y-50713133D01*
X220222421Y-50660740D01*
X220212006Y-50640818D01*
X220195414Y-50617981D01*
X220168703Y-50557988D01*
X220140561Y-50504157D01*
X220132418Y-50476490D01*
X220118379Y-50444958D01*
X220106008Y-50386759D01*
X220090672Y-50334651D01*
X220087482Y-50299599D01*
X220079001Y-50259699D01*
X220079001Y-50206408D01*
X220074657Y-50158676D01*
X220079001Y-50117347D01*
X220079001Y-50070301D01*
X220088783Y-50024279D01*
X220093127Y-49982953D01*
X220107298Y-49937173D01*
X220118379Y-49885042D01*
X220134972Y-49847774D01*
X220145378Y-49814157D01*
X220171211Y-49766380D01*
X220195414Y-49712019D01*
X220215702Y-49684095D01*
X220229420Y-49658724D01*
X220268141Y-49611918D01*
X220306739Y-49558793D01*
X220327716Y-49539905D01*
X220342048Y-49522581D01*
X220394155Y-49480083D01*
X220447489Y-49432061D01*
X220466476Y-49421099D01*
X220478975Y-49410905D01*
X220544220Y-49376214D01*
X220611512Y-49337363D01*
X220626364Y-49332537D01*
X220634997Y-49327947D01*
X220712570Y-49304527D01*
X220791640Y-49278835D01*
X220800886Y-49277863D01*
X220804149Y-49276878D01*
X220895290Y-49267941D01*
X220932789Y-49264000D01*
X221027211Y-49264000D01*
X221168360Y-49278835D01*
X221168360Y-49278835D01*
G37*
G36*
X217358360Y-49278835D02*
G01*
X217439397Y-49305166D01*
X217526663Y-49332848D01*
X217529655Y-49334493D01*
X217538488Y-49337363D01*
X217610466Y-49378919D01*
X217681499Y-49417970D01*
X217688986Y-49424253D01*
X217702511Y-49432061D01*
X217760259Y-49484057D01*
X217816857Y-49531549D01*
X217826962Y-49544118D01*
X217843261Y-49558793D01*
X217885454Y-49616867D01*
X217927579Y-49669260D01*
X217937994Y-49689182D01*
X217954586Y-49712019D01*
X217981297Y-49772012D01*
X218009439Y-49825843D01*
X218017582Y-49853510D01*
X218031621Y-49885042D01*
X218043992Y-49943241D01*
X218059328Y-49995349D01*
X218062518Y-50030401D01*
X218070999Y-50070301D01*
X218070999Y-50123592D01*
X218075343Y-50171324D01*
X218070999Y-50212653D01*
X218070999Y-50259699D01*
X218061217Y-50305721D01*
X218056873Y-50347047D01*
X218042702Y-50392827D01*
X218031621Y-50444958D01*
X218015028Y-50482226D01*
X218004622Y-50515843D01*
X217978789Y-50563620D01*
X217954586Y-50617981D01*
X217934298Y-50645905D01*
X217920580Y-50671276D01*
X217881859Y-50718082D01*
X217843261Y-50771207D01*
X217822284Y-50790095D01*
X217807952Y-50807419D01*
X217755845Y-50849917D01*
X217702511Y-50897939D01*
X217683524Y-50908901D01*
X217671025Y-50919095D01*
X217605780Y-50953786D01*
X217538488Y-50992637D01*
X217523636Y-50997463D01*
X217515003Y-51002053D01*
X217437430Y-51025473D01*
X217358360Y-51051165D01*
X217349114Y-51052137D01*
X217345851Y-51053122D01*
X217254710Y-51062059D01*
X217217211Y-51066000D01*
X217122789Y-51066000D01*
X216981640Y-51051165D01*
X216900603Y-51024834D01*
X216813337Y-50997152D01*
X216810345Y-50995507D01*
X216801512Y-50992637D01*
X216729534Y-50951081D01*
X216658501Y-50912030D01*
X216651014Y-50905747D01*
X216637489Y-50897939D01*
X216579741Y-50845943D01*
X216523143Y-50798451D01*
X216513038Y-50785882D01*
X216496739Y-50771207D01*
X216454546Y-50713133D01*
X216412421Y-50660740D01*
X216402006Y-50640818D01*
X216385414Y-50617981D01*
X216358703Y-50557988D01*
X216330561Y-50504157D01*
X216322418Y-50476490D01*
X216308379Y-50444958D01*
X216296008Y-50386759D01*
X216280672Y-50334651D01*
X216277482Y-50299599D01*
X216269001Y-50259699D01*
X216269001Y-50206408D01*
X216264657Y-50158676D01*
X216269001Y-50117347D01*
X216269001Y-50070301D01*
X216278783Y-50024279D01*
X216283127Y-49982953D01*
X216297298Y-49937173D01*
X216308379Y-49885042D01*
X216324972Y-49847774D01*
X216335378Y-49814157D01*
X216361211Y-49766380D01*
X216385414Y-49712019D01*
X216405702Y-49684095D01*
X216419420Y-49658724D01*
X216458141Y-49611918D01*
X216496739Y-49558793D01*
X216517716Y-49539905D01*
X216532048Y-49522581D01*
X216584155Y-49480083D01*
X216637489Y-49432061D01*
X216656476Y-49421099D01*
X216668975Y-49410905D01*
X216734220Y-49376214D01*
X216801512Y-49337363D01*
X216816364Y-49332537D01*
X216824997Y-49327947D01*
X216902570Y-49304527D01*
X216981640Y-49278835D01*
X216990886Y-49277863D01*
X216994149Y-49276878D01*
X217085290Y-49267941D01*
X217122789Y-49264000D01*
X217217211Y-49264000D01*
X217358360Y-49278835D01*
X217358360Y-49278835D01*
G37*
G36*
X212827743Y-49427965D02*
G01*
X212887775Y-49462625D01*
X212928686Y-49511381D01*
X212961000Y-49631978D01*
X212961000Y-50703542D01*
X212947035Y-50782743D01*
X212912375Y-50842775D01*
X212863619Y-50883686D01*
X212743022Y-50916000D01*
X211921458Y-50916000D01*
X211842257Y-50902035D01*
X211782225Y-50867375D01*
X211741314Y-50818619D01*
X211709000Y-50698022D01*
X211709000Y-49626458D01*
X211722965Y-49547257D01*
X211757625Y-49487225D01*
X211806381Y-49446314D01*
X211926978Y-49414000D01*
X212748542Y-49414000D01*
X212827743Y-49427965D01*
X212827743Y-49427965D01*
G37*
G36*
X214877743Y-49427965D02*
G01*
X214937775Y-49462625D01*
X214978686Y-49511381D01*
X215011000Y-49631978D01*
X215011000Y-50703542D01*
X214997035Y-50782743D01*
X214962375Y-50842775D01*
X214913619Y-50883686D01*
X214793022Y-50916000D01*
X213971458Y-50916000D01*
X213892257Y-50902035D01*
X213832225Y-50867375D01*
X213791314Y-50818619D01*
X213759000Y-50698022D01*
X213759000Y-49626458D01*
X213772965Y-49547257D01*
X213807625Y-49487225D01*
X213856381Y-49446314D01*
X213976978Y-49414000D01*
X214798542Y-49414000D01*
X214877743Y-49427965D01*
X214877743Y-49427965D01*
G37*
G36*
X202547743Y-48527965D02*
G01*
X202607775Y-48562625D01*
X202648686Y-48611381D01*
X202681000Y-48731978D01*
X202681000Y-49553542D01*
X202667035Y-49632743D01*
X202632375Y-49692775D01*
X202583619Y-49733686D01*
X202463022Y-49766000D01*
X201391458Y-49766000D01*
X201312257Y-49752035D01*
X201252225Y-49717375D01*
X201211314Y-49668619D01*
X201179000Y-49548022D01*
X201179000Y-48726458D01*
X201192965Y-48647257D01*
X201227625Y-48587225D01*
X201276381Y-48546314D01*
X201396978Y-48514000D01*
X202468542Y-48514000D01*
X202547743Y-48527965D01*
X202547743Y-48527965D01*
G37*
G36*
X205087743Y-48527965D02*
G01*
X205147775Y-48562625D01*
X205188686Y-48611381D01*
X205221000Y-48731978D01*
X205221000Y-49553542D01*
X205207035Y-49632743D01*
X205172375Y-49692775D01*
X205123619Y-49733686D01*
X205003022Y-49766000D01*
X203931458Y-49766000D01*
X203852257Y-49752035D01*
X203792225Y-49717375D01*
X203751314Y-49668619D01*
X203719000Y-49548022D01*
X203719000Y-48726458D01*
X203732965Y-48647257D01*
X203767625Y-48587225D01*
X203816381Y-48546314D01*
X203936978Y-48514000D01*
X205008542Y-48514000D01*
X205087743Y-48527965D01*
X205087743Y-48527965D01*
G37*
G36*
X218071000Y-48526000D02*
G01*
X216269000Y-48526000D01*
X216269000Y-46724000D01*
X218071000Y-46724000D01*
X218071000Y-48526000D01*
X218071000Y-48526000D01*
G37*
G36*
X221881000Y-48526000D02*
G01*
X220079000Y-48526000D01*
X220079000Y-46724000D01*
X221881000Y-46724000D01*
X221881000Y-48526000D01*
X221881000Y-48526000D01*
G37*
G36*
X212827743Y-46887965D02*
G01*
X212887775Y-46922625D01*
X212928686Y-46971381D01*
X212961000Y-47091978D01*
X212961000Y-48163542D01*
X212947035Y-48242743D01*
X212912375Y-48302775D01*
X212863619Y-48343686D01*
X212743022Y-48376000D01*
X211921458Y-48376000D01*
X211842257Y-48362035D01*
X211782225Y-48327375D01*
X211741314Y-48278619D01*
X211709000Y-48158022D01*
X211709000Y-47086458D01*
X211722965Y-47007257D01*
X211757625Y-46947225D01*
X211806381Y-46906314D01*
X211926978Y-46874000D01*
X212748542Y-46874000D01*
X212827743Y-46887965D01*
X212827743Y-46887965D01*
G37*
G36*
X214877743Y-46887965D02*
G01*
X214937775Y-46922625D01*
X214978686Y-46971381D01*
X215011000Y-47091978D01*
X215011000Y-48163542D01*
X214997035Y-48242743D01*
X214962375Y-48302775D01*
X214913619Y-48343686D01*
X214793022Y-48376000D01*
X213971458Y-48376000D01*
X213892257Y-48362035D01*
X213832225Y-48327375D01*
X213791314Y-48278619D01*
X213759000Y-48158022D01*
X213759000Y-47086458D01*
X213772965Y-47007257D01*
X213807625Y-46947225D01*
X213856381Y-46906314D01*
X213976978Y-46874000D01*
X214798542Y-46874000D01*
X214877743Y-46887965D01*
X214877743Y-46887965D01*
G37*
G36*
X202732459Y-46457075D02*
G01*
X202788049Y-46489169D01*
X202825664Y-46533998D01*
X202856000Y-46647212D01*
X202856000Y-47773309D01*
X202842925Y-47847459D01*
X202810831Y-47903049D01*
X202766002Y-47940664D01*
X202652788Y-47971000D01*
X201201691Y-47971000D01*
X201127541Y-47957925D01*
X201071951Y-47925831D01*
X201034336Y-47881002D01*
X201004000Y-47767788D01*
X201004000Y-46641691D01*
X201017075Y-46567541D01*
X201049169Y-46511951D01*
X201093998Y-46474336D01*
X201207212Y-46444000D01*
X202658309Y-46444000D01*
X202732459Y-46457075D01*
X202732459Y-46457075D01*
G37*
G36*
X205272459Y-46457075D02*
G01*
X205328049Y-46489169D01*
X205365664Y-46533998D01*
X205396000Y-46647212D01*
X205396000Y-47773309D01*
X205382925Y-47847459D01*
X205350831Y-47903049D01*
X205306002Y-47940664D01*
X205192788Y-47971000D01*
X203741691Y-47971000D01*
X203667541Y-47957925D01*
X203611951Y-47925831D01*
X203574336Y-47881002D01*
X203544000Y-47767788D01*
X203544000Y-46641691D01*
X203557075Y-46567541D01*
X203589169Y-46511951D01*
X203633998Y-46474336D01*
X203747212Y-46444000D01*
X205198309Y-46444000D01*
X205272459Y-46457075D01*
X205272459Y-46457075D01*
G37*
G36*
X202732459Y-43482075D02*
G01*
X202788049Y-43514169D01*
X202825664Y-43558998D01*
X202856000Y-43672212D01*
X202856000Y-44798309D01*
X202842925Y-44872459D01*
X202810831Y-44928049D01*
X202766002Y-44965664D01*
X202652788Y-44996000D01*
X201201691Y-44996000D01*
X201127541Y-44982925D01*
X201071951Y-44950831D01*
X201034336Y-44906002D01*
X201004000Y-44792788D01*
X201004000Y-43666691D01*
X201017075Y-43592541D01*
X201049169Y-43536951D01*
X201093998Y-43499336D01*
X201207212Y-43469000D01*
X202658309Y-43469000D01*
X202732459Y-43482075D01*
X202732459Y-43482075D01*
G37*
G36*
X205272459Y-43482075D02*
G01*
X205328049Y-43514169D01*
X205365664Y-43558998D01*
X205396000Y-43672212D01*
X205396000Y-44798309D01*
X205382925Y-44872459D01*
X205350831Y-44928049D01*
X205306002Y-44965664D01*
X205192788Y-44996000D01*
X203741691Y-44996000D01*
X203667541Y-44982925D01*
X203611951Y-44950831D01*
X203574336Y-44906002D01*
X203544000Y-44792788D01*
X203544000Y-43666691D01*
X203557075Y-43592541D01*
X203589169Y-43536951D01*
X203633998Y-43499336D01*
X203747212Y-43469000D01*
X205198309Y-43469000D01*
X205272459Y-43482075D01*
X205272459Y-43482075D01*
G37*
G36*
X212827743Y-42442965D02*
G01*
X212887775Y-42477625D01*
X212928686Y-42526381D01*
X212961000Y-42646978D01*
X212961000Y-43718542D01*
X212947035Y-43797743D01*
X212912375Y-43857775D01*
X212863619Y-43898686D01*
X212743022Y-43931000D01*
X211921458Y-43931000D01*
X211842257Y-43917035D01*
X211782225Y-43882375D01*
X211741314Y-43833619D01*
X211709000Y-43713022D01*
X211709000Y-42641458D01*
X211722965Y-42562257D01*
X211757625Y-42502225D01*
X211806381Y-42461314D01*
X211926978Y-42429000D01*
X212748542Y-42429000D01*
X212827743Y-42442965D01*
X212827743Y-42442965D01*
G37*
G36*
X214877743Y-42442965D02*
G01*
X214937775Y-42477625D01*
X214978686Y-42526381D01*
X215011000Y-42646978D01*
X215011000Y-43718542D01*
X214997035Y-43797743D01*
X214962375Y-43857775D01*
X214913619Y-43898686D01*
X214793022Y-43931000D01*
X213971458Y-43931000D01*
X213892257Y-43917035D01*
X213832225Y-43882375D01*
X213791314Y-43833619D01*
X213759000Y-43713022D01*
X213759000Y-42641458D01*
X213772965Y-42562257D01*
X213807625Y-42502225D01*
X213856381Y-42461314D01*
X213976978Y-42429000D01*
X214798542Y-42429000D01*
X214877743Y-42442965D01*
X214877743Y-42442965D01*
G37*
G36*
X207198360Y-38483835D02*
G01*
X207279397Y-38510166D01*
X207366663Y-38537848D01*
X207369655Y-38539493D01*
X207378488Y-38542363D01*
X207450466Y-38583919D01*
X207521499Y-38622970D01*
X207528986Y-38629253D01*
X207542511Y-38637061D01*
X207600259Y-38689057D01*
X207656857Y-38736549D01*
X207666962Y-38749118D01*
X207683261Y-38763793D01*
X207725454Y-38821867D01*
X207767579Y-38874260D01*
X207777994Y-38894182D01*
X207794586Y-38917019D01*
X207821297Y-38977012D01*
X207849439Y-39030843D01*
X207857582Y-39058510D01*
X207871621Y-39090042D01*
X207883992Y-39148241D01*
X207899328Y-39200349D01*
X207902518Y-39235401D01*
X207910999Y-39275301D01*
X207910999Y-39328592D01*
X207915343Y-39376324D01*
X207910999Y-39417653D01*
X207910999Y-39464699D01*
X207901217Y-39510721D01*
X207896873Y-39552047D01*
X207882702Y-39597827D01*
X207871621Y-39649958D01*
X207855028Y-39687226D01*
X207844622Y-39720843D01*
X207818789Y-39768620D01*
X207794586Y-39822981D01*
X207774298Y-39850905D01*
X207760580Y-39876276D01*
X207721859Y-39923082D01*
X207683261Y-39976207D01*
X207662284Y-39995095D01*
X207647952Y-40012419D01*
X207595845Y-40054917D01*
X207542511Y-40102939D01*
X207523524Y-40113901D01*
X207511025Y-40124095D01*
X207445780Y-40158786D01*
X207378488Y-40197637D01*
X207363636Y-40202463D01*
X207355003Y-40207053D01*
X207277430Y-40230473D01*
X207198360Y-40256165D01*
X207189114Y-40257137D01*
X207185851Y-40258122D01*
X207094710Y-40267059D01*
X207057211Y-40271000D01*
X206962789Y-40271000D01*
X206821640Y-40256165D01*
X206740603Y-40229834D01*
X206653337Y-40202152D01*
X206650345Y-40200507D01*
X206641512Y-40197637D01*
X206569534Y-40156081D01*
X206498501Y-40117030D01*
X206491014Y-40110747D01*
X206477489Y-40102939D01*
X206419741Y-40050943D01*
X206363143Y-40003451D01*
X206353038Y-39990882D01*
X206336739Y-39976207D01*
X206294546Y-39918133D01*
X206252421Y-39865740D01*
X206242006Y-39845818D01*
X206225414Y-39822981D01*
X206198703Y-39762988D01*
X206170561Y-39709157D01*
X206162418Y-39681490D01*
X206148379Y-39649958D01*
X206136008Y-39591759D01*
X206120672Y-39539651D01*
X206117482Y-39504599D01*
X206109001Y-39464699D01*
X206109001Y-39411408D01*
X206104657Y-39363676D01*
X206109001Y-39322347D01*
X206109001Y-39275301D01*
X206118783Y-39229279D01*
X206123127Y-39187953D01*
X206137298Y-39142173D01*
X206148379Y-39090042D01*
X206164972Y-39052774D01*
X206175378Y-39019157D01*
X206201211Y-38971380D01*
X206225414Y-38917019D01*
X206245702Y-38889095D01*
X206259420Y-38863724D01*
X206298141Y-38816918D01*
X206336739Y-38763793D01*
X206357716Y-38744905D01*
X206372048Y-38727581D01*
X206424155Y-38685083D01*
X206477489Y-38637061D01*
X206496476Y-38626099D01*
X206508975Y-38615905D01*
X206574220Y-38581214D01*
X206641512Y-38542363D01*
X206656364Y-38537537D01*
X206664997Y-38532947D01*
X206742570Y-38509527D01*
X206821640Y-38483835D01*
X206830886Y-38482863D01*
X206834149Y-38481878D01*
X206925290Y-38472941D01*
X206962789Y-38469000D01*
X207057211Y-38469000D01*
X207198360Y-38483835D01*
X207198360Y-38483835D01*
G37*
G36*
X209738360Y-38483835D02*
G01*
X209819397Y-38510166D01*
X209906663Y-38537848D01*
X209909655Y-38539493D01*
X209918488Y-38542363D01*
X209990466Y-38583919D01*
X210061499Y-38622970D01*
X210068986Y-38629253D01*
X210082511Y-38637061D01*
X210140259Y-38689057D01*
X210196857Y-38736549D01*
X210206962Y-38749118D01*
X210223261Y-38763793D01*
X210265454Y-38821867D01*
X210307579Y-38874260D01*
X210317994Y-38894182D01*
X210334586Y-38917019D01*
X210361297Y-38977012D01*
X210389439Y-39030843D01*
X210397582Y-39058510D01*
X210411621Y-39090042D01*
X210423992Y-39148241D01*
X210439328Y-39200349D01*
X210442518Y-39235401D01*
X210450999Y-39275301D01*
X210450999Y-39328592D01*
X210455343Y-39376324D01*
X210450999Y-39417653D01*
X210450999Y-39464699D01*
X210441217Y-39510721D01*
X210436873Y-39552047D01*
X210422702Y-39597827D01*
X210411621Y-39649958D01*
X210395028Y-39687226D01*
X210384622Y-39720843D01*
X210358789Y-39768620D01*
X210334586Y-39822981D01*
X210314298Y-39850905D01*
X210300580Y-39876276D01*
X210261859Y-39923082D01*
X210223261Y-39976207D01*
X210202284Y-39995095D01*
X210187952Y-40012419D01*
X210135845Y-40054917D01*
X210082511Y-40102939D01*
X210063524Y-40113901D01*
X210051025Y-40124095D01*
X209985780Y-40158786D01*
X209918488Y-40197637D01*
X209903636Y-40202463D01*
X209895003Y-40207053D01*
X209817430Y-40230473D01*
X209738360Y-40256165D01*
X209729114Y-40257137D01*
X209725851Y-40258122D01*
X209634710Y-40267059D01*
X209597211Y-40271000D01*
X209502789Y-40271000D01*
X209361640Y-40256165D01*
X209280603Y-40229834D01*
X209193337Y-40202152D01*
X209190345Y-40200507D01*
X209181512Y-40197637D01*
X209109534Y-40156081D01*
X209038501Y-40117030D01*
X209031014Y-40110747D01*
X209017489Y-40102939D01*
X208959741Y-40050943D01*
X208903143Y-40003451D01*
X208893038Y-39990882D01*
X208876739Y-39976207D01*
X208834546Y-39918133D01*
X208792421Y-39865740D01*
X208782006Y-39845818D01*
X208765414Y-39822981D01*
X208738703Y-39762988D01*
X208710561Y-39709157D01*
X208702418Y-39681490D01*
X208688379Y-39649958D01*
X208676008Y-39591759D01*
X208660672Y-39539651D01*
X208657482Y-39504599D01*
X208649001Y-39464699D01*
X208649001Y-39411408D01*
X208644657Y-39363676D01*
X208649001Y-39322347D01*
X208649001Y-39275301D01*
X208658783Y-39229279D01*
X208663127Y-39187953D01*
X208677298Y-39142173D01*
X208688379Y-39090042D01*
X208704972Y-39052774D01*
X208715378Y-39019157D01*
X208741211Y-38971380D01*
X208765414Y-38917019D01*
X208785702Y-38889095D01*
X208799420Y-38863724D01*
X208838141Y-38816918D01*
X208876739Y-38763793D01*
X208897716Y-38744905D01*
X208912048Y-38727581D01*
X208964155Y-38685083D01*
X209017489Y-38637061D01*
X209036476Y-38626099D01*
X209048975Y-38615905D01*
X209114220Y-38581214D01*
X209181512Y-38542363D01*
X209196364Y-38537537D01*
X209204997Y-38532947D01*
X209282570Y-38509527D01*
X209361640Y-38483835D01*
X209370886Y-38482863D01*
X209374149Y-38481878D01*
X209465290Y-38472941D01*
X209502789Y-38469000D01*
X209597211Y-38469000D01*
X209738360Y-38483835D01*
X209738360Y-38483835D01*
G37*
G36*
X212278360Y-38483835D02*
G01*
X212359397Y-38510166D01*
X212446663Y-38537848D01*
X212449655Y-38539493D01*
X212458488Y-38542363D01*
X212530466Y-38583919D01*
X212601499Y-38622970D01*
X212608986Y-38629253D01*
X212622511Y-38637061D01*
X212680259Y-38689057D01*
X212736857Y-38736549D01*
X212746962Y-38749118D01*
X212763261Y-38763793D01*
X212805454Y-38821867D01*
X212847579Y-38874260D01*
X212857994Y-38894182D01*
X212874586Y-38917019D01*
X212901297Y-38977012D01*
X212929439Y-39030843D01*
X212937582Y-39058510D01*
X212951621Y-39090042D01*
X212963992Y-39148241D01*
X212979328Y-39200349D01*
X212982518Y-39235401D01*
X212990999Y-39275301D01*
X212990999Y-39328592D01*
X212995343Y-39376324D01*
X212990999Y-39417653D01*
X212990999Y-39464699D01*
X212981217Y-39510721D01*
X212976873Y-39552047D01*
X212962702Y-39597827D01*
X212951621Y-39649958D01*
X212935028Y-39687226D01*
X212924622Y-39720843D01*
X212898789Y-39768620D01*
X212874586Y-39822981D01*
X212854298Y-39850905D01*
X212840580Y-39876276D01*
X212801859Y-39923082D01*
X212763261Y-39976207D01*
X212742284Y-39995095D01*
X212727952Y-40012419D01*
X212675845Y-40054917D01*
X212622511Y-40102939D01*
X212603524Y-40113901D01*
X212591025Y-40124095D01*
X212525780Y-40158786D01*
X212458488Y-40197637D01*
X212443636Y-40202463D01*
X212435003Y-40207053D01*
X212357430Y-40230473D01*
X212278360Y-40256165D01*
X212269114Y-40257137D01*
X212265851Y-40258122D01*
X212174710Y-40267059D01*
X212137211Y-40271000D01*
X212042789Y-40271000D01*
X211901640Y-40256165D01*
X211820603Y-40229834D01*
X211733337Y-40202152D01*
X211730345Y-40200507D01*
X211721512Y-40197637D01*
X211649534Y-40156081D01*
X211578501Y-40117030D01*
X211571014Y-40110747D01*
X211557489Y-40102939D01*
X211499741Y-40050943D01*
X211443143Y-40003451D01*
X211433038Y-39990882D01*
X211416739Y-39976207D01*
X211374546Y-39918133D01*
X211332421Y-39865740D01*
X211322006Y-39845818D01*
X211305414Y-39822981D01*
X211278703Y-39762988D01*
X211250561Y-39709157D01*
X211242418Y-39681490D01*
X211228379Y-39649958D01*
X211216008Y-39591759D01*
X211200672Y-39539651D01*
X211197482Y-39504599D01*
X211189001Y-39464699D01*
X211189001Y-39411408D01*
X211184657Y-39363676D01*
X211189001Y-39322347D01*
X211189001Y-39275301D01*
X211198783Y-39229279D01*
X211203127Y-39187953D01*
X211217298Y-39142173D01*
X211228379Y-39090042D01*
X211244972Y-39052774D01*
X211255378Y-39019157D01*
X211281211Y-38971380D01*
X211305414Y-38917019D01*
X211325702Y-38889095D01*
X211339420Y-38863724D01*
X211378141Y-38816918D01*
X211416739Y-38763793D01*
X211437716Y-38744905D01*
X211452048Y-38727581D01*
X211504155Y-38685083D01*
X211557489Y-38637061D01*
X211576476Y-38626099D01*
X211588975Y-38615905D01*
X211654220Y-38581214D01*
X211721512Y-38542363D01*
X211736364Y-38537537D01*
X211744997Y-38532947D01*
X211822570Y-38509527D01*
X211901640Y-38483835D01*
X211910886Y-38482863D01*
X211914149Y-38481878D01*
X212005290Y-38472941D01*
X212042789Y-38469000D01*
X212137211Y-38469000D01*
X212278360Y-38483835D01*
X212278360Y-38483835D01*
G37*
G36*
X214818360Y-38483835D02*
G01*
X214899397Y-38510166D01*
X214986663Y-38537848D01*
X214989655Y-38539493D01*
X214998488Y-38542363D01*
X215070466Y-38583919D01*
X215141499Y-38622970D01*
X215148986Y-38629253D01*
X215162511Y-38637061D01*
X215220259Y-38689057D01*
X215276857Y-38736549D01*
X215286962Y-38749118D01*
X215303261Y-38763793D01*
X215345454Y-38821867D01*
X215387579Y-38874260D01*
X215397994Y-38894182D01*
X215414586Y-38917019D01*
X215441297Y-38977012D01*
X215469439Y-39030843D01*
X215477582Y-39058510D01*
X215491621Y-39090042D01*
X215503992Y-39148241D01*
X215519328Y-39200349D01*
X215522518Y-39235401D01*
X215530999Y-39275301D01*
X215530999Y-39328592D01*
X215535343Y-39376324D01*
X215530999Y-39417653D01*
X215530999Y-39464699D01*
X215521217Y-39510721D01*
X215516873Y-39552047D01*
X215502702Y-39597827D01*
X215491621Y-39649958D01*
X215475028Y-39687226D01*
X215464622Y-39720843D01*
X215438789Y-39768620D01*
X215414586Y-39822981D01*
X215394298Y-39850905D01*
X215380580Y-39876276D01*
X215341859Y-39923082D01*
X215303261Y-39976207D01*
X215282284Y-39995095D01*
X215267952Y-40012419D01*
X215215845Y-40054917D01*
X215162511Y-40102939D01*
X215143524Y-40113901D01*
X215131025Y-40124095D01*
X215065780Y-40158786D01*
X214998488Y-40197637D01*
X214983636Y-40202463D01*
X214975003Y-40207053D01*
X214897430Y-40230473D01*
X214818360Y-40256165D01*
X214809114Y-40257137D01*
X214805851Y-40258122D01*
X214714710Y-40267059D01*
X214677211Y-40271000D01*
X214582789Y-40271000D01*
X214441640Y-40256165D01*
X214360603Y-40229834D01*
X214273337Y-40202152D01*
X214270345Y-40200507D01*
X214261512Y-40197637D01*
X214189534Y-40156081D01*
X214118501Y-40117030D01*
X214111014Y-40110747D01*
X214097489Y-40102939D01*
X214039741Y-40050943D01*
X213983143Y-40003451D01*
X213973038Y-39990882D01*
X213956739Y-39976207D01*
X213914546Y-39918133D01*
X213872421Y-39865740D01*
X213862006Y-39845818D01*
X213845414Y-39822981D01*
X213818703Y-39762988D01*
X213790561Y-39709157D01*
X213782418Y-39681490D01*
X213768379Y-39649958D01*
X213756008Y-39591759D01*
X213740672Y-39539651D01*
X213737482Y-39504599D01*
X213729001Y-39464699D01*
X213729001Y-39411408D01*
X213724657Y-39363676D01*
X213729001Y-39322347D01*
X213729001Y-39275301D01*
X213738783Y-39229279D01*
X213743127Y-39187953D01*
X213757298Y-39142173D01*
X213768379Y-39090042D01*
X213784972Y-39052774D01*
X213795378Y-39019157D01*
X213821211Y-38971380D01*
X213845414Y-38917019D01*
X213865702Y-38889095D01*
X213879420Y-38863724D01*
X213918141Y-38816918D01*
X213956739Y-38763793D01*
X213977716Y-38744905D01*
X213992048Y-38727581D01*
X214044155Y-38685083D01*
X214097489Y-38637061D01*
X214116476Y-38626099D01*
X214128975Y-38615905D01*
X214194220Y-38581214D01*
X214261512Y-38542363D01*
X214276364Y-38537537D01*
X214284997Y-38532947D01*
X214362570Y-38509527D01*
X214441640Y-38483835D01*
X214450886Y-38482863D01*
X214454149Y-38481878D01*
X214545290Y-38472941D01*
X214582789Y-38469000D01*
X214677211Y-38469000D01*
X214818360Y-38483835D01*
X214818360Y-38483835D01*
G37*
G36*
X205371000Y-40271000D02*
G01*
X203569000Y-40271000D01*
X203569000Y-38469000D01*
X205371000Y-38469000D01*
X205371000Y-40271000D01*
X205371000Y-40271000D01*
G37*
G36*
X220989157Y-36697794D02*
G01*
X221043764Y-36695887D01*
X221101626Y-36703197D01*
X221165961Y-36706287D01*
X221219288Y-36718060D01*
X221267430Y-36724142D01*
X221329258Y-36742339D01*
X221398128Y-36757544D01*
X221443047Y-36775829D01*
X221483709Y-36787797D01*
X221547351Y-36818289D01*
X221618340Y-36847187D01*
X221654327Y-36869543D01*
X221687022Y-36885208D01*
X221749994Y-36928975D01*
X221820300Y-36972651D01*
X221847423Y-36996689D01*
X221872151Y-37013876D01*
X221931712Y-37071394D01*
X221998233Y-37130350D01*
X222017079Y-37153832D01*
X222034327Y-37170488D01*
X222087597Y-37241696D01*
X222147051Y-37315774D01*
X222158689Y-37336726D01*
X222169376Y-37351012D01*
X222213429Y-37435277D01*
X222262500Y-37523622D01*
X222268405Y-37540436D01*
X222273823Y-37550800D01*
X222305765Y-37646820D01*
X222341279Y-37747949D01*
X222343238Y-37759468D01*
X222344988Y-37764730D01*
X222362172Y-37870827D01*
X222381134Y-37982344D01*
X222378362Y-38246974D01*
X222357096Y-38357929D01*
X222337668Y-38463785D01*
X222335804Y-38469020D01*
X222333607Y-38480482D01*
X222296015Y-38580760D01*
X222262040Y-38676172D01*
X222256403Y-38686425D01*
X222250148Y-38703111D01*
X222199233Y-38790417D01*
X222153428Y-38873735D01*
X222142446Y-38887791D01*
X222130372Y-38908495D01*
X222069378Y-38981315D01*
X222014630Y-39051388D01*
X221997038Y-39067678D01*
X221977703Y-39090762D01*
X221909965Y-39148310D01*
X221849208Y-39204571D01*
X221824120Y-39221239D01*
X221796506Y-39244699D01*
X221725311Y-39286888D01*
X221661430Y-39329330D01*
X221628414Y-39344307D01*
X221591963Y-39365907D01*
X221520385Y-39393312D01*
X221456117Y-39422465D01*
X221415208Y-39433580D01*
X221369922Y-39450918D01*
X221300749Y-39464677D01*
X221238555Y-39481575D01*
X221190300Y-39486647D01*
X221136733Y-39497302D01*
X221072349Y-39499044D01*
X221014342Y-39505141D01*
X220959778Y-39502090D01*
X220899061Y-39503733D01*
X220841351Y-39495468D01*
X220789244Y-39492555D01*
X220729905Y-39479509D01*
X220663704Y-39470028D01*
X220614032Y-39454032D01*
X220569053Y-39444143D01*
X220506870Y-39419523D01*
X220437391Y-39397149D01*
X220396562Y-39375849D01*
X220359438Y-39361151D01*
X220296723Y-39323765D01*
X220226593Y-39287180D01*
X220194820Y-39263019D01*
X220165787Y-39245712D01*
X220105161Y-39194841D01*
X220037337Y-39143266D01*
X220014275Y-39118578D01*
X219993083Y-39100796D01*
X219937378Y-39036261D01*
X219875034Y-38969522D01*
X219859830Y-38946419D01*
X219845769Y-38930130D01*
X219797889Y-38852303D01*
X219744326Y-38770916D01*
X219735698Y-38751214D01*
X219727635Y-38738108D01*
X219690454Y-38647901D01*
X219648950Y-38553127D01*
X219645247Y-38538221D01*
X219641724Y-38529673D01*
X219618028Y-38428643D01*
X219591632Y-38322381D01*
X219590949Y-38313191D01*
X219590243Y-38310181D01*
X219582554Y-38200219D01*
X219574012Y-38085276D01*
X219584980Y-37970318D01*
X219594951Y-37860758D01*
X219595718Y-37857769D01*
X219596594Y-37848592D01*
X219625231Y-37742825D01*
X219651018Y-37642391D01*
X219654716Y-37633928D01*
X219658731Y-37619097D01*
X219702214Y-37525206D01*
X219741273Y-37435804D01*
X219749611Y-37422866D01*
X219758648Y-37403353D01*
X219813893Y-37323120D01*
X219863403Y-37246297D01*
X219877804Y-37230303D01*
X219893486Y-37207528D01*
X219957201Y-37142123D01*
X220014258Y-37078754D01*
X220035822Y-37061416D01*
X220059392Y-37037221D01*
X220128275Y-36987083D01*
X220189957Y-36937489D01*
X220219345Y-36920794D01*
X220251620Y-36897302D01*
X220322503Y-36862192D01*
X220385986Y-36826129D01*
X220423412Y-36812210D01*
X220464675Y-36791772D01*
X220534594Y-36770862D01*
X220597294Y-36747544D01*
X220642486Y-36738596D01*
X220692465Y-36723649D01*
X220758830Y-36715559D01*
X220818445Y-36703755D01*
X220870605Y-36701934D01*
X220928477Y-36694879D01*
X220989157Y-36697794D01*
X220989157Y-36697794D01*
G37*
M02*
